<svg width="1741" height="191" viewBox="0 0 1741 191" fill="none" xmlns="http://www.w3.org/2000/svg">
<g clip-path="url(#clip0_105_5)">
<path d="M1672.45 173.42H1671.22C1670.78 173.199 1670.32 173.008 1669.85 172.85L1620.07 158.95C1618.69 158.57 1616.85 158.56 1616.07 157.65C1615.29 156.74 1615.45 154.89 1615.32 153.44C1614.32 142.46 1613.34 131.48 1612.38 120.5C1611.51 110.74 1610.67 100.98 1609.8 91.2201C1608.83 80.2401 1607.85 69.2599 1606.86 58.2799C1605.98 48.3199 1605.1 38.36 1604.21 28.4C1603.87 24.5 1603.54 20.59 1603.21 16.61H1740.41C1740.43 16.8263 1740.43 17.0439 1740.41 17.2601C1739.89 23.2601 1739.36 29.2601 1738.82 35.2601C1737.83 46.3401 1736.83 57.4201 1735.82 68.5001C1734.97 78.1601 1734.11 87.8268 1733.26 97.5001C1732.28 108.527 1731.3 119.557 1730.31 130.59C1729.55 139.13 1728.78 147.67 1728.08 156.21C1728.08 156.697 1727.91 157.169 1727.59 157.537C1727.27 157.905 1726.83 158.144 1726.35 158.21C1712.15 162.13 1697.96 166.087 1683.78 170.08C1680.03 171.14 1676.22 172.3 1672.45 173.42ZM1693.81 96.2799C1692.95 104.05 1692.12 111.75 1691.2 119.43C1691.2 119.86 1690.41 120.43 1689.89 120.55C1684.24 122.117 1678.57 123.647 1672.89 125.14C1672.2 125.31 1671.49 125.31 1670.8 125.14C1665.08 123.64 1659.39 122.05 1653.66 120.56C1653.29 120.52 1652.95 120.34 1652.71 120.058C1652.46 119.776 1652.34 119.412 1652.35 119.04C1652.02 115.04 1651.62 111.04 1651.3 107.04C1651.23 106.17 1651.02 105.78 1650.06 105.79C1644.85 105.79 1639.64 105.79 1634.43 105.79C1634.21 105.823 1633.99 105.887 1633.78 105.98C1633.89 107.28 1634 108.55 1634.12 109.81C1634.79 117.33 1635.48 124.86 1636.12 132.38C1636.09 132.751 1636.2 133.12 1636.44 133.411C1636.67 133.703 1637 133.895 1637.37 133.95C1648.48 136.95 1659.58 140.07 1670.69 143.11C1671.42 143.3 1672.18 143.3 1672.91 143.11C1683.68 140.17 1694.42 137.11 1705.21 134.27C1706.87 133.83 1707.49 133.18 1707.63 131.47C1708.48 121.15 1709.44 110.83 1710.36 100.47C1711.79 84.5101 1713.21 68.55 1714.63 52.59C1714.84 50.22 1715.02 47.8501 1715.22 45.4301H1628.33L1629.47 61.63H1696.47C1696.08 66.96 1695.66 72.1901 1695.36 77.4301C1695.29 78.7301 1694.95 79.15 1693.59 79.16C1673.36 79.3734 1653.13 79.6133 1632.92 79.88H1631.22L1632.94 96.2401L1693.81 96.2799Z" fill="#5E6E6E"/>
<path d="M1314.04 17.8999V172.25C1313.89 172.574 1313.77 172.908 1313.68 173.25C1313.17 176.239 1311.99 179.071 1310.21 181.526C1308.43 183.982 1306.11 185.995 1303.43 187.41C1301.1 188.468 1298.69 189.35 1296.23 190.05H1141.92C1141.77 189.96 1141.63 189.8 1141.46 189.78C1132.65 188.63 1124.03 180.54 1124.06 168.36C1124.2 119.51 1124.11 70.6698 1124.14 21.8198C1124.1 19.8478 1124.29 17.8782 1124.71 15.95C1126.98 6.30996 1135.08 0.0998554 1145.3 0.0898554H1271.03C1278.63 0.0898554 1286.24 -0.0800958 1293.83 0.139904C1302.47 0.389904 1308.68 4.63999 1312.31 12.48C1313 14.2484 1313.58 16.0586 1314.04 17.8999ZM1219.04 167.73C1233.41 167.734 1247.46 163.477 1259.41 155.498C1271.36 147.518 1280.67 136.175 1286.18 122.901C1291.68 109.628 1293.13 95.0199 1290.33 80.9253C1287.53 66.8307 1280.62 53.882 1270.46 43.7163C1260.31 33.5506 1247.36 26.6246 1233.27 23.8137C1219.18 21.0029 1204.57 22.4334 1191.29 27.9246C1178.01 33.4158 1166.66 42.7211 1158.67 54.6638C1150.68 66.6066 1146.41 80.6505 1146.4 95.02C1146.42 114.289 1154.09 132.761 1167.71 146.386C1181.34 160.011 1199.81 167.676 1219.08 167.7L1219.04 167.73Z" fill="#5E6E6E"/>
<path d="M1219.13 26.7702C1232.64 26.7761 1245.84 30.79 1257.07 38.3036C1268.3 45.8172 1277.04 56.4928 1282.2 68.9791C1287.36 81.4654 1288.69 95.2009 1286.04 108.447C1283.39 121.693 1276.86 133.855 1267.3 143.392C1257.73 152.929 1245.55 159.413 1232.29 162.024C1219.04 164.634 1205.3 163.253 1192.84 158.056C1180.37 152.859 1169.72 144.079 1162.24 132.827C1154.76 121.576 1150.79 108.359 1150.83 94.85C1150.88 76.7706 1158.1 59.4487 1170.9 46.6852C1183.71 33.9217 1201.05 26.7595 1219.13 26.7702ZM1203.96 132C1204.23 131.44 1204.39 131.17 1204.49 130.89C1208.64 118.41 1212.81 105.94 1216.9 93.4501C1217.09 92.634 1217.03 91.7798 1216.72 91.0001C1214.22 84.0001 1211.54 77.11 1209.17 70.1C1208.32 67.58 1207.32 65.95 1204.37 66.38C1203.63 66.3882 1202.89 66.3076 1202.17 66.14C1200.03 65.9 1199.17 65.02 1199.31 63.33C1199.45 61.64 1200.5 61.0101 1202.56 61.1801C1212.79 61.9901 1223.08 61.9901 1233.31 61.1801C1235.37 61.0101 1236.41 61.76 1236.55 63.33C1236.69 64.9 1235.73 65.92 1233.63 66.13L1227.45 66.7401L1249.13 131.25C1252.52 121.45 1255.55 111.67 1258.43 101.84C1259.83 97.3378 1260.24 92.5864 1259.64 87.91C1258.95 83.04 1256.89 78.7401 1254.51 74.5101C1252.65 71.1901 1250.57 67.8501 1249.51 64.2501C1247.2 56.3501 1253.17 50.3 1258.8 50.38C1258.99 50.38 1259.19 50.21 1259.43 50.1C1231.43 24.42 1186.89 32.1 1168.81 61.85C1170.48 61.85 1172.01 61.9 1173.55 61.85C1178.36 61.6367 1183.18 61.4067 1187.99 61.16C1189.24 61.1 1190.34 61.2299 1190.93 62.5499C1191.68 64.2499 1190.69 65.86 1188.66 66.1C1186.63 66.34 1184.32 66.5301 1182.02 66.7501C1189.38 88.6001 1196.63 110.17 1203.96 132ZM1220.14 100.34L1201.99 153.1C1214.14 156.672 1227.1 156.351 1239.06 152.18L1220.14 100.34ZM1192.59 149.34C1182.97 122.97 1173.49 96.9699 1163.93 70.7799C1151.34 96.7399 1161.1 134.22 1192.59 149.31V149.34ZM1249.59 147.18C1280 129.58 1286.59 91.4801 1272.29 66.7301C1273.07 74.8302 1272.02 83.0018 1269.21 90.64C1264.27 104.74 1259.36 118.847 1254.49 132.96C1252.9 137.52 1251.32 142.12 1249.59 147.15V147.18Z" fill="#5E6E6E"/>
<path d="M900.03 170.12V19.9C900.165 19.6459 900.273 19.3776 900.35 19.1C900.743 16.4464 901.708 13.9101 903.177 11.6656C904.646 9.42122 906.585 7.52219 908.86 6.09998C911.44 4.49998 914.54 3.71995 917.4 2.56995H1067.93C1068.25 2.7109 1068.59 2.82471 1068.93 2.91003C1071.76 3.37524 1074.44 4.47426 1076.79 6.12463C1079.13 7.77501 1081.07 9.93399 1082.46 12.4401C1083.74 14.7401 1084.39 17.44 1085.32 19.9V170.15C1085.25 170.24 1085.13 170.32 1085.1 170.42C1082.32 181.94 1075.3 187.48 1063.46 187.48H939.46C932.89 187.48 926.32 187.57 919.75 187.48C916.665 187.463 913.627 186.719 910.884 185.308C908.14 183.898 905.768 181.86 903.96 179.36C901.82 176.56 900.89 173.36 900.03 170.12ZM1027.41 74.4801C1027.88 74.0901 1028.24 73.7801 1028.61 73.4801C1032.71 70.3941 1035.74 66.102 1037.27 61.2067C1038.8 56.3113 1038.76 51.0586 1037.16 46.1864C1035.55 41.3142 1032.46 37.0675 1028.32 34.0424C1024.18 31.0172 1019.19 29.3656 1014.06 29.3199C999.773 29.2333 985.48 29.2333 971.18 29.3199C966.176 29.3842 961.312 30.9759 957.238 33.882C953.164 36.788 950.076 40.8697 948.386 45.58C946.697 50.2902 946.487 55.4042 947.785 60.2369C949.084 65.0697 951.828 69.3903 955.65 72.62C956.37 73.23 957.12 73.8 957.89 74.41C954.528 76.6846 951.775 79.7487 949.872 83.3339C947.969 86.9191 946.974 90.916 946.974 94.975C946.974 99.0339 947.969 103.031 949.872 106.616C951.775 110.202 954.528 113.265 957.89 115.54C957.35 115.97 956.83 116.35 956.34 116.77C948.42 123.43 945.34 131.87 947.71 141.93C950.49 153.74 962.11 161.88 973.71 160.55C986.93 159.05 996.47 148.94 996.62 136.21C996.69 129.21 996.62 122.21 996.62 115.26C996.62 114.69 996.62 114.13 996.7 113.44C1010.42 124.65 1027.5 118.9 1034.22 108.63C1037.79 103.182 1039.08 96.5494 1037.8 90.1613C1036.53 83.7731 1032.8 78.1413 1027.41 74.4801Z" fill="#5E6E6E"/>
<path d="M988.52 70.1601C981.86 70.1601 975.3 70.7202 968.88 70.0202C960.29 69.0902 954.63 61.5 955.04 52.8C955.282 48.7925 956.996 45.0159 959.854 42.1955C962.711 39.3751 966.51 37.7102 970.52 37.5202C976.46 37.2302 982.43 37.4601 988.52 37.4601V70.1601Z" fill="#5E6E6E"/>
<path d="M996.76 70.42V37.5899C996.984 37.4938 997.219 37.4267 997.46 37.39C1003.3 37.39 1009.16 37.2099 1014.99 37.5299C1019.25 37.7679 1023.24 39.6736 1026.11 42.8346C1028.97 45.9955 1030.48 50.1575 1030.3 54.42C1030.19 58.6284 1028.47 62.6339 1025.49 65.6107C1022.51 68.5875 1018.51 70.3088 1014.3 70.42C1008.54 70.53 1002.75 70.42 996.76 70.42Z" fill="#5E6E6E"/>
<path d="M988.56 78.5201V111.52C987.12 111.52 985.75 111.52 984.38 111.52C979.5 111.52 974.59 111.78 969.75 111.29C965.653 110.871 961.864 108.929 959.132 105.847C956.401 102.766 954.927 98.7711 955.002 94.6541C955.078 90.5371 956.697 86.5988 959.54 83.6197C962.383 80.6406 966.241 78.8382 970.35 78.5699C976.34 78.1999 982.37 78.5201 988.56 78.5201Z" fill="#5E6E6E"/>
<path d="M988.31 119.62C988.31 126.16 988.88 132.62 988.18 138.97C987.18 147.59 978.66 153.37 969.51 152.44C961.12 151.58 954.75 144.01 955.03 135.24C955.242 131.099 957.006 127.19 959.971 124.291C962.937 121.393 966.885 119.718 971.03 119.6C976.57 119.46 982.12 119.6 987.66 119.6C987.877 119.595 988.094 119.602 988.31 119.62Z" fill="#5E6E6E"/>
<path d="M1030.31 95.0102C1030.36 98.3481 1029.41 101.625 1027.59 104.424C1025.77 107.222 1023.16 109.416 1020.09 110.724C1017.02 112.033 1013.63 112.398 1010.35 111.772C1007.07 111.146 1004.05 109.558 1001.68 107.21C999.307 104.863 997.686 101.862 997.025 98.5895C996.364 95.3174 996.692 91.9226 997.967 88.8376C999.243 85.7526 1001.41 83.1172 1004.19 81.2673C1006.97 79.4173 1010.23 78.4366 1013.57 78.4501C1015.76 78.429 1017.93 78.8415 1019.96 79.664C1021.99 80.4865 1023.83 81.7028 1025.39 83.2423C1026.95 84.7819 1028.18 86.6144 1029.03 88.6342C1029.87 90.654 1030.31 92.821 1030.31 95.0102Z" fill="#5E6E6E"/>
<path d="M855.55 27.7101V162.3C855.424 162.55 855.32 162.811 855.24 163.08C854.352 169.002 851.356 174.405 846.804 178.296C842.252 182.187 836.448 184.305 830.46 184.26C787.627 184.26 744.8 184.26 701.98 184.26C698.693 184.276 695.434 183.64 692.394 182.389C689.354 181.139 686.592 179.298 684.267 176.973C681.942 174.648 680.101 171.886 678.851 168.846C677.6 165.806 676.964 162.548 676.98 159.26C676.98 116.367 676.98 73.48 676.98 30.6C676.989 25.1277 678.802 19.8112 682.137 15.4728C685.472 11.1343 690.144 8.01585 695.43 6.59998C696.59 6.27998 697.77 6.0201 698.94 5.7301H833.58C833.906 5.86098 834.24 5.97103 834.58 6.05994C844.49 7.94994 851.09 13.7101 854.42 23.2001C854.89 24.6701 855.22 26.2101 855.55 27.7101ZM738.7 52.37C737.353 52.2867 736.014 52.6278 734.872 53.3453C733.729 54.0629 732.84 55.1207 732.33 56.37C731.98 57.1673 731.679 57.9855 731.43 58.8199C729.017 66.2133 726.617 73.6034 724.23 80.9901C719.23 96.4901 714.14 111.99 709.23 127.51C708.706 129.33 708.654 131.254 709.08 133.1C709.73 135.87 712.49 137.58 715.42 137.64C716.886 137.733 718.342 137.333 719.554 136.503C720.767 135.673 721.666 134.461 722.11 133.06C723.7 128.27 725.18 123.45 726.62 118.61C726.656 118.36 726.743 118.119 726.874 117.903C727.005 117.687 727.179 117.5 727.384 117.352C727.589 117.205 727.822 117.1 728.069 117.045C728.316 116.989 728.571 116.984 728.82 117.03C735.32 117.09 741.82 117.11 748.33 117.03C748.592 116.993 748.859 117.009 749.115 117.077C749.371 117.144 749.611 117.262 749.822 117.423C750.032 117.584 750.208 117.785 750.34 118.014C750.472 118.244 750.557 118.497 750.59 118.76C752.02 123.54 753.47 128.31 755.06 133.04C755.628 134.519 756.681 135.762 758.047 136.565C759.413 137.368 761.011 137.684 762.58 137.461C764.149 137.238 765.595 136.49 766.683 135.338C767.772 134.186 768.437 132.699 768.57 131.12C768.565 129.789 768.339 128.467 767.9 127.21C762.84 111.477 757.753 95.7533 752.64 80.0399C750.22 72.5899 747.83 65.1401 745.37 57.7101C744.16 54.0601 742.04 52.42 738.7 52.37ZM795.06 113.02H797.51C803.9 113.02 810.29 113.02 816.68 113.02C821.39 113.02 823.99 110.37 824.02 105.64C824.02 103.09 824.09 100.52 823.93 97.9801C823.21 85.9801 815.6 78.4101 803.57 77.7301C791.85 77.0801 782.08 85.6599 781.68 97.2799C781.44 104.47 781.42 111.69 781.68 118.88C781.94 125.57 784.68 131.11 790.68 134.68C799.68 140.11 813.13 138.06 820.06 130.13C821.285 128.745 822.296 127.184 823.06 125.5C823.751 124.066 823.871 122.423 823.396 120.904C822.921 119.385 821.885 118.104 820.5 117.32C819.104 116.517 817.458 116.265 815.886 116.613C814.313 116.961 812.928 117.884 812 119.2C811.441 119.941 810.84 120.648 810.2 121.32C807.2 124.32 803.6 124.99 799.61 123.95C798.57 123.748 797.619 123.227 796.888 122.46C796.157 121.693 795.683 120.718 795.53 119.67C795.22 117.56 795.22 115.42 795.06 113.02Z" fill="#5E6E6E"/>
<path d="M738.77 80.5699C741.1 88.0899 743.42 95.5701 745.77 103.27H731.37C733.73 95.6701 736.08 88.0999 738.42 80.5599L738.77 80.5699Z" fill="#5E6E6E"/>
<path d="M810.38 100.48H795.22C795.07 97.2301 795.34 94.1501 798.22 92.2301C799.505 91.3528 801.019 90.8695 802.575 90.8393C804.131 90.8091 805.661 91.2332 806.98 92.06C810.22 93.9 810.38 97.0801 810.38 100.48Z" fill="#5E6E6E"/>
<path d="M447.68 177.13V12.9C447.8 12.57 447.93 12.24 448.03 11.9C449.78 6.03002 453.97 2.82996 460.11 2.82996C513.29 2.82996 566.473 2.82996 619.66 2.82996C627.12 2.82996 632.09 7.83013 632.1 15.2601C632.1 68.4335 632.1 121.603 632.1 174.77C632.049 176.8 631.604 178.8 630.79 180.66C629.19 184.44 625.87 186.19 622.09 187.22H457.77C456.589 186.848 455.428 186.418 454.29 185.93C450.56 184.15 448.68 180.96 447.68 177.13ZM570.52 138.9H587.22V49.65H567.92V82.4901C565.92 81.0201 564.33 79.4301 562.4 78.4901C556.332 75.6083 549.384 75.1866 543.013 77.3136C536.641 79.4406 531.34 83.9511 528.22 89.9C523.43 98.57 522.75 107.9 524.67 117.49C526.27 125.43 530.07 132.06 536.99 136.61C546.56 142.91 559.89 141.32 567.2 133.03C567.98 132.16 568.63 131.18 569.61 129.89C569.92 133.15 570.22 135.98 570.52 138.9ZM492.4 54.13V138.9H511.46V54.15L492.4 54.13Z" fill="#5E6E6E"/>
<path d="M568.16 107.28C567.79 110.49 567.74 113.77 566.99 116.88C566.559 118.963 565.489 120.859 563.93 122.305C562.37 123.752 560.399 124.676 558.29 124.95C556.129 125.418 553.879 125.245 551.815 124.453C549.751 123.661 547.963 122.284 546.67 120.49C541.49 113.7 542.06 100.75 547.67 94.4C549.183 92.7274 551.155 91.5369 553.34 90.9764C555.525 90.4159 557.826 90.5101 559.958 91.2476C562.089 91.9852 563.957 93.3334 565.328 95.1243C566.7 96.9152 567.514 99.0697 567.67 101.32C567.77 103.32 567.85 105.27 567.94 107.25L568.16 107.28Z" fill="#5E6E6E"/>
<path d="M174.22 16.7201V173.3C173.85 174.24 173.54 175.2 173.11 176.1C171.48 179.53 168.55 181.24 165.03 182.15H9.22003C1.98003 179.63 0.0300293 176.86 0.0300293 169.06V19.5299C0.0300293 12.2999 4.47003 7.89997 11.72 7.87997H162.22C164.723 7.75475 167.208 8.36297 169.37 9.62997C172 11.29 173.33 13.9001 174.22 16.7201ZM28.69 43.0201V137.8H50.08V103.7C50.6 103.7 50.88 103.7 51.15 103.7C59.01 104.33 66.79 104.03 74.39 101.77C81.51 99.6601 87.72 96.09 92.1 89.88C95.7511 84.5498 97.6397 78.2094 97.5 71.7501C97.5 62.0001 94.08 53.8201 85.95 48.0001C79.95 43.7301 73.1 42 65.95 41.66C58.27 41.3 50.55 41.46 42.85 41.66C38.22 41.9 33.45 42.5601 28.72 43.0201H28.69ZM98.59 134.52C99.59 134.99 100.5 135.46 101.43 135.83C109.28 138.98 117.43 139.74 125.82 139.14C131.156 138.839 136.355 137.339 141.03 134.75C154.22 127.31 154.72 107.95 142.51 100.4C138.79 98.09 134.6 96.54 130.62 94.67C128.31 93.59 125.92 92.6701 123.69 91.4801C122.835 91.0699 122.13 90.4009 121.676 89.5682C121.222 88.7355 121.042 87.781 121.16 86.8399C121.257 85.844 121.643 84.8981 122.27 84.1183C122.897 83.3384 123.738 82.7587 124.69 82.45C125.149 82.2203 125.648 82.0809 126.16 82.0399C129.02 82.0399 131.96 81.8299 134.74 82.3499C138.063 83.135 141.339 84.1101 144.55 85.2701C145.77 80.5301 147.02 75.6201 148.26 70.7601C140.15 66.7601 127.15 65.5901 118.49 68.0001C112.49 69.6801 107.32 72.6801 103.76 78.0001C99.52 84.2901 98.56 93.9199 104.42 100.81C107.708 104.457 111.823 107.263 116.42 108.99C120.07 110.52 123.79 111.89 127.42 113.56C128.508 114.028 129.396 114.863 129.932 115.92C130.467 116.976 130.615 118.186 130.35 119.34C129.97 121.78 128.35 123.02 126.07 123.65C122.428 124.614 118.591 124.556 114.98 123.48C110.8 122.35 106.7 120.88 102.41 119.48L98.59 134.52Z" fill="#5E6E6E"/>
<path d="M50.1201 86.79V84.79C50.1201 76.69 50.1201 68.5802 50.1201 60.4802C50.1201 58.9602 50.4201 58.2801 52.0601 58.0901C56.5901 57.5701 61.0601 57.3101 65.5701 58.3701C72.2701 59.9401 76.1501 65.0201 76.0501 72.1101C75.9501 79.4301 71.4001 84.9203 64.2501 86.5203C59.595 87.462 54.8078 87.5533 50.1201 86.79Z" fill="#5E6E6E"/>
<path d="M402.84 14.7601V175.27C402.704 175.519 402.584 175.776 402.48 176.04C400.79 181.41 396.97 184.33 391.38 184.33C339.46 184.33 287.54 184.33 235.62 184.33C228.86 184.33 224.2 179.67 224.19 172.91C224.19 120.99 224.21 69.07 224.25 17.15C224.348 15.0192 224.897 12.9332 225.86 11.0299C227.29 8.02991 230.21 6.68006 233.25 5.69006H393.76C394.76 6.07006 395.71 6.38996 396.64 6.82996C400.06 8.39996 401.74 11.3601 402.84 14.7601ZM309.93 119.11C312.11 126.37 314.3 133.53 316.39 140.72C316.429 140.982 316.52 141.234 316.657 141.461C316.794 141.688 316.975 141.885 317.189 142.041C317.403 142.197 317.645 142.31 317.903 142.371C318.161 142.433 318.428 142.443 318.69 142.4C324.85 142.32 331.01 142.4 337.18 142.4C337.73 142.4 338.29 142.34 338.95 142.3C338.86 141.93 338.83 141.71 338.76 141.5C329.58 111.887 320.41 82.2767 311.25 52.67C310.9 51.55 310.25 51.4501 309.34 51.4501C301.61 51.4501 293.87 51.5301 286.14 51.4501C284.36 51.4501 283.68 51.97 283.14 53.64C274.473 82.1933 265.763 110.73 257.01 139.25C256.71 140.25 256.45 141.25 256.11 142.44H272.71C277.37 142.44 277.36 142.44 278.59 138.02C280.32 131.75 282.07 125.5 283.82 119.19L309.93 119.11ZM349.84 142.36H351.73C357.25 142.36 362.73 142.3 368.29 142.36C369.94 142.36 370.29 141.87 370.29 140.31C370.243 119.683 370.243 99.0567 370.29 78.4301V76.4901H349.84V142.36ZM359.84 68.2601C366.19 68.2601 370.79 64.1101 370.89 58.2101C370.99 52.3101 366.46 47.7701 360.1 47.6801C353.74 47.5901 349.22 51.8999 349.22 58.0299C349.22 64.1599 353.61 68.2301 359.83 68.2601H359.84Z" fill="#5E6E6E"/>
<path d="M306.79 103.6H287.02C290.227 91.36 293.41 79.2234 296.57 67.1901C299.943 79.1834 303.35 91.32 306.79 103.6Z" fill="#5E6E6E"/>
<path d="M1537.58 94.7702C1537.58 112.64 1538.13 130.53 1537.44 148.37C1536.59 170.37 1521.07 185.69 1499.06 186.75C1484.06 187.46 1469.06 187.32 1454.06 187.38C1435.97 187.46 1417.89 187.437 1399.8 187.31C1390.03 187.25 1380.45 186.12 1371.96 180.66C1359.77 172.82 1353.96 161.24 1353.6 147.12C1353.08 126.49 1353.08 105.85 1353.06 85.2101C1353.06 71.2701 1353.15 57.3301 1353.62 43.4101C1354.42 19.3301 1370.21 3.28011 1394.39 2.96011C1428.84 2.50011 1463.3 2.50011 1497.75 2.96011C1520.59 3.31011 1536.49 19.0199 1537.41 41.7799C1538.14 59.4299 1537.57 77.1102 1537.58 94.7702ZM1445.86 11.6501V11.1901C1430.97 11.1901 1416.07 11.1901 1401.18 11.1901C1398.31 11.1901 1395.44 11.49 1392.57 11.63C1375.48 12.45 1362.82 25.0799 1362.48 42.2799C1362.06 63.7599 1361.97 85.2802 1361.94 106.75C1361.94 120.36 1362.05 133.98 1362.52 147.59C1363.1 164 1375 176.59 1390.7 177.79C1395.89 178.19 1401.11 178.39 1406.31 178.4C1432.49 178.46 1458.67 178.46 1484.84 178.4C1489.94 178.4 1495.05 178.18 1500.14 177.82C1514.55 176.82 1526.42 166.42 1528.09 152.12C1529.3 141.71 1529.17 131.12 1529.17 120.59C1529.17 94.1 1529.17 67.59 1528.62 41.13C1528.27 24.62 1515.36 12.0501 1498.83 11.7101C1481.22 11.3701 1463.51 11.6501 1445.86 11.6501Z" fill="#5E6E6E"/>
<path d="M1503.22 84.6902C1502.85 100.33 1496.49 111.12 1484.22 117.95C1476.08 122.47 1467.37 125.95 1458.91 129.95C1458.23 130.27 1457.52 130.5 1456.85 130.82C1453.34 132.5 1453.28 132.71 1455.34 135.92C1456.15 137.17 1456.89 138.47 1457.76 139.66C1459.82 142.46 1460.76 145.48 1458.64 148.52C1457.65 150.06 1456.23 151.276 1454.56 152.02C1452.89 152.765 1451.04 153.005 1449.23 152.71C1446.74 152.308 1444.48 151.044 1442.83 149.14C1438.5 143.38 1434.61 137.29 1430.83 131.14C1426.66 124.48 1426.77 124.4 1434.03 121.14C1445.97 115.79 1457.92 110.48 1469.84 105.14C1478.5 101.25 1483.32 94.55 1483.62 85.04C1483.95 74.86 1476.4 65.0902 1466.1 61.1802C1456.04 57.3502 1446.75 59.44 1437.48 63.8C1430.08 67.27 1422.48 70.3902 1415.03 73.7002C1413.49 74.3902 1412.03 75.21 1410.52 76.04C1407.63 77.66 1406.2 80.1402 1406.71 83.4502C1406.87 84.9568 1407.53 86.3663 1408.59 87.4538C1409.64 88.5414 1411.03 89.2442 1412.53 89.4502C1415.74 89.9066 1419.01 89.5911 1422.07 88.53C1429.89 85.53 1437.43 81.74 1445.17 78.53C1447.43 77.6127 1449.84 77.1048 1452.28 77.03C1456.92 76.88 1461.6 81.3302 1462.03 85.9402C1462.31 88.9402 1460.47 90.87 1458.19 92.05C1453.77 94.34 1449.19 96.29 1444.61 98.3C1438.19 101.13 1431.89 104.3 1425.28 106.57C1411.84 111.17 1392.72 101.68 1388.49 88.7202C1384.43 76.2902 1392.09 63.7201 1401.4 60.1201C1412.98 55.6101 1424.13 50 1435.64 45.3C1461.04 34.91 1493.49 49.7202 1501.37 75.1702C1502.18 78.3029 1502.8 81.4822 1503.22 84.6902Z" fill="#5E6E6E"/>
</g>
<defs>
<clipPath id="clip0_105_5">
<rect width="1740.44" height="190.03" fill="white"/>
</clipPath>
</defs>
</svg>
