<svg width="57" height="57" viewBox="0 0 57 57" fill="none" xmlns="http://www.w3.org/2000/svg">
<path d="M14.1575 25.1038V20.4225C14.1575 20.1454 14.1575 20.0346 14.5192 20.0346C17.6196 20.0346 20.1396 19.8508 21.3908 20.5888C22.645 21.3238 22.6975 22.3387 22.7179 22.6421C22.7383 22.9454 22.7296 23.38 22.1463 24.4387C21.5629 25.4975 18.9525 25.5179 17.0683 25.5179H14.5746C14.2683 25.5179 14.1575 25.4071 14.1575 25.1038ZM22.75 30.0096C23.0389 30.3783 23.2451 30.8049 23.3546 31.2603C23.4641 31.7158 23.4744 32.1894 23.3848 32.6492C23.2952 33.109 23.1077 33.5441 22.8351 33.925C22.5625 34.306 22.2112 34.6238 21.805 34.8571C21.2083 35.1081 20.5682 35.2399 19.9208 35.245H14.5454C14.2683 35.245 14.1575 35.245 14.1575 34.8862V29.3446C14.1575 29.0675 14.1575 28.9567 14.5192 28.9567H18.0921C20.3088 28.9567 21.6942 28.7642 22.75 30.0096Z" fill="#5E6E6E"/>
<path d="M42.2596 27.4429C42.111 27.0925 41.8854 26.78 41.5997 26.5286C41.3139 26.2771 40.9752 26.0932 40.6088 25.9904C39.8762 25.7903 39.1095 25.7479 38.3593 25.866C37.6092 25.9842 36.8927 26.2602 36.2571 26.6758C35.6237 27.3158 35.2144 28.1436 35.0904 29.0354C35.0904 29.3475 35.0904 29.4058 35.4608 29.4058H42.3733C42.7146 29.4058 42.7146 29.4058 42.6854 28.9771C42.6527 28.4411 42.5095 27.9182 42.2596 27.4429ZM42.2596 27.4429C42.111 27.0925 41.8825 26.78 41.5968 26.5286C41.311 26.2771 40.9752 26.0932 40.6088 25.9904C39.8762 25.7903 39.1095 25.7479 38.3593 25.866C37.6092 25.9842 36.8927 26.2602 36.2571 26.6758C35.6237 27.3158 35.2115 28.1436 35.0875 29.0354C35.0875 29.3475 35.0875 29.4058 35.4579 29.4058H42.3733C42.7146 29.4058 42.7146 29.4058 42.6854 28.9771C42.6527 28.4411 42.5037 27.9182 42.2537 27.4429M45.5 0H11.375C8.35816 0 5.46489 1.19843 3.33166 3.33166C1.19843 5.46489 0 8.35816 0 11.375V45.5C0 48.5168 1.19843 51.4101 3.33166 53.5433C5.46489 55.6766 8.35816 56.875 11.375 56.875H45.5C48.5168 56.875 51.4101 55.6766 53.5433 53.5433C55.6766 51.4101 56.875 48.5168 56.875 45.5V11.375C56.875 8.35816 55.6766 5.46489 53.5433 3.33166C51.4101 1.19843 48.5168 0 45.5 0ZM34.3525 18.1125C34.3525 17.8879 34.3525 17.8004 34.6092 17.8004H43.8229V20.1921C43.8229 20.1921 43.8317 20.3612 43.68 20.3612H34.7521C34.3525 20.3612 34.3525 20.3613 34.3525 19.9646V18.1125ZM25.8212 39.0163C22.3212 40.9208 16.4383 40.1538 9.47042 40.1538V16.5783H20.5888C23.4325 16.5783 26.8158 17.29 27.7258 20.3029C28.1984 21.6189 28.1696 23.0627 27.645 24.3588C27.1205 25.6549 26.1369 26.7123 24.8821 27.3292C26.0387 27.7572 27.0485 28.5076 27.7919 29.4916C28.5354 30.4756 28.9813 31.652 29.0771 32.8815C29.1728 34.111 28.9143 35.3423 28.3321 36.4295C27.75 37.5167 26.8685 38.4144 25.7921 39.0163H25.8212ZM47.0079 32.305H35.6329C35.3208 32.305 35.035 32.4742 35.0904 32.8737C35.4317 34.5508 36.1988 36.3154 37.9371 36.5721C38.855 36.8453 39.8379 36.8033 40.7291 36.4528C41.6204 36.1023 42.3686 35.4636 42.8546 34.6383C42.8546 34.6383 42.9975 34.4663 43.0821 34.4663H46.7804C46.7804 34.4663 47.0079 34.4663 46.9496 34.6646C46.5596 35.769 45.9824 36.798 45.2433 37.7067C44.2549 38.6508 43.0622 39.3545 41.7577 39.7631C40.4533 40.1716 39.0723 40.2741 37.7218 40.0625C36.3714 39.851 35.0879 39.331 33.9709 38.5431C32.8539 37.7551 31.9336 36.7204 31.2813 35.5192C30.8801 34.7181 30.6299 33.85 30.5433 32.9583C30.0361 30.7171 30.4238 28.3665 31.6239 26.4069C32.8241 24.4473 34.7418 23.0337 36.9688 22.4671C43.4233 21.0729 47.5183 25.5092 47.5183 31.7654C47.5279 31.8385 47.5205 31.9129 47.4968 31.9827C47.4731 32.0525 47.4336 32.116 47.3814 32.1681C47.3293 32.2203 47.2659 32.2597 47.196 32.2835C47.1262 32.3072 47.0519 32.3146 46.9788 32.305H47.0079ZM40.6379 25.9904C39.906 25.7874 39.1388 25.7456 38.3892 25.8679C37.6396 25.9846 36.9688 26.1275 36.2863 26.6758C35.6038 27.2213 35.2421 28.1429 35.1196 29.0354C35.1196 29.3475 35.1196 29.4058 35.49 29.4058H42.3733C42.7146 29.4058 42.7146 29.4058 42.6854 28.9771C42.6527 28.4411 42.5095 27.9182 42.2596 27.4429C42.111 27.0925 41.8854 26.78 41.5997 26.5286C41.3139 26.2771 40.9752 26.0932 40.6088 25.9904H40.6379Z" fill="#5E6E6E"/>
</svg>
