<svg width="555" height="346" viewBox="0 0 555 346" fill="none" xmlns="http://www.w3.org/2000/svg">
<path d="M19.4634 179.041L127.219 150.057V74.1211L163.514 21.7659L225.943 6.79248L286.282 38.8759C286.282 38.8759 326.173 87.1471 311.37 121.785C311.37 121.785 346.913 74.1631 403.09 105.178C459.268 136.194 447.644 179.209 447.644 179.209C447.644 179.209 434.2 202.873 462.132 189.114C490.064 175.355 499.765 173.24 511.118 177.91C522.471 182.58 576.14 203.627 543.838 271.5C511.536 339.374 447.142 278.788 447.142 278.788C452.663 285.213 457.564 292.148 461.777 299.5C467.819 310.495 407.418 352.525 320.758 342.745C234.097 332.965 250.509 313.238 250.509 313.238C250.509 313.238 267.11 342.913 164.622 342.745L136.899 330.411C136.899 330.411 26.9064 370.954 9.8252 233.784L19.4634 179.041Z" fill="#FAEEE5"/>
<path d="M167.779 186.392C194.081 205.701 210.158 200.025 233.93 183.669C237.547 181.156 239.972 176.905 244.383 171.879C232.048 178.162 222.222 183.732 211.936 188.256C200.207 193.449 188.937 190.957 178.358 184.067C137.945 158.162 124.146 101.555 148.168 60.132C167.32 27.1691 211.099 13.9128 247.729 31.3576C282.707 48.0065 303.049 75.5456 303.593 115.398C303.593 122.163 302.589 130.058 299.035 135.523C282.309 161.178 284.588 185.952 300.415 211.397C290.714 214.308 281.055 217.051 271.5 220.067C248.251 227.397 231.609 244.464 213.692 259.668C197.572 273.323 180.909 286.139 159.981 292.275C163.159 290.097 166.33 287.912 169.494 285.72C206.123 260.171 239.763 231.124 268.531 196.947C276.685 187.251 281.431 174.706 287.766 163.439L284.693 161.617C283.392 162.751 282.24 164.046 281.264 165.471C264.35 198.978 236.188 222.538 208.507 246.077C183.92 267.019 158.831 287.835 131.61 304.987C86.3248 333.531 38.1752 318.348 28.4952 259.145C25.3173 239.773 22.6831 219.355 33.5758 200.821C55.6329 163.293 109.615 158.497 137.945 192.256C146.364 202.367 152.977 213.859 157.493 226.224C165.856 249.26 157.723 269.427 137.547 282.642C120.571 293.783 91.8233 292.401 76.6865 278.453C68.3236 270.621 56.5736 263.04 62.2395 248.087C68.8044 230.789 76.6656 214.58 97.9074 211.794C110.598 210.14 122.787 224.758 119.295 237.156C116.327 247.752 110.933 249.469 95.8794 245.532C98.8274 248.695 101.273 253.595 104.807 254.579C109.553 255.794 114.585 255.086 118.815 252.611C129.603 245.134 131.359 231.334 124.439 217.889C117.978 205.324 105.873 199.167 93.6213 202.329C76.0174 206.894 51.8068 235.25 52.894 253.051C54.1903 273.323 67.9682 286.348 85.3212 294.223C107.566 304.338 128.871 301.615 148.043 285.217C172.295 264.443 198.827 245.909 220.758 222.936C254.001 188.109 273.695 146.183 270.434 96.2361C268.97 73.7024 263.472 52.6136 240.327 42.729C215.532 32.1323 192.931 38.2268 172.421 54.6664C159.16 65.3996 149.511 79.9547 144.781 96.3619C136.126 124.424 155.444 158.623 183.962 165.471C203.594 170.246 220.696 165.115 233.825 150.057C250.133 131.398 250.677 109.974 241.059 88.0899C236.292 77.2209 227.762 70.3936 215.281 70.603C201.356 70.8124 188.958 75.0218 181.704 87.8593C175.724 98.4769 178.066 109.074 184.505 118.854C186.65 122.328 189.797 125.069 193.53 126.714C197.263 128.359 201.406 128.831 205.412 128.068C216.869 126.497 222.64 116.697 217.852 107.524C214.779 101.639 210.744 99.4612 204.095 103.587C204.494 104.909 204.997 106.198 205.601 107.44C207.273 110.226 209.092 112.906 210.848 115.629C207.148 116.592 202.485 119.419 199.914 118.121C195.21 115.754 189.126 111.399 188.352 107.043C187.286 101.011 188.498 92.2783 192.387 88.0689C207.336 71.9016 231.379 78.4984 237.359 99.608C242.585 118.1 239.721 134.874 225.003 148.089C211.183 160.528 194.875 161.764 178.63 154.371C160.483 145.995 148.168 130.351 149.695 110.979C153.228 65.5979 196.945 34.6874 236.083 49.2212C251.346 54.8756 258.496 67.0013 261.507 82.4356C268.782 119.671 258.475 153.304 240.223 185.052C223.267 214.517 201.315 237.072 165.814 263.438C174.177 235.376 163.953 212.925 148.628 192.025C115.658 147.083 49.1517 151.523 24.7739 201.47C18.7317 213.868 19.2543 230.056 18.9407 244.527C18.4532 261.962 23.0916 279.155 32.2795 293.971C51.556 325.154 77.3554 335.73 113.441 324.086C134.202 317.385 154.022 307.332 173.55 297.322C189.836 288.945 205.935 280.736 224.668 283.459C230.752 284.338 238.446 287.919 241.394 292.736C244.342 297.553 242 305.175 242 314.076C211.371 289.951 165.626 297.971 155.319 325.573C167.382 319.751 179.655 313.008 192.575 307.856C207.043 302.118 219.295 307.856 233.156 319.521C205.161 317.28 180.888 318.432 160.587 335.395C182.289 333.007 203.28 323.374 225.567 330.18L226.131 333.363C211.204 335.855 195.962 337.175 181.453 341.175C166.943 345.175 156.364 340.442 146.203 331.227C144.259 329.489 139.45 329.133 136.795 330.264C99.8099 345.238 65.5428 339.562 35.8127 314.139C5.01635 287.794 -6.54519 252.841 3.57392 213.617C13.4212 175.355 39.4925 150.79 78.2127 141.848C91.8233 138.707 106.437 139.942 121.01 139.167C109.176 108.236 111.016 76.6764 129.77 47.2109C144.614 23.9023 166.19 9.13801 193.035 2.5622C239.031 -8.72559 307.063 16.1745 317.433 99.3984C351.826 81.9746 385.633 81.5769 416.596 105.912C440.974 125.074 454.627 150.267 451.261 182.559L447.602 179.104L422.513 213.805L418.729 210.517C421.405 204.674 423.997 198.789 426.799 192.988C449.316 146.329 420.318 115.838 383.939 106.058C357.847 99.0422 332.842 102.582 311.287 121.681C312.959 67.6714 275.556 29.8914 236.648 18.0801C192.45 4.67716 138.614 38.0171 131.212 83.6918C126.529 112.592 130.836 139.272 146.998 163.879C147.851 165.477 148.551 167.153 149.088 168.884C139.785 163.125 130.753 156.822 121.093 151.712C114.149 147.869 106.389 145.741 98.4586 145.504C90.5282 145.267 82.6558 146.929 75.4949 150.351C93.1246 148.246 110.924 152.533 125.672 162.434C148.328 176.944 167.108 196.77 180.386 220.192C181.85 222.789 180.951 227.669 179.55 230.663C177.271 235.647 173.654 240.025 169.243 246.768C184.359 240.36 199.14 213.91 196.422 200.863C193.098 206.999 190.15 212.527 187.139 218.056L167.779 186.392Z" fill="#5E6E6E"/>
<path d="M212.103 275.375C234.483 246.655 265.777 226.221 301.042 217.303C303.133 216.758 306.436 218.559 308.443 220.171C329.476 237.218 352.014 235.857 374.615 224.8C396.338 214.161 406.122 196.214 404.115 171.67C402.024 145.597 393.808 134.1 372.294 129.032C349.045 123.545 328.389 132.487 316.974 152.989C308.402 168.403 314.507 188.968 331.023 200.214C347.54 211.46 367.13 209.428 378.65 195.208C386.783 185.177 387.013 172.403 379.194 160.34C373.172 150.979 362.468 146.037 352.85 150.414C347.477 152.864 340.745 158.79 340.306 163.691C339.721 169.471 344.697 176.256 348.376 181.806C349.589 183.628 355.088 184.381 357.366 183.188C357.941 182.827 358.43 182.346 358.799 181.776C359.168 181.206 359.408 180.561 359.502 179.888C359.595 179.216 359.541 178.531 359.342 177.882C359.142 177.232 358.804 176.635 358.349 176.131C354.795 172.947 348.335 169.848 348.272 166.581C348.126 159 355.108 158.434 361.255 159C370.308 159.858 374.887 165.639 376.35 174.057C378.002 183.523 374.552 190.811 365.897 194.999C354.648 200.298 343.902 198.978 333.804 191.523C323.706 184.067 318.667 174.602 321.761 162.853C324.981 150.686 332.696 140.194 345.658 137.848C355.422 136.068 366.043 137.01 375.974 138.644C386.637 140.403 393.515 148.005 395.355 158.79C398.575 177.638 400.456 196.612 382.811 210.329C364.287 224.632 344.007 228.946 321.991 219.187C297.467 208.318 284.233 165.722 305.705 138.204C338.195 96.5713 393.055 106.665 418.604 135.398C423.19 140.214 426.473 146.124 428.141 152.567C429.809 159.009 429.808 165.772 428.137 172.214C418.834 212.339 390.714 236.569 349.798 239.229C324.877 240.883 299.892 241.805 275.013 243.983C257.054 245.553 241.185 251.794 229.31 267.019C225.546 271.438 217.873 272.631 212.103 275.375Z" fill="#5E6E6E"/>
<path d="M549.65 263.584C542.395 281.909 527.927 292.652 509.362 296.107C452.139 306.704 425.21 265.657 434.807 216.527C439.992 190.014 482.245 161.387 522.345 182.475C543.023 193.365 554.145 208.758 551.323 233.072C548.668 255.961 537.754 272.359 516.261 281.113C497.905 288.568 469.931 279.479 456.968 262.16C445.741 247.145 446.389 217.763 458.432 202.894C460.117 200.479 462.363 198.51 464.976 197.156C481.994 190.37 499.305 188.779 516.157 197.281C529.077 203.753 533.97 215.376 533.301 229.323C532.694 241.888 523.767 247.877 513.313 251.626C501.668 255.815 489.27 261.72 478.294 251.186C476.45 249.159 475.025 246.788 474.099 244.207C473.174 241.627 472.766 238.889 472.9 236.15C473.736 226.915 481.263 222.056 489.876 221.742C495.438 221.553 501.187 224.799 506.602 226.977C507.133 227.625 507.496 228.394 507.66 229.216C507.824 230.037 507.784 230.887 507.543 231.689C505.975 233.448 503.361 235.459 501.271 235.417C498.239 235.417 495.249 233.553 489.333 231.48C491.423 236.841 491.904 241.532 494.267 242.893C497.654 244.862 503.884 246.37 506.288 244.59C510.47 241.449 514.651 235.836 515.195 230.894C515.592 226.705 511.892 220.422 508.086 217.637C497.361 210.056 480.907 212.129 471.457 220.883C462.55 229.093 460.272 239.606 465.185 249.867C471.311 262.684 483.144 269.008 498.072 266.118C505.883 264.349 513.502 261.817 520.819 258.558C536.207 252.275 543.817 240.631 542.165 223.815C540.576 207.417 532.214 194.266 517.077 189.135C504.491 185.1 491.226 183.626 478.064 184.8C456.696 186.538 444.382 199.774 442.521 221.491C439.302 259.438 452.39 283.353 490.608 290.913C511.808 295.102 529.621 287.668 543.733 271.417C545.887 268.967 547.685 266.202 549.65 263.584Z" fill="#5E6E6E"/>
<path d="M449.17 315.165C436.96 318.474 424.917 322.808 412.498 324.882C376.036 330.955 339.323 331.667 302.965 324.882C287.097 321.866 272.127 313.72 256.97 307.249C254.398 306.139 253.269 301.657 250.279 296.777C317.517 314.432 382.538 318.055 449.17 315.165Z" fill="#5E6E6E"/>
<path d="M442.96 284.464C406.017 284.464 370.266 276.317 334.368 268.84C303.279 262.39 272.169 253.281 240.035 264.254C264.245 250.16 289.899 249.93 315.949 255.647C338.947 260.715 361.589 266.977 384.608 271.752C394.916 273.846 405.704 273.971 416.304 274.265C419.858 274.369 423.475 272.171 426.109 271.333L313.754 250.16C326.925 245.637 359.06 247.585 377.04 252.506C386.182 255.188 395.522 257.142 404.972 258.349C411.725 259.103 418.729 257.574 425.231 257.092L442.919 284.485L442.96 284.464Z" fill="#5E6E6E"/>
<path d="M239.303 273.511C262.51 278.663 285.633 284.317 308.966 288.84C347.143 296.233 385.173 305.301 424.52 303.312C431.796 302.935 438.988 301.217 446.264 300.526C451.365 299.961 456.508 299.772 461.631 299.437C461.777 300.819 461.902 302.222 462.049 303.626C449.734 304.819 437.441 306.515 425.085 307.081C372.59 309.497 320.004 305.048 268.657 293.846C257.597 291.458 247.75 283.71 237.296 278.432C237.944 276.799 238.634 275.166 239.303 273.511Z" fill="#5E6E6E"/>
<path d="M442.919 284.485C444.048 287.27 445.156 290.076 447.1 294.809C377.897 302.202 312.771 281.071 246.391 266.621C260.398 266.621 274.72 264.736 288.372 266.998C322.075 272.589 355.401 280.38 388.999 286.641C400.214 288.667 411.599 289.6 422.994 289.427C429.643 289.427 436.249 286.223 442.898 284.485H442.919Z" fill="#5E6E6E"/>
<path d="M249.443 322.557L241.206 330.159L238.279 328.505C237.965 319.688 249.694 316.903 250.823 307.563C297.216 345.636 350.99 335.793 403.153 335.625C350.718 348.819 299.286 351.185 249.443 322.557Z" fill="#5E6E6E"/>
<path d="M167.779 186.392L187.077 218.182C190.046 212.653 193.035 207.125 196.36 200.989C199.161 214.035 184.38 240.485 169.18 246.893C173.592 240.15 177.209 235.773 179.487 230.789C180.888 227.711 181.787 222.831 180.324 220.318C167.045 196.895 148.265 177.07 125.609 162.56C110.861 152.658 93.0619 148.372 75.4321 150.477C82.5931 147.055 90.4655 145.393 98.3959 145.63C106.326 145.867 114.086 147.995 121.031 151.838C130.69 156.947 139.722 163.251 149.026 169.01L167.779 186.392Z" fill="#FAEEE5"/>
<path d="M374.886 242.873C391.048 242.705 408.108 247.061 421.551 232.402C418.06 233.009 414.568 233.658 411.098 234.224C407.627 234.789 403.864 235.291 399.076 236.004L426.778 216.109C426.046 227.333 425.377 237.825 424.52 251.187L374.489 246.537L374.886 242.873Z" fill="#5E6E6E"/>
</svg>
