<svg width="701" height="337" viewBox="0 0 701 337" fill="none" xmlns="http://www.w3.org/2000/svg">
<path d="M124.458 318.861C124.458 318.861 241.116 339.312 282.691 336.783C324.266 334.255 383.978 325.294 383.978 325.294C383.978 325.294 499.802 324.383 511.336 319.865C522.87 315.347 560.144 314.827 560.144 314.827L597.231 296.7C597.231 296.7 632.297 241.129 618.983 209.542C605.668 177.955 593.671 140.921 530.066 139.024C466.46 137.128 454.147 246.001 454.147 246.001L334.837 159.048L42.2714 191.081C42.2714 191.081 1.95723 221.423 5.18384 253.921C8.41046 286.419 20.7237 302.259 47.0558 314.827C73.388 327.395 117.652 307.037 117.652 307.037" fill="#FAEEE5"/>
<path d="M85.1278 245.348C82.2861 237.229 77.6987 234.851 70.9566 236.56C62.2643 238.79 55.2807 249.138 56.5065 257.48C58.1224 268.517 70.5295 277.546 81.6734 275.799C92.8174 274.053 105.429 262.032 107.806 250.588C109.942 240.276 102.661 226.267 92.0561 220.192C71.1611 208.245 45.437 216.941 33.4386 239.997C24.8206 256.514 35.5374 284.588 55.7266 292.02C68.1521 296.664 82.3047 297.017 95.7889 298.132C99.7821 298.466 104.909 295.81 108.103 292.949C124.819 277.899 134.663 259.505 129.76 236.43C125.228 215.082 110.815 201.482 90.2541 195.555C64.9387 188.309 42.8179 196.094 25.2475 214.804C9.5345 231.525 4.64968 252.445 13.1377 273.997C28.8507 313.943 58.5682 331.036 102.94 312.772C146.494 294.843 189.269 292.131 234.532 300.25C282.079 308.797 329.906 315.708 377.546 323.344C379.908 323.649 382.193 324.386 384.288 325.518C353.24 332.67 321.415 335.885 289.564 335.086L305.519 332.225L304.832 333.359C268.372 326.038 232.061 317.733 195.361 311.862C180.168 309.428 164.139 311.992 148.5 312.791C144.934 312.977 141.48 315.188 138.471 314.89C161.762 316.042 185.331 315.355 208.269 318.829C231.207 322.304 253.792 329.977 276.637 337C258.157 335.699 239.602 335.012 221.214 332.949C194.692 329.977 167.909 327.691 141.962 321.802C125.246 318.086 111.335 317.176 94.3406 323.53C63.7503 334.975 30.1884 321.468 13.5281 295.995C-5.34237 267.16 -4.56262 232.677 16.4438 206.443C21.1243 200.609 21.8858 195.5 20.6228 188.663C7.00855 114.104 53.5164 35.1603 124.987 9.91096C166.089 -4.59948 206.17 -3.09476 246.122 13.8867C311.258 41.7557 340.845 93.1461 345.377 161.592C345.377 162.856 345.712 164.119 346.009 166.423C355.797 165.903 365.436 164.844 375.076 164.955C405.09 165.308 435.086 166.219 465.101 166.553C469.056 166.655 472.934 165.446 476.133 163.116C511.682 132.832 556.11 130.899 594.241 158.304C596.86 160.162 600.649 161.295 602.135 163.878C611.551 179.837 625.537 182.457 643.274 183.888C672.601 186.098 690.859 205.254 698.548 233.439C705.978 260.788 696.283 288.192 672.713 305.285C649.144 322.378 624.255 323.734 599.107 309.558C593.368 306.326 590.304 308.09 586.106 310.617C562.722 324.477 538.001 328.193 511.813 320.093C510.341 319.559 508.902 318.939 507.504 318.235C524.647 314.983 542.626 313.293 559.509 308.016C594.594 296.999 614.356 267.755 616.027 228.125C617.327 196.949 596.637 165.606 566.344 152.544C546.805 144.109 529.401 148.122 513.261 160.831C489.469 179.559 472.753 202.671 470.673 233.792C469.075 257.685 477.341 278.568 496.341 293.357C503.91 298.923 512.959 302.117 522.344 302.535C549.349 303.501 583.506 276.803 591.065 250.885C595.095 237.136 592.569 224.093 585.771 212.165C580.649 203.069 574.558 194.554 567.607 186.767C555.645 173.502 540.991 172.257 526.411 182.55C520.605 186.788 515.179 191.525 510.197 196.708C490.713 216.439 490.212 234.925 507.114 261.215C514.766 273.124 527.321 276.469 542.756 272.362C556.128 268.888 568.461 256.533 569.687 245.367C571.191 231.822 563.725 216.401 552.395 210.307C543.907 205.755 536.255 208.096 530.367 214.933C525.018 221.158 519.65 228.385 525.817 236.727C527.915 239.57 532.707 241.298 536.44 241.707C538.558 241.93 541.065 238.399 544 236.133L530.441 231.673C532.002 227.549 532.448 221.752 535.438 219.709C537.525 218.426 539.853 217.587 542.278 217.241C544.703 216.896 547.173 217.053 549.535 217.702C563.242 222.756 567.644 243.453 558.246 255.046C555.064 259.133 550.885 262.333 546.112 264.341C541.339 266.348 536.13 267.096 530.985 266.512C525.84 265.929 520.931 264.033 516.728 261.007C512.525 257.981 509.17 253.927 506.983 249.231C494.614 223.555 513.187 187.548 541.474 183.59C547.274 182.996 553.092 184.52 557.856 187.882C590.21 212.649 603.175 257.22 551.281 286.65C539.728 293.208 527.526 297.927 513.893 294.453C492.775 289.102 483.674 272.753 478.603 253.727C467.627 211.998 503.789 166.757 532.708 157.468C558.079 149.33 575.816 163.692 592.476 179.763C622.714 209.063 612.907 284.718 560.345 300.194C540.471 306.047 519.483 308.295 499.053 312.085C467.924 317.844 437.148 311.342 406.595 307.57C364.526 302.387 322.829 294.156 280.984 287.133C278.299 286.461 275.662 285.611 273.09 284.588C305.315 271.415 352.361 193.549 340.455 171.365C338.45 178.462 336.945 184.631 334.883 190.632C322.699 227.605 302.398 258.781 269.505 280.63C266.013 282.598 261.99 283.411 258.008 282.953C234.94 280.686 211.965 277.379 188.86 275.521C169.507 274.072 151.565 279.237 134.997 289.901C116.424 301.718 96.625 310.339 73.8542 311.063C66.5079 311.311 59.1848 310.107 52.3044 307.52C45.424 304.933 39.1213 301.013 33.7574 295.986C28.3935 290.958 24.0737 284.922 21.0454 278.222C18.0171 271.522 16.3399 264.291 16.1096 256.942C15.608 242.416 20.8884 228.285 30.7918 217.651C40.6953 207.016 54.4123 200.747 68.932 200.219C87.8953 199.271 103.553 205.533 115.625 220.21C133.957 242.505 121.829 272.938 106.339 285.349C92.0374 296.739 74.2253 291.926 58.6795 285.591C45.0838 280.017 37.1904 268.74 37.0975 253.43C37.0047 239.533 47.35 227.753 63.1001 222.848C74.5413 219.318 90.5698 224.409 97.6462 233.848C103.218 241.372 102.773 250.309 96.1607 259.208C90.4216 266.937 81.0606 270.356 72.9441 267.365C65.8862 264.764 60.6856 260.527 63.1001 251.981C65.3475 244.029 72.1637 241.409 80.9488 244.549C82.3171 244.932 83.715 245.199 85.1278 245.348ZM104.797 180.469C105.261 179.039 105.726 177.626 106.153 176.196C119.823 130.398 159.291 108.065 204.963 120.291C229.795 126.923 237.559 136.882 238.079 162.726C238.822 199.457 207.749 228.422 174.8 221.697C154.518 217.553 138.6 198.844 139.511 180.32C140.113 170.26 144.328 160.756 151.378 153.557C158.429 146.357 167.841 141.947 177.883 141.136C197.46 139.279 209.458 153.956 203.496 172.982C202.087 177.687 199.535 181.971 196.067 185.448C192.631 188.663 185.145 192.991 183.53 191.709C178.776 187.667 175.266 182.358 173.407 176.4C171.791 171.309 173.964 166.07 181.208 165.42C182.304 165.327 183.065 162.224 184.086 160.515C182.118 159.772 179.035 157.858 178.385 158.49C174.187 162.559 167.408 167.166 167.389 171.625C167.389 179.187 170.64 187.362 174.503 194.143C178.96 202.002 186.668 202.783 193.652 196.726C199.177 192.188 203.888 186.74 207.582 180.618C217.834 162.187 206.449 136.399 187.597 133.891C168.021 131.271 147.869 142.307 138.359 160.849C128.85 179.392 132.397 199.011 148.426 215.398C161.427 228.701 188.786 234.776 203.756 227.698C229.758 215.417 247.923 181.788 243.15 153.752C241.107 141.75 238.023 129.209 226.304 122.929C198.964 108.289 155.279 99.2218 128.144 133.538C117.223 147.528 105.596 161.147 104.797 180.432V180.469ZM62.7845 172.573L64.8831 172.703C65.7375 170.678 66.5178 168.634 67.4279 166.627C76.3059 147.1 83.1406 126.273 94.526 108.344C118.894 70.015 154.388 50.2838 200.691 56.8052C267.555 66.2063 311.592 136.9 273.592 202.876C259.42 227.475 239.305 246.258 217.259 263.426C215.234 264.986 214.621 268.368 213.339 270.857C216.163 270.281 219.784 270.634 221.66 269C234.401 257.852 247.552 246.909 259.086 234.516C279.665 212.425 292.982 186.21 293.948 155.666C295.267 114.141 275.133 83.5965 239.695 63.7538C201.211 42.2389 162.003 42.2576 124.838 67.061C89.7157 90.5267 73.4267 126.626 62.8584 165.884C62.5544 168.089 62.5299 170.324 62.7845 172.536V172.573ZM246.66 276.617C253.347 278.921 257.637 274.332 261.853 270.077C280.492 251.657 295.799 230.146 307.097 206.499C322.866 172.796 327.12 138.015 310.571 103.365C287.298 54.6315 245.713 30.9055 194.172 24.7186C145.287 18.829 103.85 34.9373 73.9285 75.3473C51.752 105.297 43.9138 140.171 42.075 176.716C42.075 177.589 43.1523 178.574 43.9324 179.726C47.0713 163.004 49.0029 146.636 53.219 130.936C66.6289 80.9767 95.3989 44.5984 147.813 32.559C191.386 22.5448 231.783 32.5591 267.351 59.1276C301.767 84.767 318.669 119.269 313.988 162.911C310.775 192.898 296.678 218.278 278.699 241.539C269.208 253.839 257.618 264.671 246.697 276.487L246.66 276.617ZM82.8991 173.911L86.2796 175.397C94.1732 160.534 101.38 145.261 110.091 130.807C124.819 106.505 143.764 86.2163 172.33 78.673C226.954 64.2927 276.637 124.582 265.79 178.258C258.974 211.979 236.593 233.141 205.706 245.236C186.761 252.668 166.869 257.611 147.404 263.667C149.744 265.897 153.125 267.383 155.855 266.584C174.558 261.122 193.875 256.867 211.575 249.101C269.152 223.889 289.081 166.72 259.401 115.33C229.313 63.3079 170.156 55.2444 128.831 99.0173C116.052 112.543 106.673 129.469 96.6436 145.466C91.1645 154.309 87.4868 164.268 82.9363 173.78L82.8991 173.911ZM489.023 306.307C489.023 305.341 488.893 304.449 488.837 303.427C484.528 302.479 479.551 302.61 476.022 300.38C465.101 293.32 453.734 286.39 444.447 277.528C425.001 259.134 406.818 239.421 387.928 220.452C377.807 209.83 365.015 202.129 350.893 198.157C363.895 208.821 377.825 219.281 390.659 230.93C415.844 253.783 433.879 284.365 465.788 300.362C452.36 298.634 439.247 296.293 426.227 293.58C392.071 286.483 358.025 278.921 323.795 272.232C316.068 270.709 307.803 272.01 299.78 272.01C327.008 278.197 353.735 283.659 380.481 289.047C410.792 295.159 441.085 301.458 471.49 307.124C477.099 308.035 483.191 306.511 489.06 306.177L489.023 306.307ZM639.077 188.718L637.61 191.468C668.144 203.6 682.185 226.23 679.919 258.595C676.892 300.733 648.01 309.335 612.145 309.279C615.1 311.877 618.625 313.743 622.435 314.723C644.723 318.588 676.038 301.458 682.538 279.924C690.525 253.505 688.389 219.077 660.25 198.677C654.01 194.069 646.246 191.84 639.114 188.588L639.077 188.718ZM351.451 210.047L418.426 275.28C398.906 270.096 380.927 263.222 362.706 256.7C345.322 250.476 315.604 257.964 308.398 269.185C311.06 268.549 313.669 267.704 316.199 266.659C333.862 257.703 352.119 257.573 370.414 263.704C380.555 267.104 390.232 271.954 400.131 276.209C405.202 278.382 410.086 281.206 415.361 282.693C417.962 283.417 421.23 281.782 424.184 281.206C423.181 278.642 422.754 275.632 421.063 273.607C413.244 264.41 405.573 255.028 396.918 246.63C382.375 232.342 368.482 217.126 351.488 209.917L351.451 210.047ZM149.875 305.935C151.947 306.368 154.054 306.617 156.171 306.678C178.7 302.591 201.081 304.616 223.332 308.536C253.829 313.924 284.178 320.26 314.768 325.016C326.302 326.874 338.338 325.295 350.058 325.295C340.418 322.434 330.667 322.619 321.213 321.003C285.218 314.853 249.446 307.514 213.395 301.903C192.221 298.198 170.473 299.535 149.912 305.805L149.875 305.935ZM622.658 185.783C636.848 231.674 634.062 271.545 597.863 303.761C613.483 300.844 620.355 288.155 626.001 275.577C638.483 247.652 641.659 204.474 622.695 185.653L622.658 185.783ZM475.929 287.003C446.1 250.959 450.465 214.729 467.812 175.657C465.608 177.997 463.561 180.48 461.683 183.089C445.951 209.694 446.527 237.916 454.885 266.324C457.578 275.168 463.819 282.73 476.003 286.873L475.929 287.003ZM352.899 191.951C385.458 203.879 411.517 223.294 433.805 248.116C436.331 250.94 440.417 252.334 443.779 254.396C422.884 223.053 372.773 187.529 352.974 191.821L352.899 191.951ZM619.612 296.423C633.932 299.971 642.42 289.771 651.428 281.745C667.011 267.904 667.253 250.327 661.086 232.194C658.244 223.833 653.657 215.993 642.401 215.045C657.613 227.642 664.374 243.806 658.523 261.883C652.673 279.961 637.517 289.938 619.686 296.292L619.612 296.423ZM449.388 186.266C439.952 172.833 368.557 164.677 353.141 176.679C369.671 176.679 385.514 175.453 401.06 177.013C417.144 178.462 432.895 182.847 449.462 186.136L449.388 186.266ZM354.069 182.402C378.518 186.464 401.802 195.761 422.326 209.657C429.421 214.321 437.928 216.829 445.803 220.303L447.047 217.052C417.497 201.594 390.789 178.723 354.144 182.271L354.069 182.402ZM325.541 243.23C347.606 231.377 364.396 253.021 386.833 254.043C375.429 236.318 361.127 226.936 344.411 220.6L377.546 245.478C359.586 243.044 343.501 226.769 325.615 243.1L325.541 243.23ZM629.79 281.634C648.53 277.1 655.421 247.113 640.544 235.482C651.707 253.133 640.414 266.25 629.864 281.503L629.79 281.634ZM435.513 200.2L437.129 196.93L402.453 180.097L401.227 182.606L435.513 200.2Z" fill="#5E6E6E"/>
<path d="M480 322.294C462.774 322.294 445.344 324.077 428.396 321.975C372.76 315.087 317.273 306.96 261.785 299.002C230.771 294.554 199.942 287.741 168.389 290.463C157.667 291.42 147.168 294.986 136 297.482C151.628 286.221 168.835 282.467 187.158 282.073C225.029 281.21 261.971 288.135 298.653 295.811C349.802 306.632 401.597 314.062 453.706 318.053C462.458 318.71 471.192 319.836 479.944 320.736C480 321.262 480 321.788 480 322.294Z" fill="#5E6E6E"/>
<path d="M105 180.125C105.797 160.969 117.4 147.442 128.466 133.509C155.547 99.4232 199.143 108.429 226.427 122.971C238.123 129.209 241.256 141.665 243.239 153.587C248.003 181.435 229.856 214.837 203.925 227.036C188.985 234.067 161.682 228.032 148.707 214.819C132.711 198.542 129.115 179.183 138.661 160.637C148.206 142.09 168.318 131.257 187.799 133.859C206.612 136.35 217.975 161.965 207.743 180.272C204.057 186.353 199.355 191.765 193.841 196.272C186.872 202.288 179.18 201.513 174.731 193.707C170.876 186.971 167.595 178.851 167.632 171.34C167.632 166.911 174.416 162.334 178.605 158.293C179.254 157.665 182.312 159.566 184.296 160.304C183.35 162.002 182.442 165.084 181.423 165.176C174.194 165.822 172.025 171.027 173.638 176.083C175.493 182.001 178.995 187.274 183.739 191.29C185.352 192.563 192.822 188.263 196.251 185.07C199.712 181.616 202.259 177.361 203.665 172.687C209.652 153.79 197.641 139.211 178.105 141.056C168.083 141.861 158.69 146.242 151.654 153.393C144.618 160.544 140.412 169.984 139.81 179.977C138.809 198.431 154.639 216.886 175.028 221.075C207.91 227.755 238.92 198.93 238.179 162.5C237.66 136.83 229.912 126.939 205.13 120.35C159.551 108.207 120.162 130.39 106.52 175.88C105.964 177.301 105.463 178.704 105 180.125Z" fill="#FAEEE5"/>
<path d="M63.2092 172.609C62.9303 170.399 62.9303 168.162 63.2092 165.952C73.761 126.666 90.0242 90.5412 125.092 67.0589C162.181 42.2379 201.347 42.2192 239.771 63.7493C275.154 83.6061 295.256 114.172 293.939 155.726C292.975 186.237 279.678 212.526 259.131 234.633C247.615 247.034 234.486 257.929 221.764 269.141C219.91 270.795 216.2 270.442 213.456 271C214.735 268.453 215.311 265.069 217.369 263.563C239.381 246.384 259.465 227.586 273.614 202.97C311.556 136.948 267.68 66.2036 200.827 56.7958C154.596 50.2698 119.232 70.015 94.8271 108.371C83.4593 126.313 76.6353 147.155 67.771 166.696C66.8624 168.704 66.0833 170.749 65.2302 172.776L63.2092 172.609Z" fill="#FAEEE5"/>
<path d="M246.493 276.383C257.412 264.552 269.018 253.707 278.582 241.262C296.502 217.973 310.596 192.563 313.865 162.539C318.544 118.844 301.646 84.2998 267.236 58.6293C231.674 32.103 191.284 22.0021 147.719 32.0285C95.3144 44.0825 66.5496 80.5053 53.142 130.526C48.9266 146.244 46.9953 162.558 43.857 179.374C43.0771 178.165 42 177.235 42 176.36C43.857 139.771 51.6748 104.855 73.8474 74.8686C103.764 34.4096 145.193 18.2818 194.07 24.1786C245.601 30.4102 287.18 54.1277 310.448 102.92C326.994 137.613 322.741 172.436 306.975 206.179C295.679 229.855 280.374 251.392 261.739 269.835C257.468 274.095 253.178 278.689 246.493 276.383Z" fill="#FAEEE5"/>
<path d="M83 173.166C87.5449 163.661 91.2179 153.618 96.7831 144.763C106.8 128.835 116.169 111.923 128.932 98.3528C170.207 54.6161 229.291 62.5801 259.344 114.652C289.025 166.019 269.083 223.14 211.575 248.313C193.841 256.072 174.474 260.324 155.923 265.782C153.196 266.58 149.82 265.095 147.482 262.867C166.924 256.815 186.792 251.858 205.714 244.451C236.563 232.366 258.917 211.222 265.725 177.528C276.559 123.897 226.935 63.6568 172.377 78.0253C143.846 85.5437 124.925 105.871 110.214 130.116C101.514 144.466 94.3161 159.818 86.4321 174.67L83 173.166Z" fill="#FAEEE5"/>
<path d="M489 305.828C483.14 306.161 477.056 307.68 471.455 306.643C441.096 301.086 410.848 294.713 380.581 288.619C353.875 283.247 327.188 277.801 300 271.633C308.012 271.633 316.264 270.336 323.98 271.855C358.159 278.523 392.154 286.063 426.26 293.139C439.242 295.843 452.354 298.178 465.762 299.9C433.901 283.951 415.892 253.461 390.744 230.676C377.929 219.062 364.038 208.633 351.038 198C365.139 201.96 377.912 209.638 388.018 220.229C406.879 239.142 425.11 258.796 444.453 277.134C453.726 285.97 465.113 292.88 475.981 299.919C479.449 302.142 484.475 302.012 488.777 302.957C488.87 303.92 488.926 304.865 489 305.828Z" fill="#FAEEE5"/>
<path d="M638.832 188C645.863 191.263 653.595 193.594 659.796 197.994C687.827 218.504 689.949 253.015 681.94 279.529C675.481 301.138 644.405 318.329 622.223 314.451C618.438 313.467 614.936 311.595 612 308.988C647.635 308.988 676.33 300.411 679.338 258.124C681.664 225.645 667.639 202.935 637.3 190.759L638.832 188Z" fill="#FAEEE5"/>
<path d="M351.096 210C368.121 217.222 382.04 232.541 396.684 246.688C405.374 255.064 413.059 264.501 420.874 273.715C422.567 275.707 422.995 278.76 424 281.329C421.041 281.906 417.766 283.544 415.161 282.818C409.877 281.329 404.983 278.499 399.903 276.321C390.023 272.059 380.328 267.201 370.131 263.794C351.803 257.652 333.511 257.782 315.816 266.754C313.281 267.801 310.667 268.648 308 269.285C315.22 258.117 344.992 250.541 362.409 256.777C380.57 263.273 398.582 270.16 418.231 275.391L351.096 210Z" fill="#FAEEE5"/>
<path d="M150 306.02C170.566 299.701 192.332 298.333 213.526 302.027C249.527 307.598 285.25 315.026 321.195 321.117C330.636 322.733 340.374 322.547 350 325.407C338.204 325.407 326.185 326.911 314.759 325.128C284.211 320.375 253.904 313.986 223.449 308.657C201.192 304.701 178.934 302.677 156.38 306.8C154.234 306.731 152.099 306.47 150 306.02Z" fill="#FAEEE5"/>
<path d="M622.637 185C641.478 203.75 638.323 247.01 625.959 274.81C620.422 287.39 613.52 300.083 598 303C633.967 270.722 636.81 230.899 622.637 185Z" fill="#FAEEE5"/>
<path d="M476 287C463.739 282.83 457.459 275.218 454.824 266.261C446.414 237.667 445.834 209.26 461.664 182.48C463.554 179.854 465.614 177.355 467.832 175C450.376 214.253 445.984 250.814 476 287Z" fill="#FAEEE5"/>
<path d="M353 191.355C372.825 187.049 423.003 222.761 444 254C440.634 251.931 436.561 250.533 434.013 247.7C411.695 222.798 385.602 203.321 353 191.355Z" fill="#FAEEE5"/>
<path d="M619 296.275C637.094 289.892 652.567 279.89 658.58 261.78C664.592 243.669 657.656 227.581 642.22 215C653.717 215.946 658.297 223.777 661.181 232.127C667.438 250.238 667.193 267.792 651.38 281.616C642.182 289.632 633.531 299.819 619 296.275Z" fill="#FAEEE5"/>
<path d="M449 186C432.469 182.804 416.753 178.578 400.815 176.971C385.303 175.455 369.494 176.647 353 176.647C368.345 165.018 439.641 172.945 449 186Z" fill="#FAEEE5"/>
<path d="M354 182.366C390.654 178.842 417.369 201.552 447 216.772L445.755 220C437.879 216.55 429.37 214.06 422.273 209.429C401.743 195.631 378.455 186.4 354 182.366Z" fill="#FAEEE5"/>
<path d="M325 243.007C343.055 226.365 359.363 243.006 377.606 245.292L344.088 220C360.997 226.441 375.464 235.98 387 254C364.304 252.961 347.32 230.955 325 243.007Z" fill="#FAEEE5"/>
<path d="M630 281C640.076 265.796 650.861 252.722 640.271 235C654.515 246.593 647.898 276.444 630 281Z" fill="#FAEEE5"/>
<path d="M435.38 200L401 182.495L402.229 180L437 196.747L435.38 200Z" fill="#FAEEE5"/>
</svg>
