<svg width="301" height="299" viewBox="0 0 301 299" fill="none" xmlns="http://www.w3.org/2000/svg">
<g clip-path="url(#clip0_68_446)">
<path d="M252.242 54.8848C259.258 53.1276 264.738 56.2444 269.763 60.4504C280.707 69.6336 286.799 81.8779 289.73 95.3785C293.155 111.097 295.409 127.071 297.87 142.98C298.953 149.985 299.335 157.101 299.98 164.177C300.18 165.636 300.18 167.115 299.98 168.574C298.587 175.929 299.98 183.076 300.777 190.367C301.422 195.861 299.909 201.57 299.694 207.191C299.232 219.324 295.632 230.519 290.997 241.666C288.878 246.763 287.898 252.384 285.302 257.465C280.627 266.616 273.658 272.301 263.169 272.659C259.866 272.863 256.56 272.294 253.516 270.997C249.072 268.858 245.265 269.017 240.94 271.077C235.856 273.542 230.599 275.633 225.21 277.334C222.821 278.081 219.364 278.185 217.357 276.984C214.355 275.195 211.846 275.895 208.987 276.348C203.619 277.191 198.243 278.097 192.827 278.511C189.641 278.749 187.148 279.727 185.07 282.009C177.44 290.429 167.086 294.134 156.907 298.054C154.926 298.731 152.796 298.852 150.751 298.404C144.96 297.249 138.99 297.322 133.229 298.618C130.358 299.068 127.435 299.068 124.564 298.618C121.322 298.261 118.367 297.171 117.961 293.116C117.901 292.707 117.756 292.314 117.535 291.964C117.314 291.613 117.022 291.313 116.679 291.081C110.889 287.829 105.577 283.424 98.3607 283.599C93.3192 283.726 88.2618 283.472 83.2283 283.679C80.0425 283.814 77.5099 282.955 75.4152 280.498C74.0453 278.908 72.4604 277.509 70.979 276.014C66.4552 271.482 61.4775 267.841 54.8192 267.093C40.9929 265.503 33.9524 256.67 30.5197 244.139C29.8109 241.547 28.9268 238.748 29.2295 236.188C29.6834 232.364 28.0905 229.692 25.7967 227.204C14.1448 214.57 9.81218 200.171 11.7236 182.774C13.2687 168.813 16.2793 155.368 21.8305 142.789C26.7605 131.611 24.8649 119.907 28.4171 108.148C20.9385 109.316 17.9916 105.269 15.7935 100.276C15.0086 98.564 14.3744 96.7869 13.8979 94.9651C13.1015 91.7847 11.5085 89.7572 8.37852 88.008C5.55522 86.5175 3.24591 84.2142 1.7504 81.397C0.254896 78.5798 -0.357675 75.3789 -0.00795591 72.2097C1.72829 53.1276 11.7316 38.5935 28.7516 30.8652C49.1246 21.5945 71.21 19.0582 93.4945 22.334C101.459 23.5027 109.153 26.7149 117.539 29.1637C119.65 27.1363 121.147 24.3058 122.15 20.6961C124.635 11.8229 129.637 4.84208 139.202 2.23419C146.729 0.247357 154.536 -0.470145 162.299 0.111317C175.48 0.97796 188.638 2.11493 201.795 3.29166C206.143 3.68125 210.683 3.86412 213.957 7.52151C214.244 7.83454 214.64 8.02764 215.064 8.06217C222.128 7.8634 226.309 13.0871 231.399 16.6253C234.847 19.0105 238.407 21.2526 241.84 23.6618C247.105 27.3589 250.601 31.9784 249.956 38.9274C249.757 41.1536 250.41 43.4594 250.752 45.7254C251.23 48.6195 251.7 51.4341 252.242 54.8848ZM187.682 153.619L182.425 155.407C182.919 153.118 183.222 151.718 183.636 149.739L172.796 157.689L172.956 157.578C170.566 155.574 167.381 154.867 164.33 152.99L172.295 146.558C174.572 150.192 174.572 150.192 177.073 148.896C172.669 144.642 171.148 139.999 175.775 134.505L181.199 139.275C184.385 136.731 187.132 134.123 189.163 130.656C191.003 127.476 193.639 127.476 195.439 130.434C197.032 133.089 198.386 135.904 200.146 139.227C201.198 137.136 202.249 135.411 202.95 133.559C203.834 131.221 204.32 128.74 205.172 126.403C206.717 122.125 209.393 121.879 212.722 125.735L208.071 129.981C209.799 130.672 211.543 130.831 212.181 131.754C212.977 132.915 212.881 134.703 213.168 136.238C220.886 134.362 223.028 130.935 221.26 124.312C219.229 125.274 219.173 128.748 215.685 128.74C215.685 127.492 215.685 126.506 215.685 125.56C215.637 121.529 214.888 120.479 210.986 121.1C206.374 121.839 203.404 119.223 200.218 116.933C198.888 115.979 197.534 114.325 199.143 112.735C199.939 111.94 201.715 111.63 202.934 111.813C205.387 112.179 207.712 113.18 210.173 113.642C213.702 114.31 217.286 114.731 219.42 115.049C222.749 113.284 225.083 112.282 227.122 110.859C227.918 110.302 228.014 108.784 228.611 107.225L223.912 108.251C223.028 103.48 220.352 100.586 216.099 98.1613C216.951 102.661 217.692 106.581 218.433 110.414C212.77 112.004 207.864 113.594 205.021 107.798L193.145 111.566C192.282 112.887 191.702 114.373 191.441 115.928C191.181 117.484 191.246 119.077 191.632 120.607C192.715 125.123 189.155 127.985 184.122 127.667C182.907 127.713 181.699 127.873 180.514 128.144L182.704 134.505C176.882 134.258 176.476 130.259 175.934 125.83C174.668 127.683 173.497 128.645 173.346 129.75C171.992 139.561 167.118 146.805 158.166 151.217C157.97 151.287 157.767 151.335 157.56 151.36L151.507 147.6C141.743 155.201 140.166 155.598 135.889 151.384L148.481 142.575C147.876 140.945 147.47 139.8 147.024 138.663C147.024 138.576 146.713 138.576 147.39 138.742C145.327 140.229 143.893 141.923 142.117 142.424C138.302 143.481 134.312 143.911 130.402 144.594L130.561 144.737L125.997 139.967C128.841 139.466 130.537 139.076 132.249 138.878C134.535 138.615 136.853 138.576 139.139 138.313C141.528 138.035 141.528 136.469 140.939 134.664C137.753 134.282 134.567 137.939 131.453 134.91C134.695 132.525 137.578 130.211 140.724 128.303C141.608 127.77 143.272 128.526 144.706 128.709C144.387 125.775 144.013 122.284 143.798 120.289L138.661 114.349L135.778 115.645C132.393 113.26 133.468 110.358 134.432 107.75L129.542 105.921C132.257 102.813 135.22 100.181 132.918 95.8874C128.339 97.4298 128.936 103.433 124.333 105.015C124.006 103.918 123.425 103.067 123.624 102.471C126.013 95.5137 132.6 93.0807 138.326 89.3518L136.104 84.287L128.14 91.7211C126.021 86.2907 130.123 84.3109 132.775 81.4883C129.414 82.2834 125.814 82.7446 123.568 84.7323C121.091 86.9267 119.841 90.5126 117.993 93.5339C113.939 90.1866 113.812 90.2025 109.487 94.6947L116.79 95.9192C116.79 96.8574 116.966 97.4537 116.79 97.6445C115.014 99.3619 113.175 101.008 111.948 102.129C113.358 106.216 114.783 109.778 115.691 113.459C115.914 114.365 114.68 116.409 113.748 116.679C111.733 117.251 110.857 115.677 110.65 113.737C110.522 112.513 110.204 111.352 109.973 110.096C109.384 115.232 110.1 119.923 114.752 123.04C118.344 117.991 120.797 112.433 126.173 107.997C127.311 116.862 135.523 119.406 139.457 125.433C136.272 129.853 129.35 132.962 121.999 133.153C122.581 127.476 128.291 127.238 131.557 124.2L128.737 120.901C125.504 123.898 125.504 123.898 121.657 121.911C120.701 124.296 119.753 126.784 118.766 129.217C117.969 131.245 118.16 132.748 120.358 133.892C122.007 134.751 124.739 134.688 124.548 138.234H116.297C115.741 139.068 115.269 139.955 114.887 140.881C113.183 147.345 111.86 153.937 109.806 160.289C107.321 167.986 108.762 173.663 116.289 177.574C117.906 178.358 119.307 179.524 120.372 180.97C121.436 182.417 122.131 184.1 122.397 185.875C122.7 187.68 124.309 189.548 125.814 190.813C130.752 194.939 132.456 200.847 134.495 206.452C135.236 208.479 135.833 210.117 137.474 211.62C141.066 214.904 141.058 217.106 137.53 220.533C131.78 226.146 124.731 228.651 116.822 227.442C110.26 226.433 103.864 224.572 97.1104 222.982C94.2033 230.416 92.6821 238.685 94.721 247.375C95.0826 249.004 95.3485 250.653 95.5175 252.313C96.2661 259.055 97.2378 260.351 103.872 262.211C107.568 263.253 110.897 264.644 113.724 267.443C115.247 268.901 117.204 269.825 119.299 270.075C123.831 270.433 128.419 270.138 132.982 270.122C135.666 270.122 138.717 269.28 140.947 270.266C149.516 274.034 155.92 271.736 161.089 264.43C161.621 263.777 162.216 263.178 162.865 262.641C173.461 252.628 180.898 239.746 184.265 225.574C187.109 214.236 189.498 202.755 191.346 191.218C192.644 183.267 192.787 175.054 193.4 167.453L188.725 165.068L191.792 159.621C189.06 157.817 185.962 163.509 183.923 158.127L188.048 153.992C191.234 153.921 193.209 152.466 193.265 148.649L187.682 153.619ZM116.4 41.1457C113.66 40.9151 110.992 40.4858 108.34 40.5176C104.788 40.5732 101.109 40.4619 97.7236 41.3127C89.8388 43.356 81.7948 45.2881 74.348 48.4684C56.0298 56.149 43.9796 70.0153 38.2531 88.827C35.1072 99.1631 32.7497 109.833 32.3993 120.789C32.232 126.013 31.2365 131.285 31.6745 136.437C32.4191 143.489 33.5867 150.49 35.1709 157.403C35.8064 159.836 36.9131 162.121 38.4283 164.13C40.1566 166.602 42.5221 166.515 43.8522 163.867C45.043 161.441 45.849 158.844 46.2415 156.171C46.9901 151.217 47.1893 146.184 47.8344 141.215C48.7264 134.568 49.2202 127.428 53.967 122.396C58.3872 117.712 60.9279 112.266 63.9624 106.82C72.0064 92.3731 80.1063 77.8071 93.4308 67.2563C99.8023 62.1916 106.007 56.7532 112.848 52.3564C119.69 47.9596 119.952 48.5479 116.4 41.1457ZM95.8281 149.572C95.3011 150.895 94.6837 152.181 93.9803 153.42C90.4122 158.89 86.0158 159.24 81.731 154.358C80.6519 153.081 79.7517 151.663 79.0549 150.144C77.2311 146.367 75.6621 142.471 73.7905 138.727C71.0188 133.161 68.072 127.762 65.2048 122.284C64.0897 124.606 64.05 126.625 63.8509 128.645C61.5332 151.782 63.6278 174.124 75.7975 194.637C81.2532 203.82 89.1459 210.881 97.8033 216.621C105.847 221.916 115.476 222.982 125.105 221.877C129.088 221.439 132.664 220.04 135.228 216.208C131.501 213.504 129.565 210.149 128.363 205.872C127.16 201.594 124.986 197.364 121.004 194.446C119.201 193.024 117.882 191.08 117.229 188.881C116.129 185.12 113.533 183.172 110.578 181.033C107.623 178.894 104.27 176.318 102.813 173.146C99.3882 165.815 95.2865 158.453 95.8281 149.572ZM242.222 208.495C245.321 207.176 247.582 206.857 248.817 205.561C255.595 198.406 259.426 189.771 260.947 180.119C263.503 163.859 262.134 147.52 262.181 131.173C262.217 130.546 262.163 129.917 262.022 129.305C258.836 118.754 255.834 108.14 252.377 97.6763C248.849 86.9585 240.964 79.3893 232.625 71.4385C231.168 75.4775 229.925 78.9123 228.643 82.4981C229.025 83.3409 229.439 84.303 229.901 85.2332C232.442 90.3456 233.884 95.3149 232.617 101.405C231.431 107.328 231.431 113.427 232.617 119.35C234.136 127.128 235.26 134.978 235.986 142.869C236.512 147.894 238.837 152.768 239.443 158.047C239.897 161.935 243.513 165.473 240.136 169.679C239.769 170.132 240.279 171.269 240.343 172.065C240.542 174.744 240.757 177.423 240.9 180.111C241.044 182.798 240.765 185.613 241.322 188.237C241.975 191.274 243.998 194.12 244.206 197.134C244.381 200.298 243.154 203.542 242.222 208.495ZM38.4841 174.251C36.6444 180.946 37.1939 188.563 37.616 195.997C37.855 200.211 39.4957 204.52 41.3036 208.424C43.0159 212.129 44.2345 215.659 44.2504 219.809C44.3198 223.981 44.765 228.137 45.5805 232.229C46.2575 235.862 48.1291 239.051 52.1193 239.901C59.2872 241.42 66.4552 243.209 73.7268 243.877C82.2089 244.672 85.753 241.658 88.1264 233.374C89.0981 229.947 89.9025 226.464 91.145 223.141C92.2361 220.223 91.4317 218.37 88.9548 216.78C77.701 209.449 70.087 198.962 64.7827 186.996C57.336 170.204 54.4289 152.553 57.2563 134.195C57.6784 131.42 57.9731 128.629 58.3236 125.83C55.6077 128.971 55.3688 132.589 55.0343 136.302C54.3573 143.767 53.6086 151.257 52.3024 158.636C51.3387 164.042 49.0609 169.131 44.2584 172.422C42.9522 173.345 41.1682 173.464 38.4841 174.251ZM102.805 33.6639L102.861 32.8689C101.149 32.3454 99.4067 31.9259 97.644 31.6126C76.825 29.1001 56.1811 29.7283 36.0232 35.9856C18.7403 41.3604 9.0316 53.4139 6.08476 71.1204C5.16089 76.6463 6.51485 80.9874 11.7714 83.7702C13.8568 84.7774 15.6315 86.3274 16.9084 88.257C18.1853 90.1867 18.9172 92.4244 19.027 94.7345C19.3455 98.4555 20.5482 102.081 23.9092 104.085C28.8471 103.178 30.7347 99.982 31.3878 95.6965C31.6603 94.2613 32.0086 92.8414 32.4312 91.4428C36.3497 76.9325 43.0796 63.9726 54.9307 54.4475C65.6349 45.8367 77.7249 39.5953 91.3122 36.5978C95.175 35.763 98.974 34.6498 102.805 33.6639ZM98.3449 266.123C100.663 269.216 103.41 271.585 104.454 274.559C106.421 280.125 110.666 282.653 115.604 284.633C120.215 286.501 123.353 289.499 123.879 295.017C126.603 295.017 129.111 295.017 131.612 295.017C137.474 295.017 143.392 294.651 149.134 295.335C153.078 295.935 157.111 295.342 160.714 293.633C169.029 289.594 177.44 285.746 183.692 278.527C186.296 275.513 189.88 273.756 193.823 274.495C200.815 275.768 207.147 273.088 213.566 271.49C216.274 270.814 218.934 268.119 220.647 265.662C223.681 261.289 225.983 256.407 228.611 251.732C226.366 252.355 224.256 253.391 222.391 254.785C215.024 259.675 207.474 264.231 198.816 266.465C196.595 267.069 194.282 267.266 191.991 267.046C188.717 266.664 187.897 264.215 189.848 261.623C191.68 259.19 193.185 256.391 195.423 254.356C201.556 248.711 204.184 241.189 206.645 233.684C212.475 216.192 214.14 198.088 213.16 179.737C212.921 175.308 212.364 170.904 211.894 166.491C211.417 166.867 211.038 167.353 210.788 167.906C210.539 168.46 210.426 169.065 210.46 169.671C210.325 189.048 206.605 207.835 202.121 226.631C198.665 241.126 191.25 252.805 180.148 262.41C172.773 268.959 164.143 273.944 154.781 277.064C152.607 277.763 149.492 277.771 147.613 276.706C141.361 273.207 134.79 273.009 128.068 273.772C121.975 274.456 116.297 273.478 111.343 269.932C107.512 267.276 103.418 266.346 98.3449 266.123ZM204.208 249.259C208.525 250.285 211.623 248.464 214.347 246.262C221.449 240.652 227.328 233.653 231.622 225.693C234.808 219.563 239.276 213.202 237.428 205.379C237.386 204.958 237.463 204.534 237.651 204.154C238.989 200.632 238.551 197.261 237.276 193.762C236.421 191.402 235.961 188.917 235.915 186.408C235.811 179.618 236.193 172.828 236.082 166.038C236.002 160.607 233.637 155.551 233.74 149.921C233.82 145.079 231.916 140.213 231.072 135.324C230.523 132.191 230.276 129.011 229.782 124.63C226.524 129.305 224.207 132.771 221.762 136.095C219.492 139.132 217.079 141.955 212.73 142.193C211.233 142.281 209.791 143.418 208.748 143.895C207.521 148.904 208.867 152.426 211.862 155.821C214.251 158.596 216.808 161.879 217.644 165.362C220.676 177.784 221.544 190.635 220.209 203.351C218.449 219.619 213.893 235.234 204.208 249.259ZM101.809 121.473C102.829 110.501 103.697 99.505 104.939 88.5487C105.352 84.638 106.29 80.8005 107.727 77.1392C110.833 69.4587 113.302 61.317 121.505 55.8389C116.305 54.7735 112.96 56.8089 110.252 59.0987C101.953 66.1352 93.6777 73.2592 85.9841 80.9318C79.3497 87.5549 76.9922 96.9448 72.2055 104.784C68.6454 110.612 68.6614 116.067 71.5126 121.99C75.8612 131.038 79.9789 140.19 84.2956 149.246C84.885 150.486 86.0478 151.448 87.4814 153.165C88.8035 151.694 90.4601 150.693 90.6672 149.436C91.5284 145.145 91.9844 140.782 92.029 136.405C91.8936 127.118 93.2556 124.725 101.809 121.473ZM124.11 37.703C125.703 37.8381 126.945 37.9176 128.188 38.0528C139.338 39.2136 150.488 39.794 160.388 32.9881C161.407 32.2355 162.62 31.7862 163.884 31.6921C174.023 31.6206 182.417 27.4543 190.294 21.4276C193.377 19.0423 197.375 17.9133 200.927 16.1403C203.173 15.0192 205.427 13.8663 207.553 12.5306C208.461 11.966 209.035 10.8847 210.564 9.09579C206.924 8.50743 204.352 7.88725 201.755 7.71234C191.505 7.03651 181.255 6.26528 170.996 5.9711C161.965 5.71667 152.925 6.01085 143.917 6.12216C133.739 6.24143 128.594 14.7329 126.34 21.5866C125.368 24.5443 124.819 27.7167 123.385 30.42C121.951 33.1233 122.405 35.1666 124.094 37.7268L124.11 37.703ZM134.718 59.1941C134.718 63.8772 134.559 67.9957 134.718 72.0984C134.965 76.9802 139.354 79.3178 141.783 82.8797C142.255 83.8088 142.787 84.7065 143.376 85.5671C146.028 88.4931 148.489 91.6814 151.547 94.1143C155.824 97.5014 166.258 96.4996 168.838 92.5241C172.398 86.9585 177.424 83.2852 183.174 80.6456C187.491 78.6578 189.498 75.4616 188.749 71.3431C187.674 65.1096 189.546 60.4265 194.093 56.4272C194.269 56.2682 194.093 55.6719 193.998 54.8371L180.458 51.5375C179.877 53.3264 179.471 54.7178 178.977 56.1013C177.01 61.5317 174.907 63.3922 169.252 63.0742C163.231 62.7482 157.242 61.7384 151.261 60.8638C146.004 60.0369 140.827 57.8982 134.718 59.1941ZM26.3065 145.588C25.4463 146.932 25.072 147.417 24.8092 147.973C24.3234 148.903 23.8952 149.862 23.5269 150.844C18.8757 163.732 16.6775 177.082 15.8412 190.733C15.0448 203.701 20.6199 213.735 28.5843 223.077C30.7463 225.621 32.7747 228.275 34.6612 231.028C36.9932 234.39 40.3049 236.955 44.1468 238.375C43.1831 235.568 41.9168 232.682 41.2398 229.629C40.5071 226.401 40.4434 223.022 39.8699 219.754C39.4558 217.528 39.0735 215.11 37.8709 213.258C31.0931 202.5 31.0294 190.542 31.6427 178.592C32.1445 168.813 32.3436 168.892 29.556 160.305C28.1384 155.869 27.5091 151.146 26.3065 145.588ZM36.5806 239.257L35.37 240.45C36.6841 244.362 37.831 248.337 39.3522 252.161C40.7938 255.747 43.1751 258.721 46.9981 260.065C49.5376 261.038 52.1609 261.778 54.8352 262.275C62.2819 263.404 68.0322 267.356 73.1534 272.524C74.6268 274.01 76.0445 275.577 77.6373 276.936C78.7125 277.867 80.0266 279.115 81.2611 279.163C87.6804 279.385 94.1078 279.266 101.801 279.266C96.0113 272.85 91.4476 267.284 86.3265 262.283C82.631 258.681 79.2382 255.199 79.2223 249.466C71.7994 248.671 64.7031 248.162 57.7183 247.081C50.2476 245.841 42.1557 246.182 36.5806 239.257ZM253.014 56.6737C251.214 60.8797 251.023 61.0467 254.289 64.9188C259.585 71.1999 263.702 78.1172 267.509 85.4081C279.99 109.316 288.09 134.648 293.426 160.941C293.84 163.008 294.103 165.115 294.429 167.199C294.797 166.761 295.073 166.254 295.242 165.707C295.41 165.161 295.467 164.587 295.409 164.018C293.561 147.838 292.096 131.595 289.651 115.518C287.891 103.965 285.374 92.4605 280.404 81.711C277.011 74.3803 272.543 67.7731 265.781 63.2252C261.815 60.5935 257.275 58.8364 252.99 56.6737H253.014ZM214.522 89.0655C210.922 84.5733 207.736 80.3196 204.232 76.3442C201.843 73.625 201.556 70.7785 202.536 67.5982C204.495 61.2375 204.511 61.2375 199.35 58.7648C192.978 60.5776 192.492 64.9029 193.082 70.2697C193.703 75.9943 191.911 80.9795 186.36 84.0247C184.345 85.1815 182.473 86.572 180.785 88.1671C177.599 91.1089 173.951 93.7327 172.629 97.9625C174.843 103.631 179.502 103.822 184.186 103.965C186.24 104.029 188.598 103.441 190.302 104.244C196.347 107.066 201.086 104.673 205.092 100.674C208.612 97.1595 211.376 92.9694 214.498 89.0655H214.522ZM257.156 204.099L255.396 204.552C255.109 205.983 254.384 207.494 254.599 208.837C256.399 219.523 260.174 229.398 267.884 237.285C270.153 239.443 272.873 241.072 275.848 242.056C280.906 243.845 284.609 241.865 286.863 236.928C287.739 235.019 288.735 233.175 289.603 231.267C294.293 220.966 295.395 209.396 292.733 198.398C289.324 206.349 287.022 214.753 276.908 216.518C266.633 218.307 261.918 211.27 257.132 204.099H257.156ZM179.056 44.4612C179.648 45.8507 180.634 47.0377 181.891 47.8766C183.149 48.7155 184.624 49.1698 186.137 49.184C191.727 49.5733 197.125 51.3824 201.819 54.4395C204.615 56.1938 207.066 58.4438 209.051 61.0785C210.835 63.4637 208.35 65.7059 207.346 67.9401C206.247 70.4049 206.351 72.6549 208.381 74.8494C210.205 76.8132 211.408 79.3416 213.224 81.3055C214.204 82.355 216.099 83.5397 217.254 83.2693C221.873 82.1642 225.513 79.8584 226.986 74.7142C228.802 68.3535 228.627 61.9451 228.46 55.497C228.46 54.3918 227.878 52.6347 227.098 52.3167C223.482 50.806 219.5 48.2697 216.035 48.7626C210.755 49.518 207.712 46.9498 204.391 44.2147C202.655 42.7915 201.301 40.8992 199.756 39.2057L179.056 44.4612ZM199.764 21.7933C200.664 23.8446 202.344 26.0311 202.496 28.321C202.846 33.4731 206.199 36.407 209.281 39.8338C213.264 44.2863 216.107 43.4673 219.906 40.1757C222.825 37.503 226.059 35.1936 229.535 33.2982C233.78 31.1356 237.268 32.7257 239.244 37.0669C240.367 39.5317 240.964 42.2509 242.191 44.652C243.25 46.7192 244.875 48.4923 246.252 50.4005C246.194 45.3032 245.523 40.2314 244.253 35.2939C243.445 32.0265 241.428 29.1858 238.607 27.343C232.96 23.3676 227.496 19.1934 221.921 15.1543C219.97 13.7391 217.899 12.4908 216.927 11.8468L199.764 21.7933ZM167.261 265.026C179.064 259.81 190.525 247.264 194.715 235.465C203.627 210.38 205.69 184.301 205.865 156.91L199.127 161.951C199.005 178.321 197.347 194.644 194.173 210.706C190.788 227.776 185.189 243.757 173.808 257.282L167.261 265.026ZM124.986 42.8949C124.986 45.2006 124.986 46.4489 124.986 47.6654C124.986 52.4359 125.902 53.4854 130.641 53.8353C131.686 53.8949 132.734 53.8949 133.779 53.8353C141.186 53.5093 148.202 55.2744 155.283 57.1746C160.061 58.4547 165.19 58.3434 170.168 58.6376C172.557 58.7807 173.665 57.4131 174.453 55.004C175.791 50.9093 174.795 47.1725 173.776 43.3719C173.204 41.3692 171.913 39.6466 170.151 38.5323C168.388 37.418 166.277 36.9898 164.219 37.3293C161.957 37.6902 159.775 38.4379 157.768 39.5396C149.54 44.3101 140.803 45.0019 131.652 43.4117C129.693 43.1414 127.646 43.1175 124.986 42.8949ZM233.501 251.732C231.51 255.199 229.32 259.238 226.899 263.142C224.565 266.894 222.001 270.504 218.799 275.275C222.686 274.48 225.433 274.217 227.886 273.247C231.972 271.657 236.201 270.067 239.761 267.538C244.691 264.088 249.319 264.358 254.575 266.322C264.443 269.979 271.858 267.682 278.19 259.166C280.436 256.153 282.395 252.917 284.362 249.705C284.721 249.116 284.49 248.178 284.537 247.399C284.094 247.534 283.688 247.768 283.347 248.082C283.007 248.395 282.741 248.782 282.57 249.212C276.246 262.084 268.704 263.69 258.088 254.03C255.34 251.533 252.512 251.645 249.382 251.645C244.452 251.796 239.435 251.732 233.501 251.732ZM280.141 153.937C285.334 148.482 285.557 147.894 284.386 142.265C280.539 123.707 273.101 106.39 265.781 89.0496C264.188 85.2809 261.799 81.8938 259.728 78.2762L258.135 78.9441C260.254 86.9585 262.349 94.973 264.507 102.98C265.487 106.589 266.976 110.135 267.557 113.777C268.672 120.933 269.23 128.088 270.17 135.244C271.109 142.4 274.861 148.363 280.141 153.929V153.937ZM234.258 246.755C236.751 247.486 238.24 248.345 239.769 248.297C242.902 248.107 246.019 247.722 249.104 247.145C253.922 246.349 258.215 246.787 261.568 250.985C262.699 252.392 264.499 253.37 266.156 254.229C272.312 257.409 274.454 256.503 277.306 249.22C270.345 247.693 264.34 244.378 260.461 238.359C256.781 232.658 253.675 226.592 250.179 220.43C247.893 225.017 245.95 229.637 243.377 233.89C240.805 238.144 237.683 242.008 234.258 246.755ZM248.299 213.504C242.206 213.17 241.33 213.624 239.22 218.585C237.746 222.044 236.926 225.892 234.895 228.961C232.02 233.286 228.396 237.142 224.908 241.038C218.926 247.709 212.276 253.306 202.822 254.42C201.196 254.765 199.746 255.675 198.729 256.988C197.072 259.055 195.901 261.512 194.531 263.802C215.629 261.082 242.469 237.977 248.299 213.504ZM266.84 205.959C271.906 211.787 279.4 212.113 283.43 206.929C288.042 200.998 290.128 193.762 290.997 186.599C291.881 178.809 291.025 170.921 288.488 163.501C286.099 171.452 283.868 179.681 281.025 187.728C278.421 195.09 274.908 202.031 266.84 205.959ZM170.383 125.48C172.908 119.732 169.643 112.91 170.104 106.104C170.264 103.806 169.658 101.636 167.381 101.008C164.832 100.308 162.419 101.008 161.057 103.735C159.695 106.462 158.19 109.3 156.676 112.075C152.017 120.519 152.758 125.894 159.488 132.509L170.383 125.48ZM269.023 198.334L270.249 198.764C279.44 186.559 282.586 172.2 284.02 156.982L280.834 159.558L275.832 156.274C273.236 163.43 271.667 170.021 272.607 177.129C273.355 183.2 272.505 189.361 270.138 195.003C269.692 196.044 269.389 197.181 269.023 198.334ZM101.045 128.955C98.8864 143.147 100.065 155.638 103.434 159.788C105.975 151.679 108.611 143.092 111.343 134.592C112.936 129.575 112.139 128.009 105.919 125.401L101.045 128.955ZM234.258 36.3672C227.783 37.7189 224.701 42.3224 220.511 45.8605C224.725 48.055 229.153 49.0965 231.367 51.8873C233.581 54.6781 233.541 59.1862 234.6 63.3763L244.723 61.3488C243.226 58.6535 242.605 56.3239 241.091 54.9881C237.436 51.8078 236.313 47.8324 235.803 43.3401C235.532 41.1457 234.847 38.9831 234.258 36.3672ZM118.614 86.7041C115.524 77.8628 117.515 75.1515 128.554 72.5595C128.745 67.9401 129.462 63.2093 125.973 58.8205C121.991 60.9036 118.686 63.0901 117.332 67.4869C116.416 70.4764 114.831 73.2513 113.868 76.2328C112.816 79.4927 111.303 82.7287 111.813 86.7041H118.614ZM250.091 64.7597L238.368 67.7572C245.822 77.1313 253.189 86.0919 257.665 96.9687C255.603 86.0442 254.129 75.0323 250.091 64.7597ZM199.055 35.4529L195.288 23.8128C187.387 27.0886 182.545 34.6976 173.68 34.3875C176.795 39.0785 180.904 39.9531 185.818 38.665C189.8 37.5996 193.854 36.7012 199.055 35.4529ZM142.428 95.291C141.353 98.2011 140.039 101.008 139.314 103.965C138.565 107.146 140.819 109.618 144.14 109.73C146.593 109.817 149.046 109.73 151.722 109.73L157.799 101.978L142.428 95.291ZM166.847 132.414C166.481 132.899 166.146 133.407 165.748 133.861C161.383 138.989 158.349 138.997 154.12 133.861C153.029 132.549 152.001 131.181 150.934 129.838C151.458 133.998 152.599 138.058 154.319 141.883C155.362 144.101 157.505 144.912 160.189 143.593C164.585 141.39 165.732 137.113 166.807 132.414H166.847ZM189.729 110.072L174.549 108.656C175.21 112.393 175.807 115.749 176.396 119.104L177.575 119.541C180.219 114.93 187.467 116.353 189.689 110.08L189.729 110.072ZM227.815 100.189C230.204 94.4005 227.225 90.2343 223.96 85.1537C221.993 86.5451 219.524 87.4038 218.767 89.0496C217.74 91.2838 219.635 93.1841 221.587 94.6788C223.681 96.3087 225.585 98.2329 227.775 100.189H227.815ZM260.907 198.692C268.075 194.542 271.189 183.092 267.581 177.225C265.351 184.245 263.169 191.274 260.867 198.692H260.907ZM194.006 138.703C191.919 139.013 189.777 138.703 188.566 139.641C185.644 142.01 182.136 143.545 178.411 144.085L188.056 146.232C192.684 142.678 192.684 142.678 194.006 138.703ZM204.359 143.163C198.283 147.703 196.801 150.367 197.51 155.415C200.521 151.782 205.475 149.89 204.336 143.163H204.359ZM268.919 146.892V161.76L273.443 151.122L268.919 146.892ZM87.6725 245.578C84.3434 248.48 84.5823 250.826 88.4211 254.102C88.1503 251.032 87.9353 248.544 87.6725 245.578ZM181.924 121.839C187.793 123.477 187.793 123.477 186.519 118.5L181.924 121.839ZM126.173 79.8107C121.274 77.9264 121.274 77.9264 120.661 81.9256L126.173 79.8107ZM148.115 120.599C149.293 114.421 149.293 114.421 145.893 114.055C146.649 116.162 147.35 118.221 148.154 120.599H148.115ZM210.779 102.129C210.03 103.186 209.13 104.117 209.266 104.307C209.922 105.136 210.714 105.848 211.607 106.414C211.703 106.486 212.842 105.484 212.762 105.317C212.177 104.209 211.515 103.143 210.779 102.129Z" fill="#9D6132"/>
</g>
<defs>
<clipPath id="clip0_68_446">
<rect width="301" height="299" fill="white"/>
</clipPath>
</defs>
</svg>
