<svg width="304" height="272" viewBox="0 0 304 272" fill="none" xmlns="http://www.w3.org/2000/svg">
<g clip-path="url(#clip0_68_445)">
<path d="M41.4065 227.403C29.3017 229.136 21.8694 225.887 16.6643 215.998C8.24745 200.017 2.75187 183.249 1.33158 165.529C0.920014 160.476 0.306705 155.423 0.0807487 150.37C-0.459932 137.89 2.3968 125.727 7.04504 114.207C11.9919 101.936 13.4445 89.2246 16.1398 76.6721C16.9468 72.8681 17.8102 69.0569 18.8513 65.2962C20.9817 57.551 22.9992 49.7626 25.5493 42.1257C27.114 37.4511 29.1758 32.9214 31.7066 28.5987C34.9829 23.0046 40.7367 19.482 47.0393 17.2444C53.9148 14.8191 61.1293 13.1156 68.2631 11.3182C76.2119 9.31158 84.4028 8.15666 91.6657 4.10001C97.8311 0.656916 104.82 0.981722 110.856 4.44647C118.119 8.6114 126.124 11.0584 133.79 14.2994C136.599 15.4904 138.535 15.1872 141.053 13.9023C146.743 11.015 152.488 8.12777 158.46 5.70244C178.538 -2.40364 198.85 -1.01049 219.226 4.9229C238.844 10.6325 255.791 20.6514 272.39 31.2261C278.832 35.3179 284.114 40.702 287.812 46.9474C289.563 49.878 291.209 52.9386 293.517 55.501C301.684 64.5743 303.653 75.4956 304.008 86.3807C304.196 95.4442 301.389 104.356 295.938 111.998C292.371 117.116 289.24 122.479 285.988 127.77C284 131.232 280.938 134.107 277.168 136.049C266.225 141.694 255.71 148.003 244.283 154.47C245.163 156.123 246.066 158.484 247.511 160.519C258.809 176.118 263.11 193.34 263.505 211.769C263.796 224.834 265.192 237.884 266.056 250.942C266.25 253.088 266.288 255.244 266.168 257.395C266.113 259.068 265.547 260.696 264.533 262.103C263.519 263.509 262.095 264.642 260.415 265.378C257.316 266.822 254.249 268.323 250.933 269.904C237.04 266.832 222.672 265.856 208.421 267.017C197.93 267.912 188.165 265.443 180.983 258.355C173.107 250.523 166.102 241.984 158.759 233.726C156.596 231.294 154.586 228.753 151.73 225.339C150.6 228.082 149.688 229.922 149.083 231.835C147.259 237.675 145.968 243.673 143.684 249.361C141.287 255.219 138.426 260.917 135.122 266.411C132.176 271.37 126.536 272.438 120.911 271.774C116.138 271.261 111.484 270.082 107.119 268.28C100.317 265.335 93.32 265.184 86.0813 265.249C82.466 265.249 78.6086 265.169 75.2435 264.122C61.7023 259.907 52.3896 251.433 46.6197 239.833C44.691 235.849 43.2303 231.734 41.4065 227.403ZM140.86 145.707C142.28 142.769 141.053 140.972 137.381 139.658C137.091 141.102 136.857 142.279 136.575 143.527C138.931 143.419 141.279 142.668 140.819 145.693C138.745 150.637 138.987 155.676 140.335 160.671C141.13 163.283 142.156 165.834 143.402 168.3C145.605 172.963 147.307 177.944 150.358 182.116C159.42 194.524 169.048 206.593 178.433 218.806C179.845 220.647 181.742 222.415 180.676 225.303C179.869 224.949 179.175 224.841 178.82 224.48C173.851 219.327 168.502 214.478 162.81 209.964C152.593 201.908 144.628 192.034 138.503 181.091C135.385 175.697 133.745 169.717 133.718 163.645C133.718 158.253 133.661 152.861 133.629 147.519C132.983 147.411 132.523 147.194 132.209 147.31C123.751 150.464 119.733 146.588 117.756 140.041C115.698 133.256 113.261 126.565 111.171 119.787C109.492 114.315 105.893 110.461 99.6387 107.985C100.05 116.647 106.377 148.688 109.637 156.816C115.625 171.729 122.702 186.187 133.734 198.776C139.923 205.842 146.331 212.757 152.666 219.709C153.269 220.259 153.911 220.775 154.586 221.253C157.104 223.419 159.719 225.462 162.091 227.75C169.104 234.463 176.222 241.111 182.928 248.076C189.957 255.381 199.14 257.612 209.268 258.03C212.334 258.16 215.417 257.864 218.476 258.03C225.222 258.442 231.952 258.976 238.65 259.575C241.878 259.871 245.106 260.701 248.391 260.78C256.46 260.968 259.051 258.261 258.123 251.18C257.59 247.109 256.767 243.06 256.509 238.981C255.984 230.781 255.92 222.567 255.339 214.374C255.015 208.722 254.301 203.093 253.2 197.52C248.754 176.587 238.045 157.82 227.595 138.929C227.383 138.585 227.14 138.257 226.868 137.948C217.421 126.206 207.958 114.464 198.478 102.723C197.427 101.563 196.303 100.457 195.113 99.4096C188.206 100.774 183.009 103.481 180.232 109.299C178.497 112.941 175.277 115.857 171.227 117.455C170.019 118.095 168.869 118.819 167.789 119.621C171.493 127.164 176.52 132.548 185.542 135.645C196.63 139.449 204.547 147.303 210.809 156.311C213.9 160.772 216.845 165.312 220.073 169.686C222.833 173.447 225.964 176.984 228.765 180.716C229.467 181.64 229.523 182.946 229.87 184.079C227.923 183.495 226.229 182.38 225.028 180.889C220.001 175.223 215.627 168.957 209.873 163.955C200.665 155.936 190.505 148.797 180.822 141.182C174.6 136.302 168.055 131.646 166.07 123.8C165.214 120.443 162.108 120.191 159.001 120.342C158.469 122.091 157.8 123.803 156.999 125.467C153.917 130.78 148.122 131.913 142.861 128.189C140.44 126.507 138.479 124.349 136.187 122.53C135.248 121.953 134.231 121.485 133.161 121.136C136.776 129.546 143.272 134.793 152.529 137.558C154.433 132.57 156.636 130.874 160.703 130.585C164.771 130.296 166.546 132.613 168.2 135.284C171.751 141.059 169.855 146.992 163.439 150.998C159.775 153.286 156.305 153.712 152.593 151.28C149.769 149.425 146.993 147.505 144.039 145.837C143.337 145.325 141.957 145.722 140.86 145.707ZM271.591 95.685C269.001 95.4035 267.694 95.5261 266.653 95.1147C260.883 92.8049 255.226 90.2785 249.44 88.0048C242.63 85.2622 236.476 81.3702 231.315 76.5422C225.956 71.6555 220.638 66.7254 215.32 61.8026C205.265 52.4983 192.507 49.7409 177.513 49.2934C179.183 50.9247 180.047 51.9425 181.096 52.7726C185.51 56.2806 190.231 59.5072 194.363 63.2535C203.159 71.1935 205.435 80.6783 201.367 91.3107C200.738 92.942 200.1 94.5661 199.544 96.0026C202.392 99.2797 205.136 102.095 207.452 105.163C216.264 116.813 224.993 128.516 233.639 140.272C236.399 144.04 238.796 144.877 243.323 142.964C244.291 142.553 245.308 142.243 246.309 141.86C261.181 136.583 274.65 129.697 282.784 116.596C286.609 110.453 291.823 104.643 292.25 97.4534C292.767 88.7121 292.097 79.8987 291.669 71.1357C291.548 68.7841 290.866 66.4828 289.668 64.3867C283.478 53.9563 276.466 44.089 264.821 37.6792C257.187 33.4638 249.795 28.8802 241.991 24.9607C227.465 17.6414 212.318 11.4915 195.259 10.6325C190.021 10.3727 184.719 10.8274 179.514 10.3366C165.691 9.0373 154.094 14.4726 141.537 19.4604C147.299 29.436 158.605 33.2328 166.554 41.1151C173.639 31.6159 183.646 27.6603 194.54 24.8957C185.478 24.4338 176.593 24.3327 167.829 26.3972C166.433 26.722 163.907 26.4621 163.375 25.6753C162.689 24.6503 163.124 22.7014 163.73 21.3949C164.307 20.1182 165.382 19.072 166.756 18.4499C170.791 17.0062 174.931 14.8407 179.022 14.9057C188.659 15.0249 198.006 17.8757 205.717 23.0479C206.387 23.481 206.573 24.4915 207.194 25.6825L198.93 25.7186C209.106 26.9746 218.968 29.1689 227.748 34.1351C236.673 39.1878 242.629 46.7526 248.899 54.2162C247.527 54.5771 246.373 54.671 245.598 54.2162C240.458 51.2928 235.325 48.3406 230.322 45.2367C218.693 38.0185 206.242 33.4349 191.7 34.4671C183.447 34.9695 175.502 37.4641 168.709 41.6854C172.477 46.435 172.502 46.2617 177.755 44.5727C183.888 42.5876 190.207 40.8552 196.8 42.8763C206.161 45.7636 215.207 49.2861 222.753 55.1473C229.039 60.0052 234.857 65.3684 240.926 70.4284C245.566 74.2829 250.755 77.6827 254.935 81.8909C258.906 85.8826 262.941 89.5061 268.331 91.9098C269.405 92.4223 269.977 93.7649 271.583 95.685H271.591ZM174.099 88.7627C172.736 88.3512 171.904 88.3368 171.678 87.9759C164.553 78.4262 157.032 69.0713 150.527 59.1896C143.87 49.0841 138.31 38.5238 129.045 29.8547C124.203 25.3361 119.297 21.5609 112.728 19.5109C111.204 18.9156 109.724 18.2332 108.298 17.4682L113.01 14.3715C107.692 10.7047 101.769 10.5098 95.8701 10.4304C93.1344 10.4304 90.9313 11.7586 91.0282 14.2922C91.3913 21.6187 87.1062 28.0068 86.7269 35.4199C86.2024 45.6265 86.1378 55.6815 87.5339 65.7365C88.8332 74.9181 91.1169 83.8254 97.4195 91.52C98.3692 92.5827 98.9324 93.88 99.0335 95.2374C98.9689 97.6122 100.591 98.6949 102.31 99.9365C104.182 101.286 106.232 102.535 107.733 104.181C112.688 109.594 118.901 112.33 126.689 113.456C131.692 114.178 135.687 112.323 140.028 111.5C144.919 110.569 149.083 110.381 153.86 112.482C161.365 115.781 171.154 114.091 174.761 107.97C178.368 101.849 183.824 97.6844 190.901 94.8188C196.421 92.5811 198.64 87.7521 198.817 82.8221C199.019 76.9825 196.146 71.8576 191.135 67.8731C179.837 58.9225 168.539 49.9719 157.241 41.0213C156.364 40.5049 155.425 40.0788 154.441 39.7509C161.034 56.2373 167.401 72.1102 174.091 88.7627H174.099ZM98.7349 150.969C99.0658 153.221 99.5419 154.701 99.4612 156.159C99.0415 167.456 102.81 178.153 106.022 188.793C108.895 198.246 108.895 208.213 106.022 217.666C104.553 222.719 102.132 227.533 100.163 232.463C98.7591 235.957 97.4841 239.501 95.9508 242.944C95.1758 244.341 94.2658 245.674 93.2312 246.929C92.0772 245.586 91.9562 244.698 92.0853 243.839C93.6347 233.791 95.6361 223.787 96.6529 213.703C97.5187 205.363 97.7075 196.977 97.2178 188.613C96.7981 181.835 94.3772 175.165 93.78 168.401C93.2151 162.042 93.0376 155.466 94.3126 149.251C95.0712 145.577 95.9669 142.084 95.3859 138.424C94.7 134.093 93.8203 129.762 93.0295 125.475C92.6778 125.658 92.3856 125.92 92.1818 126.235C91.978 126.551 91.8696 126.908 91.8674 127.272C91.1653 140.315 93.9333 153.51 89.7289 166.424C89.6124 166.886 89.6158 167.365 89.7389 167.826C89.862 168.286 90.1015 168.715 90.4391 169.08C94.0947 171.895 92.9084 175.302 92.626 178.839C92.1499 184.866 91.2703 191.11 92.392 196.957C94.1512 206.247 91.1976 214.013 85.2743 221.102C81.5703 225.519 77.0431 229.388 72.7903 233.438C72.3787 233.827 71.3619 233.719 70.4419 233.871C70.337 232.896 70.0788 232.283 70.2483 231.792C71.9752 226.797 73.7425 221.812 75.5502 216.836C75.7988 216.072 76.1655 215.343 76.6396 214.67C84.5158 204.24 87.4855 192.619 87.3483 179.063C84.3463 184.967 82.1271 190.042 79.2784 194.806C72.4513 206.16 63.8811 216.208 50.7757 222.358C47.6688 223.801 46.8456 225.7 47.5477 228.544C50.4367 239.653 56.5053 248.979 67.3915 255.179C72.1689 257.9 77.5918 259.806 83.5958 259.019C93.4093 257.647 103.451 259.362 112.01 263.87C115.488 265.645 119.757 266.324 123.751 267.118C127.149 267.797 129.731 266.317 131.176 263.509C133.274 259.423 135.606 255.41 137.236 251.173C140.295 243.233 142.587 235.033 145.855 227.151C147.913 222.192 146.783 218.842 142.732 215.147C135.558 208.585 129.013 201.497 122.194 194.625C121.258 193.687 120.354 192.734 119.24 191.579C117.328 195.809 119.24 198.574 121.339 201.728C124.228 206.008 127.794 210.773 128.004 215.443C128.295 221.889 125.785 228.436 124.268 234.932C124.107 235.654 122.589 236.116 121.04 237.148C121.298 228.658 119.497 220.219 115.762 212.411C111.695 204.118 110.697 194.879 112.914 186.043C113.398 183.964 112.615 181.445 111.744 179.344C108.128 170.56 104.255 161.854 100.446 153.135C99.9538 152.364 99.378 151.639 98.7268 150.969H98.7349ZM41.7697 205.98L40.3575 206.174C35.9029 200.761 37.7751 194.048 36.8471 188.042C35.919 182.037 37.2909 175.605 37.6541 169.369C38.0172 163.132 40.075 157.199 40.1557 149.814C38.7435 151.338 38.2028 151.713 37.9607 152.204C30.8996 166.467 23.2816 180.463 21.7403 196.48C21.1673 202.356 21.3449 207.698 23.6367 213.082C26.7194 220.301 34.7247 223.657 42.6654 220.539C50.0816 217.651 57.4172 214.165 62.2833 208.116C67.2382 201.952 72.0801 195.6 75.9456 188.858C80.1177 181.589 83.3779 173.7 83.6523 165.449C84.0881 152.752 83.6523 140.019 83.5474 127.308C83.5474 123.829 82.7404 120.256 83.386 116.899C84.618 111.175 86.2048 105.517 88.1392 99.9509C88.936 97.9423 88.8582 95.739 87.9213 93.7793C82.1271 81.3062 77.8339 68.4289 76.228 54.2162C75.9315 54.9606 75.6836 55.7198 75.4856 56.4899C74.3639 64.43 73.5165 72.3701 72.1043 80.2452C68.8764 98.4568 59.5799 114.741 50.3802 130.895C47.1523 136.526 46.8698 141.47 48.3789 147.129C49.0269 149.369 49.2989 151.683 49.1859 153.994C48.8228 158.642 48.04 163.262 47.3621 167.889C45.5168 180.583 43.65 193.28 41.7616 205.98H41.7697ZM13.0974 196.134C14.776 190.128 15.9542 185.227 17.5359 180.434C23.4349 162.526 34.4826 146.696 43.2142 129.907C47.7172 121.245 52.898 112.843 57.1428 104.094C63.2721 91.3221 66.9367 77.713 67.9806 63.8453C68.6343 56.1362 68.368 48.1962 72.0155 40.8192C72.7176 39.3755 72.3868 37.5565 72.532 35.9036C66.0035 39.8014 61.6942 45.0346 57.4494 49.8347C58.3533 51.4949 59.8704 52.9241 59.5799 53.9708C58.7034 57.3468 57.4294 60.6302 55.779 63.7659C52.9545 69.0497 49.7346 74.1674 46.6358 79.3357C42.9018 85.7546 40.2064 92.6155 38.6305 99.7127C35.8948 111.118 32.7234 122.436 29.6568 133.776C29.1323 135.717 28.2204 137.565 27.486 139.464L25.9285 139.189C25.9285 136.778 25.7429 134.367 25.9285 131.971C26.324 126.528 27.365 121.093 27.2843 115.665C27.0987 103.105 30.2621 91.2891 35.8787 79.8915C36.3638 78.7432 36.7787 77.5721 37.1214 76.3834C33.9087 79.8729 31.3967 83.8342 29.6972 88.0914C26.9131 95.3096 20.0779 100.572 17.899 108.043C17.7353 108.41 17.4547 108.726 17.092 108.952C14.1627 111.074 13.2346 114.12 12.5648 117.181C10.2326 127.893 7.50503 138.576 7.82782 149.591C8.09413 158.375 8.12641 167.182 9.02216 175.916C9.68389 182.419 11.5722 188.822 13.0894 196.134H13.0974ZM80.4809 16.7752C79.0262 16.8793 77.5793 17.0577 76.1473 17.3094C66.6652 19.5831 57.054 21.5176 47.7898 24.3472C41.5115 26.2672 36.492 29.667 35.217 36.5748C33.9096 43.8508 32.1343 51.2278 29.0919 58.0346C25.2031 66.7223 22.7798 75.8789 21.9017 85.2041C21.7806 86.4023 21.9017 87.615 21.9017 88.8132C23.0288 88.0955 23.9204 87.121 24.484 85.9909C27.712 80.6638 30.4073 75.012 34.2647 70.1108C43.4159 58.4245 52.9787 47.0124 62.6707 35.6509C65.4144 32.4388 69.1265 29.8763 72.5401 27.1334C75.9537 24.3905 78.3827 21.034 80.4809 16.7752ZM161.18 69.5838L162.309 69.0208C161.712 67.6493 161.139 66.2707 160.51 64.9064C158.896 61.4922 157.04 58.1646 155.74 54.6637C153.319 48.1673 150.777 41.7936 146.299 36.1345C143.281 32.3233 139.843 29.27 134.735 28.4038C138.479 33.5648 142.449 38.4516 145.726 43.6848C149.349 49.4594 152.246 55.6093 155.652 61.5066C157.249 64.3073 159.307 66.8986 161.163 69.5838H161.18ZM214.804 54.7215L213.803 55.6887C222.034 63.3906 230.032 71.3018 238.594 78.6932C242.495 82.1694 247.635 84.3124 253.12 84.7493C238.82 76.2968 228.813 63.3978 214.788 54.7215H214.804ZM129.602 132.924C126.229 133.588 122.468 134.367 119.708 130.758C120.687 134.24 121.869 137.674 123.251 141.044C124.058 142.972 125.091 144.509 127.988 143.982C130.635 143.506 132.176 142.539 132.507 139.904C132.838 137.269 132.289 134.952 129.602 132.924ZM139.117 118.971L138.39 120.913C140.222 122.27 141.909 123.8 143.918 124.912C145.54 125.77 147.358 126.289 149.236 126.427C152.149 126.615 153.545 124.984 153.61 122.436C153.675 120.104 152.4 118.596 149.833 118.552C146.266 118.502 142.691 118.812 139.117 118.971ZM159.017 136.295C157.75 138.157 156.943 140.727 155.095 141.68C153.247 142.632 150.422 141.903 147.404 141.918C149.018 143.022 150.213 143.838 151.439 144.61C152.305 145.196 153.219 145.722 154.175 146.184C157.605 147.743 160.929 146.819 162.35 143.961C163.996 140.626 162.818 137.897 159.017 136.28V136.295ZM162.769 203.829C159.541 199.909 156.257 195.961 152.948 192.063C149.64 188.165 146.081 184.123 142.651 180.174C146.759 189.775 154.264 197.087 162.769 203.814V203.829ZM37.2748 89.7805L51.3567 64.2062C44.6103 71.8287 38.7354 79.8409 37.2748 89.7588V89.7805ZM168.007 21.6186L189.432 20.2183C184.259 17.6775 173.809 18.0745 168.031 21.597L168.007 21.6186ZM118.312 120.285C119.765 123.02 121.072 125.836 122.727 128.47C124.131 130.722 125.729 129.914 127.682 128.189C124.187 125.626 125.438 120.032 118.337 120.263L118.312 120.285ZM188.117 140.496C192.014 145.765 198.043 149.1 203.199 153.229C199.939 147.382 194.597 143.419 188.141 140.474L188.117 140.496ZM214.747 34.1495C217.257 35.3405 219.089 36.2717 220.985 37.0368C222.882 37.802 224.899 38.531 226.86 39.2672C221.816 35.2034 221.114 34.9146 214.804 34.1278L214.747 34.1495ZM41.7697 175.208L40.9627 175.41L41.0273 186.736H41.8342L41.7697 175.208ZM127.06 19.0851L126.253 20.2688L131.959 22.6797L132.515 21.6475L127.06 19.0851ZM42.0118 170.827H42.9156C42.8268 169.383 42.7381 167.896 42.6009 165.514C42.3346 167.896 42.1732 169.361 42.0118 170.827ZM121.637 212.05L122.501 211.328L120.475 208.21L119.668 208.614L121.637 212.05Z" fill="#9D6132"/>
<path d="M140.851 145.707C141.311 142.668 138.963 143.419 136.607 143.542C136.857 142.293 137.091 141.138 137.414 139.673C141.085 140.987 142.312 142.784 140.884 145.729L140.851 145.707Z" fill="#9D6132"/>
<path d="M121.637 212.05L119.684 208.6L120.491 208.196L122.517 211.314L121.637 212.05Z" fill="#9D6132"/>
<path d="M163.818 153.777C168.289 151.807 171.13 153.986 173.365 155.719C178.457 159.646 182.912 164.222 187.85 168.329C197.704 176.522 201.279 187.739 206.33 198.278C211.57 209.196 216.894 220.082 222.301 230.933C223.172 232.694 224.649 234.196 225.73 235.877C226.537 237.133 227.143 238.49 227.966 240.05C226.901 240.05 226.416 240.194 226.158 240.05C211.164 230.983 200.673 219.117 196.3 203.071C194.185 195.333 191.07 187.811 188.633 180.138C186.963 174.862 183.541 170.617 179.288 166.929C175.035 163.24 170.129 159.711 165.57 156.101C164.932 155.632 164.625 154.903 163.818 153.777ZM198.349 188.851C204.039 211.588 210.244 224.545 216.765 228.998C210.616 215.621 204.464 202.233 198.309 188.836L198.349 188.851Z" fill="#9D6132"/>
<path d="M198.575 54.7214C205.644 60.3444 213.424 65.1229 217.677 72.8897C223.923 84.2873 230.419 95.5983 235.906 107.292C238.029 111.818 240.006 116.127 243.637 119.823C244.307 120.501 244.162 121.808 244.638 123.901C242.62 122.667 241.483 122.19 240.676 121.432C236.939 117.931 233.631 114.005 229.547 110.879C223.446 106.216 220.21 100.261 217.636 93.7143C214.755 86.3661 211.899 78.9458 208.106 71.9658C205.782 67.6926 201.747 64.1557 198.422 60.3516C197.026 58.7925 195.202 57.4211 198.575 54.7214ZM233.752 109.089L216.216 76.5421L214.441 77.2062C217.854 85.2978 221.106 93.4472 224.778 101.445C225.539 103.239 226.74 104.856 228.293 106.179C229.847 107.502 231.712 108.497 233.752 109.089Z" fill="#9D6132"/>
<path d="M97.7906 26.1156C100.639 31.3777 98.5492 37.7875 102.77 43.0279C102.77 40.6964 102.77 38.3721 102.721 36.0407C102.673 33.3049 102.947 30.5115 102.399 27.8552C101.922 25.5092 100.51 23.3149 99.5095 21.0556L100.639 20.1605C101.842 20.6153 103.464 20.7741 104.174 21.6042C109.234 27.2705 113.293 33.3266 113.745 40.913C114.31 50.2389 115.746 59.5576 115.73 68.8764C115.73 73.626 116.601 78.0868 117.408 82.656C117.562 83.5077 117.183 84.4317 116.973 85.8681C110.452 82.9808 112.712 76.6288 109.161 72.7453C105.852 69.1362 104.594 64.0113 102.358 59.3844C99.1948 63.4194 103.27 67.4977 102.657 71.4244C102.185 71.5595 101.698 71.6444 101.204 71.6771C98.5411 66.8192 95.5068 62.0768 93.441 57.0241C90.5842 50.0512 91.6252 42.9341 94.022 35.9396C94.3863 34.4531 94.6557 32.9493 94.829 31.4354C95.2002 29.6597 95.636 27.9057 96.0798 26.1372L97.7906 26.1156ZM109 39.5343L107.515 39.6065C106.571 48.6942 105.36 57.7964 110.84 67.6421C110.17 57.4499 109.589 48.4921 109 39.5343ZM96.7577 56.858H97.2822V51.4371H96.7577V56.858ZM101.503 49.7264L100.631 49.9358L100.962 53.5449H101.519L101.503 49.7264Z" fill="#9D6132"/>
<path d="M138.624 93.9597C136.736 92.5161 135.913 92.1263 135.542 91.5344C129.239 81.5372 123.687 71.3667 122.84 59.5504C122.412 53.581 121.565 47.4382 119.418 41.8225C116.924 35.3261 114.205 28.5698 108.499 23.416C107.789 22.7735 107.386 21.8496 106.304 20.2688C108.37 20.608 109.815 20.4637 110.557 21.0484C112.573 22.5093 114.357 24.2092 115.859 26.1011C127.464 41.9812 134.718 59.305 136.405 78.2962C136.712 81.8403 135.881 85.5144 138.495 88.7698C139.181 89.6721 138.608 91.3323 138.624 93.9597ZM131.668 77.6177C131.248 68.4144 130.78 59.1534 125.801 50.737C126.011 59.9763 126.326 69.194 131.668 77.6177Z" fill="#9D6132"/>
<path d="M67.6981 108.071C67.6981 110.554 67.9967 111.832 67.6981 112.951C67.1978 114.64 66.1487 116.192 65.5354 117.859C63.1628 124.356 61.2987 130.599 62.2429 137.796C63.3 145.779 63.7681 154.059 59.7331 161.992C58.0142 165.384 58.4742 169.643 57.7964 173.49C57.1992 176.912 56.0775 180.145 51.9618 183.054C51.8489 181.207 51.5422 180.29 51.7843 179.517C53.713 173.238 53.8502 166.9 53.6888 160.404C53.4225 149.324 53.1804 138.121 56.602 127.33C58.3048 121.938 61.2018 116.834 63.76 111.673C64.2603 110.598 65.6645 109.869 67.6981 108.071Z" fill="#9D6132"/>
</g>
<defs>
<clipPath id="clip0_68_445">
<rect width="304" height="271.875" fill="white"/>
</clipPath>
</defs>
</svg>
