<svg width="57" height="57" viewBox="0 0 57 57" fill="none" xmlns="http://www.w3.org/2000/svg">
<path d="M33.7546 29.12C33.7079 30.1408 33.3754 31.1267 32.7892 31.9637C32.2011 32.8282 31.3548 33.4846 30.3712 33.8392C29.3975 34.2354 28.326 34.325 27.3 34.0958C26.2691 33.8766 25.328 33.3522 24.5992 32.5908C23.8778 31.7944 23.4035 30.8053 23.2342 29.7442C23.045 28.7161 23.1742 27.6547 23.6046 26.7021C24.0246 25.7483 24.7129 24.9346 25.5937 24.3687C26.4892 23.8146 27.5246 23.52 28.5804 23.5171C29.9717 23.5929 31.2812 24.1937 32.2496 25.1942C32.7504 25.7145 33.1417 26.3301 33.4002 27.0045C33.6587 27.6788 33.7792 28.3982 33.7546 29.12Z" fill="#5E6E6E"/>
<path d="M43.7937 16.7767C43.4622 15.9568 42.9691 15.212 42.3438 14.5866C41.7184 13.9613 40.9736 13.4682 40.1538 13.1367C39.3278 12.8167 38.4522 12.644 37.5667 12.6262H19.5942C17.8164 12.6332 16.1133 13.3425 14.8562 14.5996C13.5991 15.8567 12.8898 17.5597 12.8829 19.3375V37.6512C12.8855 38.5347 13.0625 39.409 13.4039 40.2238C13.7452 41.0387 14.2442 41.7781 14.8721 42.3996C16.1288 43.6464 17.824 44.3511 19.5942 44.3625H37.5667C38.8905 44.354 40.1827 43.9573 41.2834 43.2217C42.384 42.486 43.2446 41.4437 43.7588 40.2238C44.0995 39.4088 44.2759 38.5346 44.2779 37.6512V19.3637C44.2686 18.4798 44.1047 17.6042 43.7937 16.7767ZM36.6858 32.6462C36.2592 33.7118 35.6201 34.6793 34.8075 35.49C33.9908 36.3154 33.0254 36.9775 31.9637 37.4529C30.8137 37.9353 29.5769 38.1769 28.3299 38.1629C27.0828 38.1488 25.8518 37.8794 24.7129 37.3712C22.8809 36.5466 21.3783 35.1316 20.4451 33.3524C19.5119 31.5733 19.202 29.5326 19.565 27.5567C19.9125 25.812 20.7515 24.203 21.9829 22.9192C23.237 21.6622 24.8324 20.801 26.5713 20.4422C28.3103 20.0834 30.1163 20.2429 31.7654 20.9008C33.4192 21.5717 34.8279 22.7325 35.8021 24.2288C36.7865 25.6715 37.3214 27.3735 37.3392 29.12C37.38 30.3304 37.1554 31.5321 36.6858 32.6462ZM39.8125 18.5967C39.8399 18.824 39.8188 19.0545 39.7506 19.2731C39.6824 19.4916 39.5686 19.6932 39.4167 19.8645C39.2648 20.0358 39.0783 20.173 38.8695 20.2669C38.6607 20.3608 38.4344 20.4094 38.2054 20.4094C37.9765 20.4094 37.7501 20.3608 37.5413 20.2669C37.3325 20.173 37.146 20.0358 36.9941 19.8645C36.8423 19.6932 36.7284 19.4916 36.6602 19.2731C36.592 19.0545 36.5709 18.824 36.5983 18.5967C36.5642 18.3657 36.5802 18.1302 36.6452 17.906C36.7103 17.6818 36.8229 17.4742 36.9755 17.2975C37.128 17.1208 37.3168 16.979 37.529 16.8818C37.7413 16.7846 37.972 16.7343 38.2054 16.7343C38.4389 16.7343 38.6696 16.7846 38.8818 16.8818C39.0941 16.979 39.2829 17.1208 39.4354 17.2975C39.5879 17.4742 39.7005 17.6818 39.7656 17.906C39.8307 18.1302 39.8467 18.3657 39.8125 18.5967Z" fill="#5E6E6E"/>
<path d="M42.6562 0H14.2188C10.4477 0 6.83111 1.49804 4.16458 4.16458C1.49804 6.83111 0 10.4477 0 14.2188V42.6562C0 44.5235 0.367779 46.3724 1.08234 48.0975C1.7969 49.8226 2.84424 51.3901 4.16458 52.7104C6.83111 55.377 10.4477 56.875 14.2188 56.875H42.6562C44.5235 56.875 46.3724 56.5072 48.0975 55.7927C49.8226 55.0781 51.3901 54.0308 52.7104 52.7104C54.0308 51.3901 55.0781 49.8226 55.7927 48.0975C56.5072 46.3724 56.875 44.5235 56.875 42.6562V14.2188C56.875 12.3515 56.5072 10.5026 55.7927 8.77747C55.0781 7.05237 54.0308 5.48491 52.7104 4.16458C51.3901 2.84424 49.8226 1.7969 48.0975 1.08234C46.3724 0.367779 44.5235 0 42.6562 0ZM48.685 37.3683C48.7142 38.8558 48.4313 40.3404 47.8596 41.7171C46.7058 44.48 44.5092 46.6766 41.7463 47.8304C40.3667 48.4021 38.8879 48.6821 37.3946 48.6558H19.9062C18.4151 48.6772 16.935 48.3975 15.5546 47.8333C14.1871 47.2583 12.9418 46.4278 11.8854 45.3863C10.8392 44.3343 10.0089 43.0878 9.44125 41.7171C8.83918 40.3454 8.52927 38.8634 8.53125 37.3654V19.74C8.51079 18.2487 8.79153 16.7686 9.35667 15.3883C10.4847 12.6138 12.6615 10.3961 15.4146 9.21667C16.8447 8.66063 18.3726 8.39971 19.9062 8.44958H37.5375C39.0157 8.43602 40.4817 8.71831 41.8491 9.27982C43.2166 9.84133 44.4579 10.6707 45.5 11.7192C46.5413 12.775 47.3696 14.0233 47.9442 15.3883C48.5129 16.7679 48.7958 18.2467 48.7696 19.74L48.685 37.3683Z" fill="#5E6E6E"/>
</svg>
