<svg width="318" height="508" viewBox="0 0 318 508" fill="none" xmlns="http://www.w3.org/2000/svg">
<g clip-path="url(#clip0_84_5)">
<g clip-path="url(#clip1_84_5)">
<path d="M0.420212 331.73C10.9302 323.89 21.8102 316.49 31.8802 308.12C56.8802 287.37 74.6801 261.45 84.5701 230.44C86.9901 222.85 87.6703 214.7 89.0303 206.79C90.3903 198.88 91.5901 190.98 92.8201 183.36C111.59 179.36 122.88 166.7 131.76 151.46C139.76 137.74 140.38 122.68 137.52 107.46C134.6 91.88 131.18 76.41 128.13 60.86C125.64 48.22 125.99 35.46 126.83 22.68C126.95 20.83 125.95 18.91 125.46 17.02C124.05 18.34 122.2 19.4 121.29 21.02C109.117 42.46 97.0368 63.9533 85.0501 85.5C77.2301 99.61 69.9902 113.98 67.1402 130.12C64.5302 144.9 65.5402 159.12 72.1402 172.91C75.5902 180.11 79.1402 187.59 80.6302 195.33C83.7702 211.57 79.0302 226.95 72.8902 242.59C72.2502 241.37 71.8203 240.72 71.5403 240.01C69.1503 233.76 64.5402 229.3 59.6202 225.07C56.3659 222.213 53.2585 219.192 50.3101 216.02C48.6201 214.27 48.5203 212.63 50.7603 210.78C56.3303 206.2 55.8803 199.83 55.0403 193.6C53.6903 183.53 50.0402 174.2 45.1902 165.33C39.4902 154.83 34.6002 144.04 32.1902 132.26C32.1247 131.642 31.9194 131.047 31.5901 130.52C30.4601 129.18 29.0703 126.82 28.0203 126.95C27.1284 127.168 26.3008 127.594 25.6055 128.194C24.9102 128.794 24.367 129.55 24.0203 130.4C21.4303 139.57 19.0203 148.81 17.0203 158.11C14.3803 169.95 13.5903 181.9 16.2503 193.88C19.1203 206.83 25.4101 212.81 38.3401 215.14C39.4013 215.346 40.3906 215.825 41.2102 216.53C46.8902 221.63 52.3802 226.96 58.2102 231.93C62.3302 235.46 65.9302 239.25 67.8802 244.4C68.5706 246.048 68.879 247.83 68.782 249.614C68.685 251.398 68.1851 253.137 67.3201 254.7C55.2601 278.43 37.9302 297.84 18.1502 315.25C12.4902 320.25 6.4401 324.78 0.560104 329.53L0.420212 331.73ZM93.1001 178.73C92.9701 167.73 93.5703 157.6 96.0303 147.73C100.43 129.95 105.03 112.22 109.25 94.4C110.76 88.03 111.39 81.4 112.42 75.02C106.18 94.27 100.24 113.54 93.6802 132.59C88.1402 148.67 85.5202 164.96 87.4002 181.91C87.4722 183.336 87.4722 184.764 87.4002 186.19C84.0402 179.19 81.0002 172.89 77.9402 166.57C74.3294 159.2 72.4678 151.097 72.5003 142.89C72.5003 127.5 77.1002 113.32 84.1402 99.89C96.0602 77.19 108.31 54.67 120.44 32.08C120.61 31.76 121 31.56 121.59 31.08C120.368 43.3354 120.863 55.7015 123.06 67.82C125.91 83.4 129.39 98.89 131.65 114.56C135.41 140.72 121.78 162.21 102.15 174.76C99.5802 176.37 96.4202 177.26 93.1202 178.72L93.1001 178.73ZM37.6802 211.73C29.3002 209.45 24.3803 204.16 21.9703 196.41C19.6133 188.929 18.9841 181.01 20.1302 173.25C21.9102 161.39 24.3002 149.62 26.4602 137.82C26.6076 137.281 26.8441 136.771 27.1602 136.31C29.8302 143.31 32.3101 150.57 35.3401 157.58C37.5501 162.68 40.6101 167.39 43.0501 172.4C47.5201 181.58 50.9202 191.11 51.1302 201.49C51.2448 203.236 50.853 204.979 50.0015 206.508C49.15 208.037 47.8751 209.288 46.3301 210.11C39.0301 196.23 36.8402 181.11 33.1402 166.31C30.5202 181.67 32.1802 196.61 37.7002 211.69L37.6802 211.73Z" fill="#223925"/>
</g>
<path d="M-0.0299683 507.14C15.97 496.83 25.5499 482.96 24.1199 463.14C23.6199 456.14 23.2599 449.01 22.1199 442.05C20.1199 429.45 22.95 417.39 25.45 405.26C34.02 363.71 57.3901 332.62 92.7801 309.98C111.7 297.87 132.14 288.78 152.35 279.18C175.93 267.96 199.51 256.66 222.5 244.31C242.89 233.398 259.504 216.575 270.16 196.05C272.16 192.34 276.16 189.76 279.22 186.57C283.57 181.98 288.22 177.57 292.07 172.63C303.3 158.18 311.79 142.31 315.07 124.09C317.63 109.94 317.44 95.74 315.64 81.5C312.98 60.5 309.51 39.5 310.03 18.23C310.14 13.65 310.62 9.07 310.56 4.49C310.56 2.98 309.68 0.740005 308.56 0.190005C307.44 -0.359995 305.08 0.470001 304.08 1.49C282.96 23.02 263.76 45.79 253.3 74.84C241.98 106.27 244.42 136.6 258.65 166.4C261 171.31 263.01 176.4 265.47 181.24C267.17 184.59 266.66 187.59 265.14 190.7C256.21 208.88 243.21 223.7 225.96 233.95C208.22 244.5 189.66 253.7 171.23 263.03C157.65 269.9 143.69 276.03 129.9 282.5C129.16 282.85 128.38 283.1 127.09 283.61C127.326 283.01 127.599 282.425 127.91 281.86C140.59 263.72 149.65 243.86 156.28 222.81C157.08 220.26 158.21 219.43 160.92 219.33C179.61 218.63 190.01 210.27 194.41 192.58C195.206 189.205 195.804 185.785 196.2 182.34C198.85 161.46 200.61 140.43 206.61 120.12C207.35 117.62 208.44 115.22 208.95 112.69C209.066 112.061 209.036 111.414 208.863 110.799C208.69 110.183 208.377 109.616 207.95 109.14C207.374 108.867 206.742 108.736 206.106 108.757C205.469 108.777 204.847 108.95 204.29 109.26C200.52 111.85 196.83 114.59 193.29 117.54C181.52 127.46 170.02 137.69 160.99 150.3C152.51 162.16 146.17 174.93 145.72 189.92C145.47 198.37 147.61 206.34 150.65 214.15C151.285 215.575 151.459 217.161 151.15 218.69C143.75 242.05 134.34 264.51 120.21 284.69C118.526 287.086 116.32 289.069 113.76 290.49C98.4401 298.73 83.7602 307.91 70.3402 319.03C43.9702 340.92 27.9001 368.98 20.7901 402.39C18.9401 411.09 16.2501 419.64 14.7901 428.39C13.7901 434.56 14.3801 440.99 14.0001 447.29C13.4001 457.15 13.08 467.07 11.7 476.84C10.59 484.64 5.60992 490.7 -0.140076 495.96L-0.0299683 507.14ZM271.41 176.44L270.36 176.23C268.273 171.75 266.183 167.27 264.09 162.79C250.94 134.7 248.81 106.03 259.09 76.5C268.36 49.73 285.02 27.93 304.26 7.78C304.52 7.51 305.01 7.46001 304.79 7.55001C304.79 15.82 304.26 24.15 304.9 32.39C306.25 49.8 308.02 67.18 309.98 84.53C311.689 98.3305 311.224 112.314 308.6 125.97C304.6 145.83 293.83 162.3 282.07 178.22C280.86 179.86 278.62 180.73 276.86 181.96C288.52 144.02 286.59 105.27 288.03 65.75C286.92 66.95 286.51 67.18 286.48 67.46C285.72 74.1 284.96 80.74 284.29 87.39C282.29 107.48 280.72 127.63 278.14 147.64C276.86 157.37 273.72 166.85 271.43 176.44H271.41ZM201.62 117.44C201.32 118.84 201.24 119.44 201.06 119.99C195.82 136.47 193.24 153.47 191.06 170.56C189.92 179.39 188.81 188.29 186.58 196.87C183.65 208.1 174.7 215.8 158.58 216.47C164.58 196.4 169.96 176.14 180.82 157.85L179.04 157.1C166.57 172.19 160.94 190.69 154.04 208.84C152.91 201.35 151.75 193.84 152.22 186.51C152.92 175.39 157.91 165.58 164.07 156.43C174.09 141.52 187.47 129.88 201.64 117.4L201.62 117.44Z" fill="#223925"/>
<g clip-path="url(#clip2_84_5)">
<path d="M35.2801 549C38.4401 550 40.3501 548.74 42.2801 546.28C60.4401 523.12 66.9902 497.06 62.3602 468.07C61.7602 464.31 61.5001 460.49 61.0401 456.37C73.1101 455.1 79.0401 446.76 82.5101 436.96C86.7801 424.87 89.8802 412.35 93.0802 399.91C96.4596 386.562 102.028 373.867 109.56 362.34C110.91 360.27 113.56 357.77 111.03 355.56C109.77 354.48 106.33 355.03 104.32 355.88C88.4202 362.59 72.7801 369.94 59.7901 381.56C47.4601 392.56 39.8602 406.16 40.6502 423.32C41.0566 433.051 44.4037 442.43 50.2501 450.22C52.6365 453.185 54.0663 456.805 54.3502 460.6C54.9202 468.75 56.4502 476.83 56.8602 484.98C57.9702 507.61 50.1601 527.49 37.2501 545.65C36.6001 546.56 35.9802 547.49 35.3602 548.41C35.3502 548.5 35.3501 548.64 35.2801 549ZM53.3502 446.8C49.0902 436.41 45.3502 426.74 46.8202 416.01C48.7302 402.44 55.7401 391.75 66.3001 383.33C77.2001 374.64 89.3801 368.03 102.02 362.23C102.562 362.082 103.119 361.994 103.68 361.97C96.8003 372.32 91.5902 382.97 88.6202 394.59C86.4402 403.09 85.3402 411.89 82.8602 420.29C80.4771 428.326 77.4678 436.164 73.8602 443.73C71.4802 448.73 67.0303 452.09 60.4303 452.52C61.4551 431.958 66.5538 411.805 75.4303 393.23C63.2503 408.75 57.1902 426.81 53.3502 446.8Z" fill="#223925"/>
</g>
<g clip-path="url(#clip3_84_5)">
<path d="M100.93 513C102.93 512.23 105.36 512 106.87 510.63C117.277 501.457 127.56 492.143 137.72 482.69C139.911 480.515 142.795 479.177 145.87 478.91C153.054 478.301 160.285 479.218 167.09 481.6C179.09 485.51 191.27 487.96 203.97 487.21C213.157 486.802 222.133 484.327 230.23 479.97C239.89 492.23 255.71 493.81 267.55 483.38C272.416 478.963 276.998 474.243 281.27 469.25C290.524 458.703 301.188 449.483 312.96 441.85C313.912 441.273 314.821 440.628 315.68 439.92C317.73 438.14 317.63 436.34 315.09 435.38C312.081 434.239 308.98 433.359 305.82 432.75C289.94 429.75 274.1 428.68 258.53 434.49C247.37 438.67 238.06 445.34 232.41 455.97C229.99 460.54 228.88 465.9 227.79 471.03C227.34 473.13 226.79 474.29 224.87 475.1C213.713 479.731 201.568 481.471 189.56 480.16C182.68 479.48 175.85 478.16 169.01 477.05C160.78 475.68 152.57 474.79 144.01 476.84C174.96 445.49 190.8 405.93 205.4 365.27C206.9 366.46 207.85 367.21 208.79 367.98C223.25 379.66 243.1 378.44 255.89 364.98C264.44 355.98 269.62 344.98 273 333.2C275.39 324.87 277.48 316.45 279.59 308.05C283.68 291.72 289.41 276.1 298.59 261.87C299.91 259.87 302.33 257.3 299.79 254.87C297.45 252.67 295.22 255.16 293.16 256.33C278.5 264.62 263.98 273.17 249.16 281.19C234.34 289.21 220.04 297.82 208.44 310.14C203.682 315.367 199.489 321.082 195.93 327.19C189.7 337.47 190.68 348.07 196.38 358.29C197.69 360.63 197.6 362.35 196.62 364.75C190.38 380.11 184.7 395.75 178.16 410.94C161.38 450.05 134.16 481.32 103.04 509.52L100.38 511.94L100.93 513ZM201.14 354.28C198.48 347.49 198.02 339.85 200.94 333.62C203.314 328.201 206.333 323.087 209.93 318.39C219.56 306.49 231.87 297.71 245.06 290.11C260.18 281.39 275.297 272.657 290.41 263.91C290.79 263.7 291.2 263.55 292.24 263.09C291.64 264.33 291.38 264.98 291.03 265.57C284.768 276.277 279.982 287.781 276.8 299.77C273.49 311.7 270.64 323.77 267.11 335.62C263.96 346.19 258.84 355.81 250.76 363.55C245.585 368.356 238.923 371.25 231.878 371.754C224.833 372.258 217.827 370.341 212.02 366.32C206.79 362.63 206.69 362.19 210.19 356.69C211.19 355.13 212.19 353.58 213.36 352.11C227.44 333.82 242 315.96 259.97 301.23C260.951 300.331 261.876 299.372 262.74 298.36L261.61 297.26C236.45 310.71 219.13 332.68 201.12 354.28H201.14ZM232.14 471.1C236.35 454.48 246.41 443.83 261.91 438.1C273.96 433.62 286.44 433.59 298.98 434.72C304.1 435.19 309.18 436.22 314.5 437.03C314.07 437.88 314.01 438.18 313.84 438.29C313.022 438.845 312.17 439.349 311.29 439.8C299.61 445.623 289.067 453.49 280.16 463.03C275.39 468.08 270.64 473.13 265.85 478.16C259.23 485.11 251.04 486.74 241.97 485C238.15 484.26 234.56 482.91 232.78 478.79C233.13 478.438 233.497 478.104 233.88 477.79C243.35 471.02 252.88 464.28 262.31 457.48C268.86 452.76 275.49 448.23 283.49 446.25C283.76 446.18 283.89 445.53 284.37 444.57C264.69 449.45 250.32 463.42 232.13 471.1H232.14Z" fill="#223925"/>
</g>
</g>
<defs>
<clipPath id="clip0_84_5">
<rect width="317.1" height="507.14" fill="white" transform="matrix(-1 0 0 1 317.1 0)"/>
</clipPath>
<clipPath id="clip1_84_5">
<rect width="138.65" height="314.73" fill="white" transform="matrix(-1 0 0 1 139.1 17)"/>
</clipPath>
<clipPath id="clip2_84_5">
<rect width="76.81" height="194.36" fill="white" transform="matrix(-1 0 0 1 112.1 355)"/>
</clipPath>
<clipPath id="clip3_84_5">
<rect width="216.69" height="259" fill="white" transform="matrix(-1 0 0 1 317.1 254)"/>
</clipPath>
</defs>
</svg>
