<svg width="318" height="508" viewBox="0 0 318 508" fill="none" xmlns="http://www.w3.org/2000/svg">
<g clip-path="url(#clip0_68_538)">
<g clip-path="url(#clip1_68_538)">
<path d="M316.68 331.73C306.17 323.89 295.29 316.49 285.22 308.12C260.22 287.37 242.42 261.45 232.53 230.44C230.11 222.85 229.43 214.7 228.07 206.79C226.71 198.88 225.51 190.98 224.28 183.36C205.51 179.36 194.22 166.7 185.34 151.46C177.34 137.74 176.72 122.68 179.58 107.46C182.5 91.88 185.92 76.41 188.97 60.86C191.46 48.22 191.11 35.46 190.27 22.68C190.15 20.83 191.15 18.91 191.64 17.02C193.05 18.34 194.9 19.4 195.81 21.02C207.983 42.46 220.063 63.9533 232.05 85.5C239.87 99.61 247.11 113.98 249.96 130.12C252.57 144.9 251.56 159.12 244.96 172.91C241.51 180.11 237.96 187.59 236.47 195.33C233.33 211.57 238.07 226.95 244.21 242.59C244.85 241.37 245.28 240.72 245.56 240.01C247.95 233.76 252.56 229.3 257.48 225.07C260.734 222.213 263.842 219.192 266.79 216.02C268.48 214.27 268.58 212.63 266.34 210.78C260.77 206.2 261.22 199.83 262.06 193.6C263.41 183.53 267.06 174.2 271.91 165.33C277.61 154.83 282.5 144.04 284.91 132.26C284.975 131.642 285.181 131.047 285.51 130.52C286.64 129.18 288.03 126.82 289.08 126.95C289.972 127.168 290.799 127.594 291.495 128.194C292.19 128.794 292.733 129.55 293.08 130.4C295.67 139.57 298.08 148.81 300.08 158.11C302.72 169.95 303.51 181.9 300.85 193.88C297.98 206.83 291.69 212.81 278.76 215.14C277.699 215.346 276.709 215.825 275.89 216.53C270.21 221.63 264.72 226.96 258.89 231.93C254.77 235.46 251.17 239.25 249.22 244.4C248.529 246.048 248.221 247.83 248.318 249.614C248.415 251.398 248.915 253.137 249.78 254.7C261.84 278.43 279.17 297.84 298.95 315.25C304.61 320.25 310.66 324.78 316.54 329.53L316.68 331.73ZM224 178.73C224.13 167.73 223.53 157.6 221.07 147.73C216.67 129.95 212.07 112.22 207.85 94.4C206.34 88.03 205.71 81.4 204.68 75.02C210.92 94.27 216.86 113.54 223.42 132.59C228.96 148.67 231.58 164.96 229.7 181.91C229.628 183.336 229.628 184.764 229.7 186.19C233.06 179.19 236.1 172.89 239.16 166.57C242.771 159.2 244.632 151.097 244.6 142.89C244.6 127.5 240 113.32 232.96 99.89C221.04 77.19 208.79 54.67 196.66 32.08C196.49 31.76 196.1 31.56 195.51 31.08C196.732 43.3354 196.237 55.7015 194.04 67.82C191.19 83.4 187.71 98.89 185.45 114.56C181.69 140.72 195.32 162.21 214.95 174.76C217.52 176.37 220.68 177.26 223.98 178.72L224 178.73ZM279.42 211.73C287.8 209.45 292.72 204.16 295.13 196.41C297.487 188.928 298.116 181.01 296.97 173.25C295.19 161.39 292.8 149.62 290.64 137.82C290.493 137.281 290.256 136.771 289.94 136.31C287.27 143.31 284.79 150.57 281.76 157.58C279.55 162.68 276.49 167.39 274.05 172.4C269.58 181.58 266.18 191.11 265.97 201.49C265.855 203.236 266.247 204.979 267.099 206.508C267.95 208.037 269.225 209.288 270.77 210.11C278.07 196.23 280.26 181.11 283.96 166.31C286.58 181.67 284.92 196.61 279.4 211.69L279.42 211.73Z" fill="#223925"/>
</g>
<path d="M317.13 507.14C301.13 496.83 291.55 482.96 292.98 463.14C293.48 456.14 293.84 449.01 294.98 442.05C296.98 429.45 294.15 417.39 291.65 405.26C283.08 363.71 259.71 332.62 224.32 309.98C205.4 297.87 184.96 288.78 164.75 279.18C141.17 267.96 117.59 256.66 94.6 244.31C74.21 233.398 57.5963 216.575 46.9401 196.05C44.9401 192.34 40.9401 189.76 37.8801 186.57C33.5301 181.98 28.88 177.57 25.03 172.63C13.8 158.18 5.30996 142.31 2.02996 124.09C-0.530043 109.94 -0.339867 95.74 1.46013 81.5C4.12013 60.5 7.59 39.5 7.07 18.23C6.96 13.65 6.47997 9.07 6.53997 4.49C6.53997 2.98 7.41997 0.740005 8.53997 0.190005C9.65997 -0.359995 12.0199 0.470001 13.0199 1.49C34.1399 23.02 53.34 45.79 63.8 74.84C75.12 106.27 72.6801 136.6 58.4501 166.4C56.1001 171.31 54.0901 176.4 51.6301 181.24C49.9301 184.59 50.4401 187.59 51.9601 190.7C60.8901 208.88 73.8901 223.7 91.1401 233.95C108.88 244.5 127.44 253.7 145.87 263.03C159.45 269.9 173.41 276.03 187.2 282.5C187.94 282.85 188.72 283.1 190.01 283.61C189.775 283.01 189.501 282.425 189.19 281.86C176.51 263.72 167.45 243.86 160.82 222.81C160.02 220.26 158.89 219.43 156.18 219.33C137.49 218.63 127.09 210.27 122.69 192.58C121.894 189.205 121.296 185.785 120.9 182.34C118.25 161.46 116.49 140.43 110.49 120.12C109.75 117.62 108.66 115.22 108.15 112.69C108.034 112.061 108.064 111.414 108.237 110.799C108.411 110.183 108.723 109.616 109.15 109.14C109.726 108.867 110.358 108.736 110.995 108.757C111.631 108.777 112.254 108.95 112.81 109.26C116.58 111.85 120.27 114.59 123.81 117.54C135.58 127.46 147.08 137.69 156.11 150.3C164.59 162.16 170.93 174.93 171.38 189.92C171.63 198.37 169.49 206.34 166.45 214.15C165.815 215.575 165.641 217.161 165.95 218.69C173.35 242.05 182.76 264.51 196.89 284.69C198.574 287.086 200.78 289.069 203.34 290.49C218.66 298.73 233.34 307.91 246.76 319.03C273.13 340.92 289.2 368.98 296.31 402.39C298.16 411.09 300.85 419.64 302.31 428.39C303.31 434.56 302.72 440.99 303.1 447.29C303.7 457.15 304.02 467.07 305.4 476.84C306.51 484.64 311.49 490.7 317.24 495.96L317.13 507.14ZM45.6901 176.44L46.7402 176.23C48.8268 171.75 50.9166 167.27 53.0099 162.79C66.1599 134.7 68.2899 106.03 58.0099 76.5C48.7399 49.73 32.08 27.93 12.84 7.78C12.58 7.51 12.09 7.46001 12.31 7.55001C12.31 15.82 12.8401 24.15 12.2001 32.39C10.8501 49.8 9.08004 67.18 7.12004 84.53C5.41081 98.3305 5.8766 112.314 8.50017 125.97C12.5002 145.83 23.27 162.3 35.03 178.22C36.24 179.86 38.4802 180.73 40.2402 181.96C28.5802 144.02 30.51 105.27 29.07 65.75C30.18 66.95 30.59 67.18 30.62 67.46C31.38 74.1 32.14 80.74 32.81 87.39C34.81 107.48 36.3801 127.63 38.9601 147.64C40.2401 157.37 43.3801 166.85 45.6701 176.44H45.6901ZM115.48 117.44C115.78 118.84 115.86 119.44 116.04 119.99C121.28 136.47 123.86 153.47 126.04 170.56C127.18 179.39 128.29 188.29 130.52 196.87C133.45 208.1 142.4 215.8 158.52 216.47C152.52 196.4 147.14 176.14 136.28 157.85L138.06 157.1C150.53 172.19 156.16 190.69 163.06 208.84C164.19 201.35 165.35 193.84 164.88 186.51C164.18 175.39 159.19 165.58 153.03 156.43C143.01 141.52 129.63 129.88 115.46 117.4L115.48 117.44Z" fill="#223925"/>
<g clip-path="url(#clip2_68_538)">
<path d="M281.82 549C278.66 550 276.75 548.74 274.82 546.28C256.66 523.12 250.11 497.06 254.74 468.07C255.34 464.31 255.6 460.49 256.06 456.37C243.99 455.1 238.06 446.76 234.59 436.96C230.32 424.87 227.22 412.35 224.02 399.91C220.641 386.562 215.072 373.867 207.54 362.34C206.19 360.27 203.54 357.77 206.07 355.56C207.33 354.48 210.77 355.03 212.78 355.88C228.68 362.59 244.32 369.94 257.31 381.56C269.64 392.56 277.24 406.16 276.45 423.32C276.044 433.051 272.696 442.43 266.85 450.22C264.464 453.185 263.034 456.805 262.75 460.6C262.18 468.75 260.65 476.83 260.24 484.98C259.13 507.61 266.94 527.49 279.85 545.65C280.5 546.56 281.12 547.49 281.74 548.41C281.75 548.5 281.75 548.64 281.82 549ZM263.75 446.8C268.01 436.41 271.75 426.74 270.28 416.01C268.37 402.44 261.36 391.75 250.8 383.33C239.9 374.64 227.72 368.03 215.08 362.23C214.538 362.082 213.981 361.994 213.42 361.97C220.3 372.32 225.51 382.97 228.48 394.59C230.66 403.09 231.76 411.89 234.24 420.29C236.623 428.326 239.632 436.164 243.24 443.73C245.62 448.73 250.07 452.09 256.67 452.52C255.645 431.958 250.546 411.805 241.67 393.23C253.85 408.75 259.91 426.81 263.75 446.8Z" fill="#223925"/>
</g>
<g clip-path="url(#clip3_68_538)">
<path d="M216.17 513C214.17 512.23 211.74 512 210.23 510.63C199.823 501.457 189.54 492.143 179.38 482.69C177.189 480.515 174.305 479.177 171.23 478.91C164.046 478.301 156.815 479.218 150.01 481.6C138.01 485.51 125.83 487.96 113.13 487.21C103.943 486.802 94.9674 484.327 86.8698 479.97C77.2098 492.23 61.3897 493.81 49.5497 483.38C44.6843 478.963 40.1019 474.243 35.8298 469.25C26.5762 458.703 15.9125 449.483 4.13981 441.85C3.18763 441.273 2.2786 440.628 1.41984 439.92C-0.630163 438.14 -0.530075 436.34 2.00993 435.38C5.01862 434.239 8.12012 433.359 11.2799 432.75C27.1599 429.75 42.9997 428.68 58.5697 434.49C69.7297 438.67 79.0399 445.34 84.6899 455.97C87.1099 460.54 88.2197 465.9 89.3097 471.03C89.7597 473.13 90.3099 474.29 92.2299 475.1C103.387 479.731 115.532 481.471 127.54 480.16C134.42 479.48 141.25 478.16 148.09 477.05C156.32 475.68 164.53 474.79 173.09 476.84C142.14 445.49 126.3 405.93 111.7 365.27C110.2 366.46 109.25 367.21 108.31 367.98C93.8497 379.66 73.9999 378.44 61.2099 364.98C52.6599 355.98 47.4798 344.98 44.0998 333.2C41.7098 324.87 39.6199 316.45 37.5099 308.05C33.4199 291.72 27.6899 276.1 18.5099 261.87C17.1899 259.87 14.7697 257.3 17.3097 254.87C19.6497 252.67 21.8799 255.16 23.9399 256.33C38.5999 264.62 53.1199 273.17 67.9399 281.19C82.7599 289.21 97.0598 297.82 108.66 310.14C113.418 315.367 117.612 321.082 121.17 327.19C127.4 337.47 126.42 348.07 120.72 358.29C119.41 360.63 119.5 362.35 120.48 364.75C126.72 380.11 132.4 395.75 138.94 410.94C155.72 450.05 182.94 481.32 214.06 509.52L216.72 511.94L216.17 513ZM115.96 354.28C118.62 347.49 119.08 339.85 116.16 333.62C113.786 328.201 110.767 323.087 107.17 318.39C97.5398 306.49 85.23 297.71 72.04 290.11C56.92 281.39 41.8032 272.657 26.6899 263.91C26.3099 263.7 25.8998 263.55 24.8598 263.09C25.4598 264.33 25.7197 264.98 26.0697 265.57C32.3319 276.277 37.1185 287.781 40.2997 299.77C43.6097 311.7 46.4599 323.77 49.9899 335.62C53.1399 346.19 58.2598 355.81 66.3398 363.55C71.5155 368.356 78.1774 371.25 85.2223 371.754C92.2673 372.258 99.2729 370.341 105.08 366.32C110.31 362.63 110.41 362.19 106.91 356.69C105.91 355.13 104.91 353.58 103.74 352.11C89.6599 333.82 75.0998 315.96 57.1298 301.23C56.149 300.331 55.2239 299.372 54.3598 298.36L55.4899 297.26C80.6499 310.71 97.9699 332.68 115.98 354.28H115.96ZM84.9599 471.1C80.7499 454.48 70.6899 443.83 55.1899 438.1C43.1399 433.62 30.6598 433.59 18.1198 434.72C12.9998 435.19 7.91977 436.22 2.59977 437.03C3.02977 437.88 3.08993 438.18 3.25993 438.29C4.07853 438.844 4.92991 439.349 5.80973 439.8C17.4901 445.623 28.0333 453.49 36.9399 463.03C41.7099 468.08 46.4599 473.13 51.2499 478.16C57.8699 485.11 66.0598 486.74 75.1298 485C78.9498 484.26 82.5397 482.91 84.3197 478.79C83.9702 478.438 83.6032 478.104 83.2199 477.79C73.7499 471.02 64.22 464.28 54.79 457.48C48.24 452.76 41.6098 448.23 33.6098 446.25C33.3398 446.18 33.2099 445.53 32.7299 444.57C52.4099 449.45 66.7799 463.42 84.9699 471.1H84.9599Z" fill="#223925"/>
</g>
</g>
<defs>
<clipPath id="clip0_68_538">
<rect width="317.1" height="507.14" fill="white"/>
</clipPath>
<clipPath id="clip1_68_538">
<rect width="138.65" height="314.73" fill="white" transform="translate(178 17)"/>
</clipPath>
<clipPath id="clip2_68_538">
<rect width="76.81" height="194.36" fill="white" transform="translate(205 355)"/>
</clipPath>
<clipPath id="clip3_68_538">
<rect width="216.69" height="259" fill="white" transform="translate(0 254)"/>
</clipPath>
</defs>
</svg>
