<svg width="57" height="57" viewBox="0 0 57 57" fill="none" xmlns="http://www.w3.org/2000/svg">
<path d="M43.9046 0H12.9704C9.53045 0 6.23137 1.36652 3.79895 3.79895C1.36652 6.23137 0 9.53045 0 12.9704V43.9046C0 47.3446 1.36652 50.6436 3.79895 53.0761C6.23137 55.5085 9.53045 56.875 12.9704 56.875H43.9046C47.3446 56.875 50.6436 55.5085 53.0761 53.0761C55.5085 50.6436 56.875 47.3446 56.875 43.9046V12.9704C56.875 9.53045 55.5085 6.23137 53.0761 3.79895C50.6436 1.36652 47.3446 0 43.9046 0ZM19.2296 45.9142C19.2387 46.0729 19.2153 46.2319 19.1608 46.3813C19.1063 46.5306 19.0218 46.6673 18.9125 46.7828C18.8033 46.8984 18.6715 46.9904 18.5254 47.0532C18.3793 47.1159 18.2219 47.1482 18.0629 47.1479H12.8713C12.5582 47.1403 12.2606 47.0101 12.0424 46.7854C11.8243 46.5607 11.703 46.2594 11.7046 45.9463V24.3542C11.7003 24.1983 11.7273 24.0431 11.784 23.8978C11.8407 23.7526 11.926 23.6201 12.0347 23.5084C12.1435 23.3966 12.2736 23.3078 12.4172 23.2472C12.5609 23.1866 12.7153 23.1554 12.8713 23.1554H18.0629C18.2189 23.1554 18.3732 23.1866 18.5169 23.2472C18.6606 23.3078 18.7907 23.3966 18.8994 23.5084C19.0082 23.6201 19.0935 23.7526 19.1502 23.8978C19.2069 24.0431 19.2339 24.1983 19.2296 24.3542V45.9142ZM15.3708 18.6142C14.8087 18.61 14.253 18.4951 13.7353 18.2761C13.2176 18.0571 12.7481 17.7383 12.3537 17.3378C11.9592 16.9374 11.6475 16.4632 11.4362 15.9423C11.225 15.4214 11.1185 14.864 11.1227 14.3019C11.1269 13.7398 11.2418 13.184 11.4608 12.6664C11.6798 12.1487 11.9986 11.6792 12.399 11.2847C12.7995 10.8902 13.2737 10.5785 13.7946 10.3673C14.3155 10.1561 14.8729 10.0495 15.435 10.0538C16.5507 10.09 17.608 10.5609 18.3814 11.3658C19.1547 12.1708 19.5829 13.2461 19.5746 14.3623C19.5662 15.4786 19.1219 16.5473 18.3366 17.3406C17.5512 18.1339 16.4869 18.5888 15.3708 18.6083M46.9204 45.8792C46.919 46.1739 46.8034 46.4565 46.5977 46.6676C46.392 46.8787 46.1125 47.0018 45.8179 47.0108H40.3375C40.0424 47.0018 39.7624 46.8783 39.5567 46.6666C39.351 46.4549 39.2356 46.1715 39.235 45.8763V35.8896C39.235 34.3992 39.69 29.4058 35.28 29.4058C31.8412 29.4058 31.1617 32.9058 31.0304 34.4633V46.1037C31.0306 46.3995 30.9155 46.6836 30.7097 46.896C30.5039 47.1083 30.2235 47.2322 29.9279 47.2413H24.6108C24.3097 47.2405 24.0211 47.1203 23.8084 46.9071C23.5957 46.6938 23.4762 46.4049 23.4762 46.1037V24.2492C23.4853 23.9536 23.6092 23.6732 23.8215 23.4674C24.0339 23.2616 24.318 23.1465 24.6138 23.1467H29.9279C30.2236 23.1465 30.5078 23.2616 30.7201 23.4674C30.9325 23.6732 31.0563 23.9536 31.0654 24.2492V26.1304C31.8413 24.9947 32.9126 24.0924 34.1637 23.5209C35.4147 22.9493 36.7981 22.7302 38.1646 22.8871C47.0167 22.8871 46.9846 31.1558 46.9846 35.8575L46.9204 45.8792Z" fill="#5E6E6E"/>
</svg>
