<svg width="250" height="277" viewBox="0 0 250 277" fill="none" xmlns="http://www.w3.org/2000/svg">
<path d="M249.797 39.664C245.211 38.325 240.649 36.8942 236.03 35.6699C229.818 34.0248 223.401 33.6576 216.996 33.2329C211.402 32.8503 205.833 32.4678 200.207 32.8848C182.168 34.1932 165.506 39.0672 151.005 49.435C138.184 58.6168 128.417 70.1324 121.284 83.6603C113.749 97.9572 109.384 113.057 107.414 128.869C105.881 141.344 106.03 153.949 107.856 166.389C109.977 181.129 114.355 195.323 121.877 208.499C132.553 227.191 147.643 241.615 169.068 249.492C177.982 252.823 187.44 254.704 197.033 255.054C204.691 255.311 212.332 255.919 219.965 256.233C222.533 256.34 225.117 256.019 227.991 255.881C227.5 256.21 227.205 256.439 226.881 256.623C208.588 267.077 188.077 273.684 166.775 275.985C138.667 279.046 111.615 275.239 86.1034 263.808C44.7439 245.249 17.5162 215.144 5.23937 173.768C-8.95391 125.912 6.1812 74.8687 44.6783 39.5263C64.3671 21.4496 87.7291 9.39841 114.67 3.56412C128.258 0.55272 142.248 -0.559911 156.185 0.262497C170.747 1.17685 184.768 4.28336 198.618 8.6103C205.649 10.8063 212.18 13.7636 218.642 16.9505C225.16 20.1942 231.278 24.0956 236.886 28.5846C241.353 32.1387 245.637 35.8956 249.99 39.5607L249.797 39.664ZM218.229 260.694L218.466 260.173C217.864 259.821 217.299 259.305 216.644 259.152C215.406 258.812 214.121 258.647 212.831 258.662C206.906 259.01 200.993 259.515 195.067 259.89C187.664 260.361 180.26 260.946 172.844 261.141C159.187 261.501 145.563 260.996 132.025 259.075C122.332 257.698 112.778 255.858 103.503 252.835C78.6669 244.736 59.7684 230.141 48.0608 207.944C38.5072 189.821 33.9822 170.57 34.1378 150.355C34.191 142.722 35.1329 135.205 37.4138 127.859C39.6906 120.445 43.3761 113.819 49.9936 108.933C52.9953 106.718 56.3123 105.065 60.2066 104.725C65.4318 104.266 69.7316 106.255 73.544 109.316C79.3917 114.022 83.372 120.028 86.5989 126.463C92.3032 137.818 95.2721 149.854 96.6931 162.276C97.7905 171.84 97.9216 181.405 96.0788 190.896C95.1042 195.927 93.6915 200.843 90.6775 205.193C88.0199 209.019 84.535 211.743 79.3344 211.093C76.7992 210.713 74.3529 209.929 72.1026 208.774C67.3688 206.44 63.9945 202.691 61.1812 198.513C55.571 190.313 52.2187 180.944 51.4228 171.24C50.8127 163.871 51.5702 156.702 54.318 149.735C55.4728 146.827 57.2213 144.295 60.1288 142.611C63.0362 140.928 65.5915 141.058 68.2369 142.994C71.2836 145.213 73.1509 148.247 74.4859 151.529C77.6308 159.181 78.9126 167.062 77.9257 175.215C77.5612 178.199 76.8241 181.125 74.8708 183.631C73.4293 185.475 72.078 185.678 70.3212 184.136C66.3941 180.693 64.8381 176.381 65.5383 171.396C65.8741 169.009 66.3901 166.645 66.7668 164.261C66.9688 162.973 66.3969 162.508 65.051 162.865C64.4113 163.05 63.8179 163.353 63.3065 163.756C61.4597 165.203 60.0838 167.005 59.5924 169.212C57.8765 176.932 60.3745 183.486 66.4883 188.723C70.7512 192.381 76.2508 191.685 79.7725 187.369C82.5653 183.953 83.7242 179.947 84.2443 175.781C85.2189 167.976 84.187 160.34 81.6685 152.872C79.9323 147.73 77.4589 142.979 73.069 139.306C68.024 135.098 61.8773 134.78 56.39 138.476C53.4307 140.497 51.1425 143.258 49.7889 146.441C46.0092 154.923 45.3868 163.802 46.4065 172.797C47.5612 183.008 51.3204 192.415 57.336 200.996C61.4924 206.919 66.6808 211.774 73.9781 214.264C81.199 216.728 87.4029 215.298 92.5899 209.975C94.9363 207.565 96.5416 204.723 97.8151 201.708C101.165 193.77 102.18 185.441 102.32 177.005C102.446 167.785 101.497 158.58 99.49 149.551C97.3237 139.57 94.0191 129.948 88.716 121.007C85.0919 114.886 80.784 109.27 74.6579 105.077C66.6931 99.6214 58.2778 99.3956 49.9445 104.419C44.363 107.789 40.3417 112.453 37.4384 117.977C33.0813 126.256 31.4228 135.193 30.8372 144.264C30.3228 152.804 30.7675 161.371 32.164 169.824C33.945 181.174 37.254 192.269 42.0125 202.844C49.0559 218.4 59.4244 231.537 74.0518 241.683C92.3769 254.377 113.491 259.687 135.653 262.232C140.78 262.821 145.944 263.253 151.103 263.379C159.097 263.574 167.107 263.597 175.1 263.402C181.697 263.238 188.29 262.706 194.879 262.255C199.744 261.91 204.596 261.417 209.453 260.981C211.451 260.801 213.438 260.533 215.436 260.426C216.357 260.353 217.295 260.586 218.229 260.694ZM164.469 38.9716L164.592 38.6196C164.109 38.3518 163.659 37.9309 163.139 37.8544C161.222 37.5254 159.265 37.0051 157.352 37.0893C149.691 37.4719 142.352 39.2929 136.058 43.4171C131.571 46.3911 127.365 49.7189 123.487 53.3641C117.795 58.6436 110.952 61.0692 103.2 61.1036C95.5465 61.138 87.8929 60.5259 80.2353 60.304C70.6407 60.0247 61.3532 61.379 52.6677 65.3884C38.2778 72.0376 27.7865 82.4475 20.5342 95.612C13.3311 108.7 10.3458 122.886 9.2156 137.424C8.53993 146.296 9.24018 155.118 10.8536 163.883C13.3642 177.677 18.3967 190.965 25.7307 203.166C40.2107 227.142 61.128 244.843 87.1558 257.403C100.065 263.654 113.942 267.981 128.282 270.227C134.543 271.211 140.874 271.941 147.209 272.358C152.703 272.701 158.214 272.728 163.712 272.439C169.15 272.171 174.564 271.44 179.969 270.79C184.195 270.285 188.393 269.596 192.307 267.901C193.261 267.492 194.166 266.983 195.092 266.516C195.039 266.402 194.985 266.287 194.936 266.172C194.697 266.181 194.458 266.209 194.224 266.256C192.623 266.715 191.05 267.274 189.429 267.641C181.431 269.451 173.241 269.841 165.08 270.319C157.182 270.728 149.26 270.377 141.439 269.271C134.781 268.364 128.053 267.653 121.533 266.172C87.7455 258.521 59.92 241.974 38.8143 216.112C21.6153 195.036 13.0158 170.995 12.68 144.475C12.553 134.734 14.1992 125.17 16.648 115.709C20.653 100.26 28.4007 86.9313 41.3491 76.376C53.3475 66.6012 67.3196 62.7793 83.0158 63.7319C89.6087 64.1336 96.2099 64.5736 102.811 64.6309C108.236 64.6706 113.592 63.4896 118.425 61.1878C122.213 59.405 125.166 56.6542 128.147 53.9188C133.405 49.1098 138.937 44.6681 146.005 42.2464C151.64 40.3335 157.287 38.5507 163.429 39.1284C163.781 39.113 164.13 39.0604 164.469 38.9716ZM105.44 142.65L105.874 142.462C105.759 142.026 105.686 141.575 105.526 141.154C101.431 130.442 98.2574 119.542 96.5743 108.252C95.8782 103.612 94.0273 99.3497 90.4728 95.9218C82.2132 87.9528 72.2172 86.5373 61.2754 89.6017C53.8225 91.6906 48.0117 96.27 42.6964 101.393C34.2238 109.557 28.0772 119.163 23.0403 129.436L22.3401 130.847L21.9716 130.752C22.8356 126.413 23.5194 122.033 24.6087 117.744C26.6562 109.741 31.0706 102.885 36.8937 96.8056C46.4556 86.8318 58.0977 80.3548 72.3687 78.0402C80.7062 76.6974 89.1173 76.5291 97.508 75.9667C104.379 75.5076 110.886 73.9773 116.894 70.7598C122.901 67.5423 127.889 63.1389 132.659 58.5174C137.983 53.3985 143.716 48.8458 150.649 45.7814C151.097 45.5488 151.527 45.2867 151.935 44.9971C147.25 45.5939 143.282 47.5948 139.838 50.3264C135.202 53.9991 130.755 57.8938 126.349 61.8037C117.619 69.5777 107.266 73.3766 95.2271 73.5526C88.6751 73.6483 82.1231 74.0308 75.6038 74.6353C67.9543 75.3469 60.5997 77.2292 53.8225 80.7565C39.4368 88.2818 28.9617 98.9595 23.7693 113.754C20.9028 121.895 20.825 130.48 19.6743 138.889C19.6374 139.149 19.9978 139.455 20.1697 139.742C20.4441 139.497 20.9069 139.287 20.9601 139.008C21.816 134.688 23.7734 130.755 25.8741 126.884C31.6399 116.172 38.6054 106.255 48.5235 98.4201C55.3458 93.0334 62.8765 89.5558 72.1845 90.0952C81.2263 90.6155 89.6865 96.0328 92.594 104.071C93.9494 107.805 94.7561 111.745 95.4605 115.644C97.0985 124.519 100.317 132.89 104.379 141.008C104.692 141.579 105.047 142.128 105.44 142.654V142.65ZM220.039 26.6029L220.121 26.1591C219.646 26.0137 219.175 25.8377 218.691 25.7229C216.136 25.1299 213.589 24.5178 211.026 23.9784C197.922 21.2315 184.744 18.6223 171.218 18.6874C165.718 18.6914 160.224 19.0198 154.768 19.6706C145.301 20.8183 136.681 24.3189 128.589 28.971C123.417 31.9436 118.352 35.0578 113.073 37.8889C106.583 41.3818 99.5104 43.0345 92.0207 42.3497C87.5203 41.8722 83.0484 41.184 78.6218 40.2876C74.8954 39.5913 71.2017 38.9524 67.3974 39.5798C62.6185 40.3718 58.2901 42.2579 54.1992 44.5916C44.232 50.2729 35.8659 57.6757 28.5604 66.1192C19.9077 76.1159 13.1345 87.1341 9.09274 99.476C6.22623 108.191 5.18205 117.239 4.02317 126.256C3.974 127.032 3.974 127.81 4.02317 128.586C4.29108 128.13 4.44374 127.622 4.46951 127.102C5.16976 123.177 5.84131 119.244 6.59479 115.33C7.92976 108.421 9.30568 101.523 12.2213 94.996C18.9356 79.739 29.4325 66.19 42.8479 55.4644C48.8675 50.6363 55.268 46.3821 62.725 43.6466C66.9962 42.0111 71.7021 41.6412 76.2058 42.5869C80.395 43.4515 84.6169 44.209 88.8593 44.8173C97.3769 46.0454 105.583 44.9015 113.188 41.0987C117.854 38.7428 122.385 36.1607 126.763 33.363C140.514 24.6364 155.727 20.9025 172.217 21.4534C177.574 21.6294 182.938 21.9278 188.261 22.4825C195.858 23.2783 203.413 24.3571 210.997 25.3365C214.011 25.7115 217.025 26.182 220.039 26.6067V26.6029ZM171.464 255.001L171.595 254.767C168.536 254.136 165.493 253.432 162.414 252.893C151.202 250.93 139.805 250.509 128.491 249.377C122.684 248.795 116.926 247.981 111.419 246.102C105.219 243.983 99.3057 241.354 94.8585 236.572C92.6063 234.147 90.829 231.396 91.7955 228.045C92.3196 226.243 93.4334 224.529 94.535 222.949C96.6194 220.003 99.0395 217.267 101.087 214.295C106.599 206.261 108.741 197.335 108.675 187.897C108.675 187.224 108.339 186.554 108.159 185.885L107.602 185.938C107.48 186.417 107.385 186.901 107.316 187.388C107.094 189.703 107.033 192.036 106.681 194.332C105.37 202.772 102.135 210.423 96.1689 217.026C93.866 219.593 91.7912 222.331 89.965 225.213C88.282 227.846 88.4294 230.768 89.6497 233.63C90.9273 236.63 93.1223 238.986 95.7431 240.983C102.086 245.846 109.482 248.662 117.369 250.441C128.835 253.027 140.555 253.398 152.258 253.956C158.659 254.236 165.059 254.641 171.464 254.997V255.001ZM24.5432 175.681C20.9888 164.969 18.4007 154.005 15.6447 143.086C15.5727 143.306 15.5477 143.538 15.5711 143.767C16.3051 152.099 17.7761 160.36 19.9691 168.466C22.8302 178.61 26.6382 188.501 31.3491 198.024C34.5555 204.6 37.9912 211.031 42.9298 216.632C43.7488 217.57 44.6988 218.419 45.7963 219.509C45.8413 219.02 45.9068 218.87 45.8536 218.782C45.4441 218.121 45.0592 217.455 44.6251 216.824C40.3974 210.867 36.7349 204.576 33.6792 198.024C29.0723 188.272 27.2049 177.958 26.8036 167.418C26.4069 156.672 26.7502 145.913 27.8315 135.209C27.9625 133.893 28.0485 132.573 28.155 131.253L27.4548 131.222C24.0928 145.863 23.5195 160.703 24.5432 175.681ZM67.7742 27.0007L67.6309 27.5517C68.1308 27.787 68.6449 27.9952 69.1706 28.1753C71.8119 28.9404 74.4491 29.7553 77.119 30.4363C82.301 31.7829 87.7519 31.9561 93.0199 30.9413C100.952 29.4339 108.311 26.5493 115.542 23.2132C122.131 20.1718 128.675 16.9505 135.526 14.5173C147.455 10.286 159.977 8.93932 172.705 9.23773C173.458 9.25686 174.216 9.23773 174.969 9.23773L175.026 8.78247C174.386 8.55383 173.727 8.37219 173.057 8.2392C163.882 7.10812 154.569 7.43018 145.51 9.19182C136.243 10.9479 127.762 14.6321 119.494 18.7945C112.631 22.2377 105.653 25.4628 98.1222 27.4904C92.8233 28.9174 87.4752 30.1914 81.8978 29.4492C78.7856 29.036 75.7267 28.3015 72.639 27.7315C71.0133 27.4369 69.3917 27.2418 67.7742 26.9931V27.0007ZM156.894 248.313C156.943 248.206 156.996 248.099 157.045 247.988C156.809 247.807 156.556 247.647 156.288 247.51C154.613 246.856 152.975 246.075 151.243 245.597C143.872 243.581 136.456 241.691 129.076 239.69C124.383 238.416 119.801 236.871 115.854 234.055C113.397 232.303 112.442 230.015 113.204 227.207C113.744 225.039 114.413 222.901 115.207 220.802C117.664 214.631 117.213 208.441 115.571 202.228C115.379 201.486 114.875 200.813 114.519 200.109L114.109 200.243C114.029 200.524 113.987 200.813 113.982 201.104C114.563 205.911 114.246 210.775 113.044 215.481C112.225 218.683 111.132 221.82 110.293 225.015C108.9 230.302 110.293 233.814 115.346 236.492C118.709 238.274 122.282 239.686 125.993 240.7C133.876 242.816 141.89 244.526 149.838 246.439C152.193 246.978 154.535 247.671 156.894 248.306V248.313ZM123.233 69.9373C122.631 70.0559 122.459 70.0367 122.377 70.1094C120.096 72.1294 117.995 74.3752 115.51 76.1388C110.653 79.582 105.424 82.4437 99.3344 83.6488C96.7709 84.1576 94.2197 84.743 91.7176 85.4584C91.0583 85.642 90.2148 86.4034 90.1616 86.9581C90.1124 87.4516 90.9273 88.2321 91.5539 88.5381C94.9552 90.1739 97.5649 92.9552 98.8553 96.3197C100.362 100.054 100.567 103.971 100.964 107.904C101.361 111.837 101.783 115.82 102.442 119.741C102.824 122.129 103.966 124.355 105.718 126.13C105.706 125.599 105.639 125.069 105.518 124.55C104.744 120.292 103.88 116.042 103.225 111.764C102.631 107.874 102.442 103.925 101.75 100.054C100.976 95.7382 99.1665 91.8168 95.3622 88.9781C94.4449 88.2933 93.4294 87.7271 92.3565 87.0423C92.8725 86.9045 93.2779 86.7783 93.6915 86.6903C98.8634 85.5961 104.04 84.544 108.675 81.931C113.073 79.4558 117.43 76.9384 120.878 73.3154C121.73 72.3858 122.324 71.238 123.233 69.9296V69.9373ZM118.675 220.925C118.773 225.443 120.313 228.775 123.466 231.22C125.997 233.167 128.827 234.782 131.57 236.48C131.939 236.71 132.569 236.572 133.077 236.603C132.866 236.157 132.59 235.74 132.258 235.363C129.908 233.267 127.455 231.273 125.162 229.127C123.315 227.402 121.886 225.347 121.476 222.891C121.23 221.411 121.37 219.88 121.247 218.377C121.214 217.945 120.874 217.535 120.673 217.114C120.264 217.39 119.674 217.593 119.535 217.956C119.121 219.104 118.863 220.317 118.675 220.917V220.925ZM128.298 3.78985C127.903 3.9317 127.523 4.10848 127.164 4.3178C122.795 7.82985 117.713 10.2439 112.545 12.4858C105.546 15.5196 98.1632 17.5588 90.7594 19.5329C90.2598 19.7102 89.7741 19.9199 89.3057 20.1603C95.4072 22.341 125.489 9.74273 128.282 3.78219L128.298 3.78985ZM117.754 82.0956L117.471 81.7818C117.132 81.9047 116.807 82.0585 116.501 82.2409C114.293 83.8095 112.045 85.3321 109.916 86.9887C106.591 89.5787 104.826 92.8957 105.248 97.0045C105.579 100.245 106.067 103.474 106.521 106.703C106.632 107.103 106.796 107.488 107.008 107.851L107.418 107.82C107.587 107.106 107.683 106.378 107.705 105.647C107.561 103.554 107.393 101.439 107.074 99.3803C106.46 95.4092 107.074 91.8092 110.284 88.8824C112.332 87.0423 114.31 85.1791 116.325 83.3313C116.791 82.8951 117.279 82.4972 117.754 82.0879V82.0956Z" fill="#113D50"/>
</svg>
