<svg width="353" height="340" viewBox="0 0 353 340" fill="none" xmlns="http://www.w3.org/2000/svg">
<g clip-path="url(#clip0_68_180)">
<path d="M253.528 167.168C254.343 209.292 221.389 242.006 182.433 243.943C140.842 245.993 105.033 213.793 103.772 171.449C102.547 131.021 132.943 96.509 175.365 94.3715C220.098 92.1162 252.626 127.53 253.528 167.168ZM177.625 229.755C210.21 230.016 237.838 202.911 238.182 170.541C238.551 135.952 211.42 109.277 178.799 108.842C144.584 108.38 117.858 134.983 117.289 168.142C116.7 202.26 143.6 229.463 177.625 229.729V229.755Z" fill="#C1AD8C"/>
<path d="M108.58 227.484C105.919 228.653 102.936 228.867 100.135 228.092C97.3334 227.317 94.8851 225.6 93.2028 223.23C89.8659 218.642 88.6152 213.311 87.6721 207.852C86.852 203.126 86.4983 198.292 83.5714 194.151C81.113 190.581 77.3503 188.119 73.0942 187.298C69.4549 186.529 67.7583 188.169 68.3324 191.911C68.9065 195.653 69.7727 199.148 70.2853 202.798C72.7815 220.6 61.2587 234.886 50.5765 239.781C42.7853 243.369 34.8197 243.661 27.1259 239.432C24.8603 238.187 22.9329 236.28 20.9441 234.563C16.3872 230.626 8.44222 229.268 3.83923 231.759C3.18825 232.108 2.68595 232.784 2.01447 233.03C1.34299 233.276 0.681736 233.087 0.00512695 233.092C0.102518 232.43 -0.0358671 231.554 0.338318 231.149C2.86535 228.453 6.24842 227.423 9.72373 226.587C16.2694 225.019 22.5792 226.438 28.884 228.027C29.8323 228.268 30.7857 228.478 31.734 228.704C38.6743 230.324 43.221 229.944 46.8705 220.303C48.803 215.177 49.3668 209.503 50.1152 204.013C50.9609 197.862 50.9661 191.557 53.1907 185.601C58.4549 171.572 72.228 168.819 83.6381 174.222C94.4023 179.347 99.2411 188.425 100.758 199.6C101.558 205.474 101.666 211.45 101.907 217.386C102.05 220.831 103.121 223.486 106.366 225.111C107.237 225.531 107.786 226.597 108.58 227.484Z" fill="#C1AD8C"/>
<path d="M236.649 232.733C238.141 235.314 238.693 238.332 238.213 241.274C237.733 244.216 236.249 246.901 234.014 248.874C229.063 253.431 222.819 255.194 216.586 256.968C211.799 258.331 207.114 260.043 204.407 264.482C202.844 267.11 201.769 270 201.235 273.012C200.563 276.728 202.772 278.332 206.448 277.24C209.831 276.215 213.142 274.954 216.556 274.047C230.969 270.197 246.854 275.836 255.22 287.625C260.925 295.673 262.97 308.241 255.517 317.529C252.154 321.712 251.416 326.582 252.134 331.605C252.426 333.655 254.041 335.541 254.994 337.53C255.302 338.286 255.562 339.059 255.773 339.847C254.917 339.724 253.79 339.904 253.241 339.427C249.243 335.905 247.423 331.118 246.865 326.1C246.352 321.738 246.865 317.263 246.993 312.839C247.054 310.891 247.387 308.949 247.505 306.996C247.833 301.593 245.968 298.528 241.042 296.267C235.47 293.704 229.539 293.592 223.568 293.648C217.417 293.71 211.194 294.161 205.115 293.576C190.547 292.121 182.561 279.978 186.431 265.897C189.025 256.501 194.709 249.643 203.915 246.347C209.554 244.338 215.489 243.22 221.343 241.79C223.25 241.358 225.181 241.036 227.125 240.826C230.58 240.375 233.245 239.022 234.455 235.439C234.742 234.46 235.772 233.753 236.649 232.733Z" fill="#C1AD8C"/>
<path d="M116.238 106.976C113.235 101.337 114.357 95.0943 118.709 90.9885C122.897 87.0416 128.094 85.0989 133.456 83.4843C137.987 82.1106 142.636 81.0444 146.271 77.6511C147.895 76.1815 149.202 74.3964 150.113 72.4047C151.025 70.413 151.521 68.2564 151.571 66.0667C151.694 62.6529 149.807 61.2997 146.445 62.3044C143.082 63.3091 139.751 64.5905 136.352 65.5542C119.319 70.3981 104.275 61.8123 97.2575 52.0117C91.4909 43.959 89.6866 31.4008 96.9704 22.2819C100.384 18.0224 100.979 13.0555 100.23 7.9553C99.9331 5.9716 98.2775 4.19805 97.3138 2.29124C96.9974 1.54426 96.742 0.772858 96.5501 -0.0153809C97.4061 0.117891 98.5389 -0.0563949 99.0823 0.425432C103.603 4.49534 105.449 9.94921 105.823 15.7414C106.115 20.2829 105.643 24.9064 105.187 29.4581C104.229 39.0793 106.766 42.8416 116.243 45.1021C123.092 46.7373 130.027 45.9837 136.931 45.6659C143.369 45.3686 149.746 45.4405 155.723 48.275C165.251 52.7909 169.383 63.0784 166.292 74.063C162.935 85.9908 154.431 92.3776 143.087 95.4685C137.664 96.9498 132.052 97.7956 126.495 98.7439C122.794 99.3743 119.698 100.528 118.427 104.536C118.114 105.413 117.105 106.033 116.238 106.976Z" fill="#C1AD8C"/>
<path d="M244.276 111.471C250.627 109.067 256.327 111.056 259.761 115.608C263.196 120.16 264.426 125.634 265.497 131.134C266.199 134.722 266.743 138.454 268.06 141.842C270.141 147.173 274.457 150.263 280.008 151.504C283.678 152.324 285.426 150.525 284.868 146.742C284.063 141.319 282.781 135.906 282.627 130.462C282.233 116.397 292.367 101.994 305.555 97.611C314.315 94.7047 322.763 95.4992 329.8 102.091C333.56 105.739 338.562 107.825 343.799 107.929C346.214 108.006 348.576 107.219 350.463 105.71C351.067 105.264 352.123 105.423 352.969 105.305C352.718 106.074 352.698 107.084 352.18 107.57C348.658 110.902 344.168 111.856 339.56 112.404C334.137 113.05 328.95 111.64 323.747 110.441C322.06 110.051 320.369 109.677 318.662 109.416C313.7 108.637 310.461 110.231 307.852 114.542C304.125 120.693 303.567 127.587 302.864 134.502C302.311 139.95 301.977 145.507 300.645 150.786C297.057 164.98 283.525 170.967 270.167 164.908C259.049 159.864 253.923 150.761 252.349 139.279C251.539 133.399 251.391 127.428 251.124 121.492C250.97 118.119 249.853 115.567 246.726 113.962C245.865 113.506 245.265 112.486 244.276 111.471Z" fill="#C1AD8C"/>
<path d="M276.092 204.233L277.338 201.312C275.503 200.44 274.513 201.107 274.19 202.808C273.832 204.736 274.011 206.653 275.641 207.975C276.841 208.949 280.459 208.19 281.925 206.668C283.571 204.956 285.001 203.08 284.063 200.425C283.125 197.77 279.762 195.268 276.923 195.299C274.283 195.299 272.617 196.837 271.638 199.2C269.869 203.444 269.454 207.745 272.248 211.656C274.698 215.09 280.449 216.12 284.314 213.742C286.877 212.153 289.194 210.005 291.403 207.888C294.991 204.459 298.143 200.584 302.895 198.595C306.955 196.903 310.42 197.657 313.177 201.071C314.597 202.829 315.828 204.731 317.278 206.448C319.262 208.785 321.251 209.139 324.152 208.155C326.715 207.288 329.278 206.35 331.902 205.915C334.773 205.438 336.433 206.694 337.587 209.672C336.667 209.86 335.732 209.963 334.793 209.979C332.842 209.762 330.867 210.022 329.039 210.736C327.21 211.45 325.583 212.598 324.295 214.08C323.258 215.169 322.066 216.1 320.759 216.843C317.217 218.924 313.854 218.545 310.758 215.874C307.431 213.004 306.176 212.85 302.306 214.849C297.431 217.355 292.715 220.267 287.646 222.281C278.84 225.782 268.378 222.343 262.647 214.695C259.531 210.543 257.588 205.981 257.67 200.722C257.808 191.542 264.093 184.883 273.268 184.319C276.395 184.085 279.537 184.496 282.499 185.527C285.461 186.558 288.179 188.186 290.485 190.312C295.509 194.838 296.078 200.425 291.992 205.792C288.163 210.83 283.094 213.029 276.769 211.871C274.17 211.394 272.437 209.82 271.858 207.201C271.259 204.449 271.284 201.752 273.473 199.62C274.248 198.939 275.26 198.59 276.29 198.646C277.32 198.703 278.287 199.161 278.983 199.922C280.218 201.46 279.291 202.798 278.296 203.951C277.907 204.402 277.097 204.5 276.477 204.756L276.092 204.233Z" fill="#C1AD8C"/>
<path d="M77.2718 134.968C76.8002 136.198 76.5901 136.726 76.3902 137.259C76.1902 137.792 76.0365 138.202 75.8366 138.736C77.6306 139.648 78.4764 138.905 78.9121 137.326C79.4247 135.378 78.6609 132.667 77.4051 131.969C76.0365 131.216 72.4843 131.934 71.1055 133.441C69.5062 135.188 68.1017 137.105 69.1064 139.72C70.111 142.334 73.5146 144.748 76.3543 144.712C79.0351 144.676 80.6036 143.041 81.5468 140.709C83.2434 136.526 83.6278 132.277 80.9214 128.407C78.4302 124.88 72.6483 123.886 68.6553 126.357C66.0924 127.966 63.8165 130.145 61.6176 132.272C58.1679 135.614 55.1231 139.397 50.5765 141.421C46.0299 143.446 42.447 142.534 39.4791 138.546C38.3104 136.977 37.2032 135.358 35.9371 133.871C33.9381 131.518 31.775 131.139 28.8584 132.2C26.492 133.142 24.0502 133.883 21.5592 134.414C18.453 134.973 16.4949 133.61 15.6646 130.642C16.4481 130.473 17.2466 130.384 18.0481 130.375C22.5178 130.801 26.1417 129.294 29.0942 125.926C29.9717 124.995 30.976 124.193 32.0774 123.543C35.6655 121.303 39.2997 121.646 42.4572 124.429C45.5327 127.131 46.8398 127.336 50.5355 125.378C54.8566 123.097 59.0187 120.493 63.4372 118.422C78.3021 111.446 94.3972 123.122 95.3454 137.341C96.0887 148.536 88.4461 156.748 76.0672 155.569C71.9208 155.187 67.955 153.691 64.5905 151.237C56.2149 145.199 56.6045 135.64 65.3902 130.15C68.6503 128.051 72.6034 127.315 76.4004 128.099C77.6089 128.263 78.7338 128.808 79.6121 129.654C80.4904 130.5 81.0764 131.603 81.2853 132.805C81.8851 135.563 81.7979 138.259 79.6041 140.371C78.174 141.734 75.5956 141.56 74.2578 140.119C72.92 138.679 73.7811 137.275 74.7345 136.106C75.1343 135.66 76.0108 135.537 77.2718 134.968Z" fill="#C1AD8C"/>
<path d="M220.677 68.891L217.981 67.1995C216.848 68.8756 217.207 70.2084 219.006 70.4442C220.677 70.6595 222.86 70.6902 224.039 69.7881C224.916 69.1115 224.993 66.7125 224.66 65.2619C223.522 60.2745 218.145 58.8598 214.459 62.4171C210.538 66.2102 211.035 70.7158 215.884 73.0788C219.841 75.0061 224.086 76.0313 228.094 73.2223C232.43 70.193 233.081 63.6935 229.56 58.6394C227.371 55.4973 224.726 52.6678 222.604 49.4898C220.864 46.9612 219.432 44.2336 218.339 41.3653C216.858 37.2647 218.401 33.7894 222.133 31.5392C224.06 30.3705 226.069 29.3299 227.94 28.0741C230.365 26.4441 230.934 24.5219 230.324 21.6259C229.775 18.9912 229.14 16.3309 228.996 13.6603C228.832 10.6156 230.447 8.93942 233.532 8.53448C233.43 9.90308 233.404 11.2204 233.209 12.5121C232.697 15.9311 233.645 18.8733 235.772 21.5438C236.777 22.7557 237.637 24.0802 238.335 25.4907C240.201 29.4273 239.54 33.241 236.182 35.8449C233.338 38.0541 232.989 40.5862 234.173 43.6156C235.46 46.9115 236.859 50.1561 238.207 53.4264C242.216 63.1655 241.39 72.0896 233.819 79.9167C226.49 87.5029 213.039 89.8659 205.192 82.0439C201.691 78.5481 200.399 74.2526 200.579 69.501C200.664 66.135 201.502 62.831 203.031 59.8313C204.56 56.8315 206.742 54.2122 209.415 52.1655C215.202 47.5522 222.707 49.5462 226.843 56.5019C229.104 60.3206 229.78 64.3496 228.494 68.6348C227.75 71.1208 226.3 72.9353 223.578 73.3454C220.605 73.7862 217.817 73.4274 215.797 70.9003C214.531 69.3216 215.023 66.6255 216.709 65.4516C218.396 64.2778 219.57 65.5233 220.61 66.5536C221.061 66.9996 221.072 67.8966 221.277 68.604L220.677 68.891Z" fill="#C1AD8C"/>
<path d="M131.918 270.223L134.732 271.945C135.927 270.203 135.399 268.906 133.681 268.649C132.072 268.414 129.991 268.378 128.802 269.218C127.925 269.844 127.777 272.063 127.951 273.493C128.258 275.995 130.083 277.681 132.338 278.527C134.389 279.306 136.321 278.435 137.941 276.989C142.318 273.15 141.657 268.275 136.403 265.784C135.457 265.329 134.461 264.985 133.435 264.759C129.335 263.903 125.414 263.98 122.635 267.758C120.206 271.064 120.329 276.507 122.994 280.321C125.188 283.458 127.802 286.308 129.893 289.506C131.694 292.172 133.17 295.042 134.291 298.056C135.66 301.937 134.066 305.366 130.529 307.498C128.858 308.523 127.095 309.369 125.444 310.41C121.964 312.609 121.461 314.157 122.292 318.16C122.877 320.714 123.22 323.317 123.317 325.936C123.358 328.652 121.672 330.185 118.791 330.549C118.831 329.278 118.935 328.011 119.104 326.751C119.719 323.337 118.806 320.379 116.741 317.663C115.698 316.381 114.797 314.991 114.055 313.516C112.153 309.415 112.901 305.827 116.474 303.054C118.96 301.122 119.55 298.866 118.524 296.109C117.443 293.141 116.218 290.224 115.008 287.307C112.363 280.91 110.815 274.457 113.327 267.594C117.674 255.702 131.462 249.238 142.723 253.887C149.295 256.599 153.088 263.877 151.914 271.766C151.207 276.881 148.841 281.622 145.179 285.262C137.721 292.761 129.863 289.465 125.562 282.238C124.492 280.502 123.814 278.553 123.574 276.527C123.334 274.502 123.539 272.449 124.173 270.51C124.942 267.988 126.367 266.225 129.063 265.81C132.036 265.359 134.819 265.738 136.844 268.25C138.105 269.787 137.613 272.545 135.937 273.693C134.261 274.841 133.061 273.693 132.041 272.596C131.595 272.125 131.611 271.218 131.416 270.51L131.918 270.223Z" fill="#C1AD8C"/>
<path d="M218.698 265.748C220.149 265.635 221.63 265.282 223.04 265.466C224.649 265.682 226.423 266.061 227.709 266.958C229.099 267.927 228.596 269.588 226.92 269.967C222.958 270.859 218.985 271.756 214.977 272.35C212.209 272.76 209.451 272.35 207.965 269.475C206.688 267.019 207.56 264.072 210.123 261.545C212.778 258.921 216.135 257.895 219.713 257.511C225.598 256.875 231.241 258.024 236.741 260.038L237.797 260.438C243.174 262.488 245.347 261.391 246.665 255.743C247.951 250.243 246.05 245.686 242.185 241.8C241.288 240.893 240.237 240.068 239.581 239.007C239.384 238.634 239.275 238.221 239.264 237.8C239.252 237.378 239.338 236.96 239.514 236.577C239.868 236.018 241.149 235.496 241.729 235.726C253.308 240.278 260.653 256.183 251.826 266.927C247.126 272.653 239.114 272.991 233.373 267.881C232.195 266.855 231.092 265.692 229.903 264.651C227.294 262.36 222.983 261.858 219.969 263.529C219.392 263.931 218.863 264.397 218.391 264.918L218.698 265.748Z" fill="#C1AD8C"/>
<path d="M275.123 133.159C275.123 131.79 274.893 130.37 275.185 129.058C275.539 127.464 276.015 125.711 277.01 124.486C278.204 123.009 279.947 123.753 280.142 125.685C280.521 129.35 280.793 133.025 281.085 136.701C281.134 137.3 281.117 137.904 281.033 138.5C280.67 141.063 279.952 143.426 277.194 144.369C274.831 145.179 271.899 144.005 270.018 141.673C267.255 138.223 266.676 134.168 266.896 129.955C267.194 124.214 269.029 118.883 271.797 113.906C274.324 109.349 275.175 107.094 268.209 104.223C263.759 102.388 259.495 103.26 255.568 105.889C254.072 106.914 252.759 108.211 251.191 109.057C250.74 109.239 250.256 109.324 249.77 109.307C249.285 109.289 248.808 109.169 248.372 108.954C247.91 108.719 247.582 107.222 247.859 106.668C253.349 96.6012 268.983 90.3016 279.234 99.6306C284.837 104.726 284.873 112.645 279.496 118.084C278.076 119.524 276.42 120.734 274.939 122.118C272.504 124.388 271.566 128.643 272.822 131.688C273.144 132.295 273.529 132.867 273.97 133.394L275.123 133.159Z" fill="#C1AD8C"/>
<path d="M78.2406 205.566C78.074 206.927 77.9867 208.296 77.9792 209.667C78.0663 211.604 77.6256 213.255 76.0314 214.454C74.5552 215.551 73.1148 215.008 72.9559 213.188C72.5817 209.369 72.1973 205.545 72.0896 201.711C71.9717 197.734 73.5967 195.084 76.1596 194.397C78.9531 193.648 82.085 195.207 84.002 198.467C87.2416 203.956 86.7597 209.8 85.0272 215.525C83.92 219.165 82.2337 222.65 80.578 226.095C78.661 230.098 79.2299 232.061 83.2793 234.019C88.1694 236.388 92.8953 236.034 97.4061 233.04C98.9079 232.015 100.23 230.739 101.814 229.909C102.266 229.732 102.75 229.654 103.235 229.68C103.719 229.706 104.192 229.834 104.623 230.057C105.085 230.308 105.387 231.8 105.079 232.354C99.5179 242.354 84.1404 248.346 73.9554 239.381C67.9428 234.086 67.9992 225.828 73.8785 220.292C75.2471 219.001 76.79 217.904 78.1688 216.627C80.5882 214.393 81.5109 210.02 80.2192 207.037C79.916 206.473 79.5626 205.938 79.1633 205.438L78.2406 205.566Z" fill="#C1AD8C"/>
<path d="M134.102 73.9246C132.733 74.0169 131.344 74.0169 130.001 74.2373C128.094 74.5448 126.387 74.3347 125.019 72.8636C123.819 71.577 124.091 70.152 125.767 69.7881C129.945 68.8347 134.138 67.9018 138.372 67.2713C140.935 66.892 143.395 67.543 144.779 70.0803C145.968 72.2536 145.291 75.324 143.2 77.5537C139.228 81.762 134.015 82.7923 128.674 82.2285C123.942 81.7159 119.232 80.5113 114.66 79.1222C109.739 77.6255 107.996 78.2201 106.458 83.1768C104.613 89.1073 106.658 93.941 110.825 98.139C111.461 98.7797 112.297 99.3128 112.691 100.077C113.173 101.025 113.783 102.363 113.455 103.152C112.804 104.746 111.266 104.434 109.99 103.701C102.639 99.4769 97.7649 93.5566 97.2215 84.735C96.914 81.1778 97.782 77.6178 99.6922 74.6013C104.305 67.4712 112.958 66.241 119.375 71.8282C120.57 72.8533 121.677 74.0015 122.871 75.0369C125.48 77.3077 129.806 77.8049 132.825 76.1441C133.403 75.7407 133.934 75.2748 134.409 74.755C134.302 74.4782 134.199 74.2014 134.102 73.9246Z" fill="#C1AD8C"/>
<path d="M271.233 92.6902C274.062 88.6767 279.829 87.4926 284.745 89.7582C286.585 90.6091 288.384 91.5472 290.245 92.3622C293.992 94.0076 297.867 94.5816 301.911 93.6539C302.742 93.5193 303.581 93.4389 304.423 93.413L304.715 93.9973C304.253 94.5737 303.721 95.0903 303.131 95.535C295.678 99.9535 286.421 100.948 278.722 94.6175C275.908 92.3314 275.359 92.3314 271.233 92.6902Z" fill="#C1AD8C"/>
<path d="M81.8542 245.768C78.9171 250.084 73.0121 251.268 68.1426 248.971C66.1692 248.044 64.247 247.013 62.2479 246.152C58.7213 244.614 55.0717 244.061 51.2479 244.907C50.397 245.096 49.5205 245.178 48.6542 245.312L48.2595 244.799C48.685 244.261 49.0079 243.553 49.5564 243.215C56.9837 238.699 66.5075 237.715 73.9245 243.994C76.0466 245.768 78.425 246.993 81.8542 245.768Z" fill="#C1AD8C"/>
<path d="M257.962 257.039C262.165 259.223 264.359 264.267 263.339 268.542C262.798 270.65 262.15 272.728 261.397 274.77C259.808 279.321 259.592 283.853 261.284 288.435C261.489 289.004 261.207 289.752 261.151 290.414C260.612 290.106 259.92 289.901 259.562 289.465C254.487 283.109 251.745 273.857 257.24 265.19C258.772 262.78 259.833 260.289 257.962 257.039Z" fill="#C1AD8C"/>
<path d="M94.2689 82.4591C90.8603 81.1776 88.4203 75.9288 89.384 71.5257C89.9273 69.0448 90.7731 66.6203 91.5625 64.2009C92.9459 60.1082 92.8754 55.6636 91.3626 51.617C91.1422 51.0173 91.3626 50.2638 91.3626 49.5667C91.9623 49.8845 92.7517 50.0792 93.1361 50.5406C98.1389 56.8197 100.897 65.918 95.6068 74.6319C93.5359 78.0201 93.6231 78.138 94.2689 82.4591Z" fill="#C1AD8C"/>
<path d="M214.803 47.8855C214.418 47.2499 214.198 46.9064 213.998 46.5476C212.46 43.8053 211.061 41.0117 209.441 38.3463C207.611 35.3272 206.668 32.1953 207.524 28.679C208.426 24.9832 211.671 22.9688 215.941 23.0047C217.883 23.0047 219.826 22.4921 221.779 22.2358C222.24 22.1846 222.953 22.2358 223.148 22.5075C223.243 22.7334 223.285 22.9785 223.269 23.2233C223.252 23.468 223.179 23.7056 223.055 23.9171C221.518 26.3416 219.498 28.1818 216.602 28.843C212.301 29.8169 211.189 32.5234 213.665 36.2191C216.048 39.7662 216.776 43.4619 214.803 47.8855Z" fill="#C1AD8C"/>
<path d="M56.9888 144.333C56.1584 144.912 55.6817 145.225 55.2204 145.568C52.883 147.296 50.4739 148.941 48.2288 150.781C45.2866 153.201 42.0368 154.533 38.2334 153.857C34.8709 153.252 32.8206 150.699 32.2772 146.793C31.9697 144.594 32.4156 142.221 30.5908 140.401C30.5136 140.213 30.4854 140.008 30.5087 139.805C30.532 139.602 30.6061 139.409 30.7241 139.243C30.9397 139.126 31.1769 139.055 31.4212 139.034C31.6654 139.013 31.9115 139.042 32.144 139.12C33.4747 139.657 34.6785 140.466 35.6786 141.495C36.6786 142.524 37.4528 143.751 37.9515 145.097C39.4892 149.197 42.0521 149.838 45.4967 146.916C48.7311 144.179 52.273 142.831 56.9888 144.333Z" fill="#C1AD8C"/>
<path d="M137.372 291.213C139.853 295.411 142.118 298.902 144.036 302.588C146.342 306.98 145.614 312.25 142.236 314.438C140.596 315.5 138.341 315.669 136.337 316.084C134.481 316.468 132.584 316.658 130.698 316.889C130.237 316.94 129.396 316.889 129.34 316.73C129.169 316.204 129.21 315.632 129.453 315.136C130.99 312.721 133.082 310.948 135.973 310.312C140.181 309.384 141.134 306.852 138.997 303.054C137.891 301.196 137.116 299.16 136.706 297.036C136.439 295.314 137.085 293.433 137.372 291.213Z" fill="#C1AD8C"/>
<path d="M296.483 195.489C297.159 195.079 297.856 194.709 298.497 194.258C300.547 192.787 302.506 191.183 304.648 189.84C306.791 188.497 308.995 187.072 311.373 186.488C316.268 185.283 320.118 188.195 320.882 193.208C321.235 195.54 320.764 198.062 322.609 200.04C322.666 200.235 322.674 200.441 322.632 200.64C322.589 200.838 322.499 201.023 322.368 201.178C321.9 201.363 321.38 201.363 320.912 201.178C319.592 200.623 318.402 199.799 317.418 198.757C316.435 197.716 315.68 196.48 315.202 195.13C313.844 191.316 311.307 190.645 307.965 192.997C306.042 194.39 303.927 195.495 301.685 196.278C300.148 196.791 298.333 196.375 296.636 196.375C296.59 196.073 296.539 195.781 296.483 195.489Z" fill="#C1AD8C"/>
<path d="M113.921 82.1362C115.972 82.495 118.227 82.7821 120.4 83.3254C121.031 83.4792 121.872 84.3506 121.897 84.9144C121.923 85.4783 121.087 86.1446 120.564 86.6982C120.385 86.8878 120.006 86.8827 119.719 86.9699C115.105 88.4 115.049 88.4512 114.829 93.3515C114.861 93.8733 114.787 94.3963 114.613 94.8892C114.378 95.3711 113.855 96.0784 113.501 96.0528C113.189 96.0113 112.892 95.8968 112.633 95.7187C112.373 95.5406 112.16 95.3038 112.009 95.0276C111.067 92.7466 110.292 90.3996 109.693 88.0053C108.96 84.7453 110.954 82.0798 113.921 82.1362Z" fill="#C1AD8C"/>
<path d="M269.336 111.902C268.767 113.773 268.06 116.29 267.189 118.75C267.036 119.034 266.816 119.276 266.548 119.455C266.28 119.634 265.972 119.744 265.651 119.775C265.138 119.775 264.554 119.15 264.077 118.719C263.905 118.472 263.825 118.173 263.852 117.873C263.785 113.686 261.745 111.584 257.491 111.476C256.793 111.476 256.117 110.451 255.44 109.867C256.117 109.39 256.732 108.693 257.491 108.478C259.356 107.965 261.284 107.627 263.19 107.258C266.297 106.684 269.367 108.657 269.336 111.902Z" fill="#C1AD8C"/>
<path d="M88.6922 231.723C85.0016 231.774 83.0538 229.334 84.0789 225.572C84.4836 223.892 85.0061 222.243 85.6423 220.636C85.8254 220.265 86.088 219.939 86.4113 219.681C86.7347 219.424 87.1109 219.24 87.5132 219.144C87.9899 219.093 88.605 220.113 89.1125 220.682C89.2406 220.826 89.1894 221.118 89.2355 221.338C90.1838 226.259 90.1838 226.259 95.0174 227.223C95.5429 227.269 96.0537 227.421 96.5193 227.669C96.955 227.986 97.4932 228.56 97.4778 228.996C97.4155 229.272 97.2854 229.528 97.0992 229.741C96.9131 229.954 96.6768 230.117 96.4117 230.216C93.9205 230.811 91.3986 231.241 88.6922 231.723Z" fill="#C1AD8C"/>
<path d="M243.256 252.037C243.256 256.342 241.344 258.024 237.695 257.429C235.98 257.219 234.281 256.893 232.61 256.455C232.224 256.308 231.877 256.077 231.593 255.778C231.309 255.479 231.096 255.12 230.97 254.728C230.877 254.261 231.805 253.533 232.364 253.011C232.61 252.785 233.066 252.785 233.425 252.672C237.7 251.334 237.838 251.135 238.038 246.726C238.022 246.05 238.129 245.375 238.356 244.738C238.477 244.487 238.647 244.264 238.857 244.082C239.067 243.899 239.311 243.761 239.576 243.676C239.825 243.692 240.066 243.771 240.276 243.907C240.486 244.043 240.658 244.23 240.775 244.45C241.713 247.131 242.554 249.848 243.256 252.037Z" fill="#C1AD8C"/>
<path d="M178.251 113.26C207.688 113.388 233.307 137.203 233.702 168.788C234.086 199.359 209.139 225.054 178.491 225.295C146.947 225.541 122.692 200.978 121.718 171.069C120.703 139.638 145.666 113.137 178.251 113.26ZM178.158 128.125C154.421 127.879 135.675 148.157 136.916 171.413C137.486 182.237 142.289 192.403 150.289 199.718C158.289 207.032 168.843 210.907 179.676 210.507C202.229 209.8 220.041 190.624 219.211 167.753C218.854 157.109 214.371 147.022 206.709 139.625C199.047 132.228 188.808 128.102 178.158 128.12V128.125Z" fill="#C1AD8C"/>
<path d="M141.319 169.367C141.119 149.976 157.025 132.123 178.82 132.544C188.408 132.727 197.544 136.656 204.272 143.491C211 150.325 214.785 159.521 214.818 169.111C215.028 189.271 198.651 205.838 178.307 206.017C157.963 206.197 141.575 189.963 141.319 169.367Z" fill="#C1AD8C"/>
</g>
<defs>
<clipPath id="clip0_68_180">
<rect width="353" height="339.863" fill="white"/>
</clipPath>
</defs>
</svg>
